M48
; DRILL file {KiCad (5.1.5)-3} date 24.06.2020 22:02:06
; FORMAT={-:-/ absolute / inch / decimal}
; #@! TF.CreationDate,2020-06-24T22:02:06+03:00
; #@! TF.GenerationSoftware,Kicad,Pcbnew,(5.1.5)-3
; #@! TF.FileFunction,Plated,1,2,PTH
FMAT,2
INCH
T1C0.0315
T2C0.0394
T3C0.0433
T4C0.0472
T5C0.0591
T6C0.1000
T7C0.2756
T8C0.3799
%
G90
G05
T1
X2.1Y-2.6
X2.2Y-3.9
X2.2Y-4.3
X10.6Y-1.5
X1.6Y-3.1
X1.6Y-3.5
X2.9Y-2.6
X2.9Y-3.0
X2.1Y-2.2
X10.6Y-1.1
X0.4Y-3.5
X0.4Y-3.9
X10.6Y-2.1
X10.6Y-2.5
T2
X0.4Y-4.4
X0.4Y-4.5969
X9.6Y-1.2
X9.6Y-1.3969
X2.45Y-2.95
X2.45Y-3.1469
X1.0531Y-3.1
X1.25Y-3.1
X-0.1Y-3.6
X-0.1Y-3.7969
T3
X3.3Y-2.8
X3.3Y-3.0
X6.0Y-1.1
X6.2Y-1.1
X2.2Y-3.45
X2.2Y-3.55
X2.2Y-3.65
X6.6Y-1.9
X6.6Y-2.1
T4
X5.5984Y-1.1969
X5.5984Y-1.9843
T5
X3.0Y-1.0
X3.0Y-1.3937
X3.0Y-1.7874
X3.0Y-2.1811
T6
X0.15Y-2.55
X8.3Y-3.8
X0.15Y-1.05
X6.75Y-3.8
T7
X7.322Y-1.1
X8.7Y-1.1
T8
X-0.35Y-2.55
X8.3Y-3.3
X-0.35Y-1.05
X6.75Y-3.3
T0
M30
