G04 #@! TF.GenerationSoftware,KiCad,Pcbnew,(5.1.5)-3*
G04 #@! TF.CreationDate,2020-06-24T22:01:33+03:00*
G04 #@! TF.ProjectId,forward_converter_opto,666f7277-6172-4645-9f63-6f6e76657274,rev?*
G04 #@! TF.SameCoordinates,Original*
G04 #@! TF.FileFunction,Legend,Top*
G04 #@! TF.FilePolarity,Positive*
%FSLAX46Y46*%
G04 Gerber Fmt 4.6, Leading zero omitted, Abs format (unit mm)*
G04 Created by KiCad (PCBNEW (5.1.5)-3) date 2020-06-24 22:01:33*
%MOMM*%
%LPD*%
G04 APERTURE LIST*
%ADD10C,0.120000*%
%ADD11C,0.150000*%
G04 APERTURE END LIST*
D10*
X247215000Y-28000354D02*
X246215000Y-28000354D01*
X246715000Y-27500354D02*
X246715000Y-28500354D01*
X244439000Y-38061000D02*
X243241000Y-38061000D01*
X244702000Y-38021000D02*
X242978000Y-38021000D01*
X244902000Y-37981000D02*
X242778000Y-37981000D01*
X245070000Y-37941000D02*
X242610000Y-37941000D01*
X245218000Y-37901000D02*
X242462000Y-37901000D01*
X245350000Y-37861000D02*
X242330000Y-37861000D01*
X245470000Y-37821000D02*
X242210000Y-37821000D01*
X245582000Y-37781000D02*
X242098000Y-37781000D01*
X245686000Y-37741000D02*
X241994000Y-37741000D01*
X245784000Y-37701000D02*
X241896000Y-37701000D01*
X245877000Y-37661000D02*
X241803000Y-37661000D01*
X245965000Y-37621000D02*
X241715000Y-37621000D01*
X246049000Y-37581000D02*
X241631000Y-37581000D01*
X246129000Y-37541000D02*
X241551000Y-37541000D01*
X246205000Y-37501000D02*
X241475000Y-37501000D01*
X246279000Y-37461000D02*
X241401000Y-37461000D01*
X246350000Y-37421000D02*
X241330000Y-37421000D01*
X246419000Y-37381000D02*
X241261000Y-37381000D01*
X246485000Y-37341000D02*
X241195000Y-37341000D01*
X246549000Y-37301000D02*
X241131000Y-37301000D01*
X246610000Y-37261000D02*
X241070000Y-37261000D01*
X246670000Y-37221000D02*
X241010000Y-37221000D01*
X246729000Y-37181000D02*
X240951000Y-37181000D01*
X246785000Y-37141000D02*
X240895000Y-37141000D01*
X246840000Y-37101000D02*
X240840000Y-37101000D01*
X246894000Y-37061000D02*
X240786000Y-37061000D01*
X246946000Y-37021000D02*
X240734000Y-37021000D01*
X246996000Y-36981000D02*
X240684000Y-36981000D01*
X247046000Y-36941000D02*
X240634000Y-36941000D01*
X247094000Y-36901000D02*
X240586000Y-36901000D01*
X247141000Y-36861000D02*
X240539000Y-36861000D01*
X247187000Y-36821000D02*
X240493000Y-36821000D01*
X247232000Y-36781000D02*
X240448000Y-36781000D01*
X247276000Y-36741000D02*
X240404000Y-36741000D01*
X242599000Y-36701000D02*
X240362000Y-36701000D01*
X247318000Y-36701000D02*
X245081000Y-36701000D01*
X242599000Y-36661000D02*
X240320000Y-36661000D01*
X247360000Y-36661000D02*
X245081000Y-36661000D01*
X242599000Y-36621000D02*
X240279000Y-36621000D01*
X247401000Y-36621000D02*
X245081000Y-36621000D01*
X242599000Y-36581000D02*
X240239000Y-36581000D01*
X247441000Y-36581000D02*
X245081000Y-36581000D01*
X242599000Y-36541000D02*
X240200000Y-36541000D01*
X247480000Y-36541000D02*
X245081000Y-36541000D01*
X242599000Y-36501000D02*
X240161000Y-36501000D01*
X247519000Y-36501000D02*
X245081000Y-36501000D01*
X242599000Y-36461000D02*
X240124000Y-36461000D01*
X247556000Y-36461000D02*
X245081000Y-36461000D01*
X242599000Y-36421000D02*
X240087000Y-36421000D01*
X247593000Y-36421000D02*
X245081000Y-36421000D01*
X242599000Y-36381000D02*
X240051000Y-36381000D01*
X247629000Y-36381000D02*
X245081000Y-36381000D01*
X242599000Y-36341000D02*
X240016000Y-36341000D01*
X247664000Y-36341000D02*
X245081000Y-36341000D01*
X242599000Y-36301000D02*
X239982000Y-36301000D01*
X247698000Y-36301000D02*
X245081000Y-36301000D01*
X242599000Y-36261000D02*
X239948000Y-36261000D01*
X247732000Y-36261000D02*
X245081000Y-36261000D01*
X242599000Y-36221000D02*
X239915000Y-36221000D01*
X247765000Y-36221000D02*
X245081000Y-36221000D01*
X242599000Y-36181000D02*
X239883000Y-36181000D01*
X247797000Y-36181000D02*
X245081000Y-36181000D01*
X242599000Y-36141000D02*
X239851000Y-36141000D01*
X247829000Y-36141000D02*
X245081000Y-36141000D01*
X242599000Y-36101000D02*
X239820000Y-36101000D01*
X247860000Y-36101000D02*
X245081000Y-36101000D01*
X242599000Y-36061000D02*
X239790000Y-36061000D01*
X247890000Y-36061000D02*
X245081000Y-36061000D01*
X242599000Y-36021000D02*
X239760000Y-36021000D01*
X247920000Y-36021000D02*
X245081000Y-36021000D01*
X242599000Y-35981000D02*
X239730000Y-35981000D01*
X247950000Y-35981000D02*
X245081000Y-35981000D01*
X242599000Y-35941000D02*
X239702000Y-35941000D01*
X247978000Y-35941000D02*
X245081000Y-35941000D01*
X242599000Y-35901000D02*
X239674000Y-35901000D01*
X248006000Y-35901000D02*
X245081000Y-35901000D01*
X242599000Y-35861000D02*
X239646000Y-35861000D01*
X248034000Y-35861000D02*
X245081000Y-35861000D01*
X242599000Y-35821000D02*
X239619000Y-35821000D01*
X248061000Y-35821000D02*
X245081000Y-35821000D01*
X242599000Y-35781000D02*
X239593000Y-35781000D01*
X248087000Y-35781000D02*
X245081000Y-35781000D01*
X242599000Y-35741000D02*
X239567000Y-35741000D01*
X248113000Y-35741000D02*
X245081000Y-35741000D01*
X242599000Y-35701000D02*
X239542000Y-35701000D01*
X248138000Y-35701000D02*
X245081000Y-35701000D01*
X242599000Y-35661000D02*
X239517000Y-35661000D01*
X248163000Y-35661000D02*
X245081000Y-35661000D01*
X242599000Y-35621000D02*
X239493000Y-35621000D01*
X248187000Y-35621000D02*
X245081000Y-35621000D01*
X242599000Y-35581000D02*
X239469000Y-35581000D01*
X248211000Y-35581000D02*
X245081000Y-35581000D01*
X242599000Y-35541000D02*
X239445000Y-35541000D01*
X248235000Y-35541000D02*
X245081000Y-35541000D01*
X242599000Y-35501000D02*
X239423000Y-35501000D01*
X248257000Y-35501000D02*
X245081000Y-35501000D01*
X242599000Y-35461000D02*
X239400000Y-35461000D01*
X248280000Y-35461000D02*
X245081000Y-35461000D01*
X242599000Y-35421000D02*
X239378000Y-35421000D01*
X248302000Y-35421000D02*
X245081000Y-35421000D01*
X242599000Y-35381000D02*
X239357000Y-35381000D01*
X248323000Y-35381000D02*
X245081000Y-35381000D01*
X242599000Y-35341000D02*
X239336000Y-35341000D01*
X248344000Y-35341000D02*
X245081000Y-35341000D01*
X242599000Y-35301000D02*
X239315000Y-35301000D01*
X248365000Y-35301000D02*
X245081000Y-35301000D01*
X242599000Y-35261000D02*
X239295000Y-35261000D01*
X248385000Y-35261000D02*
X245081000Y-35261000D01*
X242599000Y-35221000D02*
X239276000Y-35221000D01*
X248404000Y-35221000D02*
X245081000Y-35221000D01*
X242599000Y-35181000D02*
X239256000Y-35181000D01*
X248424000Y-35181000D02*
X245081000Y-35181000D01*
X242599000Y-35141000D02*
X239237000Y-35141000D01*
X248443000Y-35141000D02*
X245081000Y-35141000D01*
X242599000Y-35101000D02*
X239219000Y-35101000D01*
X248461000Y-35101000D02*
X245081000Y-35101000D01*
X242599000Y-35061000D02*
X239201000Y-35061000D01*
X248479000Y-35061000D02*
X245081000Y-35061000D01*
X242599000Y-35021000D02*
X239183000Y-35021000D01*
X248497000Y-35021000D02*
X245081000Y-35021000D01*
X242599000Y-34981000D02*
X239166000Y-34981000D01*
X248514000Y-34981000D02*
X245081000Y-34981000D01*
X242599000Y-34941000D02*
X239150000Y-34941000D01*
X248530000Y-34941000D02*
X245081000Y-34941000D01*
X242599000Y-34901000D02*
X239133000Y-34901000D01*
X248547000Y-34901000D02*
X245081000Y-34901000D01*
X242599000Y-34861000D02*
X239117000Y-34861000D01*
X248563000Y-34861000D02*
X245081000Y-34861000D01*
X242599000Y-34821000D02*
X239102000Y-34821000D01*
X248578000Y-34821000D02*
X245081000Y-34821000D01*
X242599000Y-34781000D02*
X239086000Y-34781000D01*
X248594000Y-34781000D02*
X245081000Y-34781000D01*
X242599000Y-34741000D02*
X239072000Y-34741000D01*
X248608000Y-34741000D02*
X245081000Y-34741000D01*
X242599000Y-34701000D02*
X239057000Y-34701000D01*
X248623000Y-34701000D02*
X245081000Y-34701000D01*
X242599000Y-34661000D02*
X239043000Y-34661000D01*
X248637000Y-34661000D02*
X245081000Y-34661000D01*
X242599000Y-34621000D02*
X239029000Y-34621000D01*
X248651000Y-34621000D02*
X245081000Y-34621000D01*
X242599000Y-34581000D02*
X239016000Y-34581000D01*
X248664000Y-34581000D02*
X245081000Y-34581000D01*
X242599000Y-34541000D02*
X239003000Y-34541000D01*
X248677000Y-34541000D02*
X245081000Y-34541000D01*
X242599000Y-34501000D02*
X238990000Y-34501000D01*
X248690000Y-34501000D02*
X245081000Y-34501000D01*
X242599000Y-34461000D02*
X238978000Y-34461000D01*
X248702000Y-34461000D02*
X245081000Y-34461000D01*
X242599000Y-34421000D02*
X238966000Y-34421000D01*
X248714000Y-34421000D02*
X245081000Y-34421000D01*
X242599000Y-34381000D02*
X238955000Y-34381000D01*
X248725000Y-34381000D02*
X245081000Y-34381000D01*
X242599000Y-34341000D02*
X238943000Y-34341000D01*
X248737000Y-34341000D02*
X245081000Y-34341000D01*
X242599000Y-34301000D02*
X238933000Y-34301000D01*
X248747000Y-34301000D02*
X245081000Y-34301000D01*
X242599000Y-34261000D02*
X238922000Y-34261000D01*
X248758000Y-34261000D02*
X245081000Y-34261000D01*
X248768000Y-34221000D02*
X238912000Y-34221000D01*
X248778000Y-34181000D02*
X238902000Y-34181000D01*
X248787000Y-34141000D02*
X238893000Y-34141000D01*
X248796000Y-34101000D02*
X238884000Y-34101000D01*
X248805000Y-34061000D02*
X238875000Y-34061000D01*
X248814000Y-34021000D02*
X238866000Y-34021000D01*
X248822000Y-33981000D02*
X238858000Y-33981000D01*
X248830000Y-33941000D02*
X238850000Y-33941000D01*
X248837000Y-33901000D02*
X238843000Y-33901000D01*
X248844000Y-33861000D02*
X238836000Y-33861000D01*
X248851000Y-33821000D02*
X238829000Y-33821000D01*
X248858000Y-33781000D02*
X238822000Y-33781000D01*
X248864000Y-33741000D02*
X238816000Y-33741000D01*
X248870000Y-33701000D02*
X238810000Y-33701000D01*
X248875000Y-33660000D02*
X238805000Y-33660000D01*
X248880000Y-33620000D02*
X238800000Y-33620000D01*
X248885000Y-33580000D02*
X238795000Y-33580000D01*
X248890000Y-33540000D02*
X238790000Y-33540000D01*
X248894000Y-33500000D02*
X238786000Y-33500000D01*
X248898000Y-33460000D02*
X238782000Y-33460000D01*
X248902000Y-33420000D02*
X238778000Y-33420000D01*
X248905000Y-33380000D02*
X238775000Y-33380000D01*
X248908000Y-33340000D02*
X238772000Y-33340000D01*
X248910000Y-33300000D02*
X238770000Y-33300000D01*
X248913000Y-33260000D02*
X238767000Y-33260000D01*
X248915000Y-33220000D02*
X238765000Y-33220000D01*
X248917000Y-33180000D02*
X238763000Y-33180000D01*
X248918000Y-33140000D02*
X238762000Y-33140000D01*
X248919000Y-33100000D02*
X238761000Y-33100000D01*
X248920000Y-33060000D02*
X238760000Y-33060000D01*
X248920000Y-33020000D02*
X238760000Y-33020000D01*
X248920000Y-32980000D02*
X238760000Y-32980000D01*
X248960000Y-32980000D02*
G75*
G03X248960000Y-32980000I-5120000J0D01*
G01*
X59150000Y-85050000D02*
X59150000Y-95290000D01*
X54509000Y-85050000D02*
X54509000Y-95290000D01*
X59150000Y-85050000D02*
X54509000Y-85050000D01*
X59150000Y-95290000D02*
X54509000Y-95290000D01*
X57640000Y-85050000D02*
X57640000Y-95290000D01*
X59150000Y-88320000D02*
X57640000Y-88320000D01*
X59150000Y-92021000D02*
X57640000Y-92021000D01*
X835000Y-88960354D02*
X-165000Y-88960354D01*
X335000Y-88460354D02*
X335000Y-89460354D01*
X-1941000Y-99021000D02*
X-3139000Y-99021000D01*
X-1678000Y-98981000D02*
X-3402000Y-98981000D01*
X-1478000Y-98941000D02*
X-3602000Y-98941000D01*
X-1310000Y-98901000D02*
X-3770000Y-98901000D01*
X-1162000Y-98861000D02*
X-3918000Y-98861000D01*
X-1030000Y-98821000D02*
X-4050000Y-98821000D01*
X-910000Y-98781000D02*
X-4170000Y-98781000D01*
X-798000Y-98741000D02*
X-4282000Y-98741000D01*
X-694000Y-98701000D02*
X-4386000Y-98701000D01*
X-596000Y-98661000D02*
X-4484000Y-98661000D01*
X-503000Y-98621000D02*
X-4577000Y-98621000D01*
X-415000Y-98581000D02*
X-4665000Y-98581000D01*
X-331000Y-98541000D02*
X-4749000Y-98541000D01*
X-251000Y-98501000D02*
X-4829000Y-98501000D01*
X-175000Y-98461000D02*
X-4905000Y-98461000D01*
X-101000Y-98421000D02*
X-4979000Y-98421000D01*
X-30000Y-98381000D02*
X-5050000Y-98381000D01*
X39000Y-98341000D02*
X-5119000Y-98341000D01*
X105000Y-98301000D02*
X-5185000Y-98301000D01*
X169000Y-98261000D02*
X-5249000Y-98261000D01*
X230000Y-98221000D02*
X-5310000Y-98221000D01*
X290000Y-98181000D02*
X-5370000Y-98181000D01*
X349000Y-98141000D02*
X-5429000Y-98141000D01*
X405000Y-98101000D02*
X-5485000Y-98101000D01*
X460000Y-98061000D02*
X-5540000Y-98061000D01*
X514000Y-98021000D02*
X-5594000Y-98021000D01*
X566000Y-97981000D02*
X-5646000Y-97981000D01*
X616000Y-97941000D02*
X-5696000Y-97941000D01*
X666000Y-97901000D02*
X-5746000Y-97901000D01*
X714000Y-97861000D02*
X-5794000Y-97861000D01*
X761000Y-97821000D02*
X-5841000Y-97821000D01*
X807000Y-97781000D02*
X-5887000Y-97781000D01*
X852000Y-97741000D02*
X-5932000Y-97741000D01*
X896000Y-97701000D02*
X-5976000Y-97701000D01*
X-3781000Y-97661000D02*
X-6018000Y-97661000D01*
X938000Y-97661000D02*
X-1299000Y-97661000D01*
X-3781000Y-97621000D02*
X-6060000Y-97621000D01*
X980000Y-97621000D02*
X-1299000Y-97621000D01*
X-3781000Y-97581000D02*
X-6101000Y-97581000D01*
X1021000Y-97581000D02*
X-1299000Y-97581000D01*
X-3781000Y-97541000D02*
X-6141000Y-97541000D01*
X1061000Y-97541000D02*
X-1299000Y-97541000D01*
X-3781000Y-97501000D02*
X-6180000Y-97501000D01*
X1100000Y-97501000D02*
X-1299000Y-97501000D01*
X-3781000Y-97461000D02*
X-6219000Y-97461000D01*
X1139000Y-97461000D02*
X-1299000Y-97461000D01*
X-3781000Y-97421000D02*
X-6256000Y-97421000D01*
X1176000Y-97421000D02*
X-1299000Y-97421000D01*
X-3781000Y-97381000D02*
X-6293000Y-97381000D01*
X1213000Y-97381000D02*
X-1299000Y-97381000D01*
X-3781000Y-97341000D02*
X-6329000Y-97341000D01*
X1249000Y-97341000D02*
X-1299000Y-97341000D01*
X-3781000Y-97301000D02*
X-6364000Y-97301000D01*
X1284000Y-97301000D02*
X-1299000Y-97301000D01*
X-3781000Y-97261000D02*
X-6398000Y-97261000D01*
X1318000Y-97261000D02*
X-1299000Y-97261000D01*
X-3781000Y-97221000D02*
X-6432000Y-97221000D01*
X1352000Y-97221000D02*
X-1299000Y-97221000D01*
X-3781000Y-97181000D02*
X-6465000Y-97181000D01*
X1385000Y-97181000D02*
X-1299000Y-97181000D01*
X-3781000Y-97141000D02*
X-6497000Y-97141000D01*
X1417000Y-97141000D02*
X-1299000Y-97141000D01*
X-3781000Y-97101000D02*
X-6529000Y-97101000D01*
X1449000Y-97101000D02*
X-1299000Y-97101000D01*
X-3781000Y-97061000D02*
X-6560000Y-97061000D01*
X1480000Y-97061000D02*
X-1299000Y-97061000D01*
X-3781000Y-97021000D02*
X-6590000Y-97021000D01*
X1510000Y-97021000D02*
X-1299000Y-97021000D01*
X-3781000Y-96981000D02*
X-6620000Y-96981000D01*
X1540000Y-96981000D02*
X-1299000Y-96981000D01*
X-3781000Y-96941000D02*
X-6650000Y-96941000D01*
X1570000Y-96941000D02*
X-1299000Y-96941000D01*
X-3781000Y-96901000D02*
X-6678000Y-96901000D01*
X1598000Y-96901000D02*
X-1299000Y-96901000D01*
X-3781000Y-96861000D02*
X-6706000Y-96861000D01*
X1626000Y-96861000D02*
X-1299000Y-96861000D01*
X-3781000Y-96821000D02*
X-6734000Y-96821000D01*
X1654000Y-96821000D02*
X-1299000Y-96821000D01*
X-3781000Y-96781000D02*
X-6761000Y-96781000D01*
X1681000Y-96781000D02*
X-1299000Y-96781000D01*
X-3781000Y-96741000D02*
X-6787000Y-96741000D01*
X1707000Y-96741000D02*
X-1299000Y-96741000D01*
X-3781000Y-96701000D02*
X-6813000Y-96701000D01*
X1733000Y-96701000D02*
X-1299000Y-96701000D01*
X-3781000Y-96661000D02*
X-6838000Y-96661000D01*
X1758000Y-96661000D02*
X-1299000Y-96661000D01*
X-3781000Y-96621000D02*
X-6863000Y-96621000D01*
X1783000Y-96621000D02*
X-1299000Y-96621000D01*
X-3781000Y-96581000D02*
X-6887000Y-96581000D01*
X1807000Y-96581000D02*
X-1299000Y-96581000D01*
X-3781000Y-96541000D02*
X-6911000Y-96541000D01*
X1831000Y-96541000D02*
X-1299000Y-96541000D01*
X-3781000Y-96501000D02*
X-6935000Y-96501000D01*
X1855000Y-96501000D02*
X-1299000Y-96501000D01*
X-3781000Y-96461000D02*
X-6957000Y-96461000D01*
X1877000Y-96461000D02*
X-1299000Y-96461000D01*
X-3781000Y-96421000D02*
X-6980000Y-96421000D01*
X1900000Y-96421000D02*
X-1299000Y-96421000D01*
X-3781000Y-96381000D02*
X-7002000Y-96381000D01*
X1922000Y-96381000D02*
X-1299000Y-96381000D01*
X-3781000Y-96341000D02*
X-7023000Y-96341000D01*
X1943000Y-96341000D02*
X-1299000Y-96341000D01*
X-3781000Y-96301000D02*
X-7044000Y-96301000D01*
X1964000Y-96301000D02*
X-1299000Y-96301000D01*
X-3781000Y-96261000D02*
X-7065000Y-96261000D01*
X1985000Y-96261000D02*
X-1299000Y-96261000D01*
X-3781000Y-96221000D02*
X-7085000Y-96221000D01*
X2005000Y-96221000D02*
X-1299000Y-96221000D01*
X-3781000Y-96181000D02*
X-7104000Y-96181000D01*
X2024000Y-96181000D02*
X-1299000Y-96181000D01*
X-3781000Y-96141000D02*
X-7124000Y-96141000D01*
X2044000Y-96141000D02*
X-1299000Y-96141000D01*
X-3781000Y-96101000D02*
X-7143000Y-96101000D01*
X2063000Y-96101000D02*
X-1299000Y-96101000D01*
X-3781000Y-96061000D02*
X-7161000Y-96061000D01*
X2081000Y-96061000D02*
X-1299000Y-96061000D01*
X-3781000Y-96021000D02*
X-7179000Y-96021000D01*
X2099000Y-96021000D02*
X-1299000Y-96021000D01*
X-3781000Y-95981000D02*
X-7197000Y-95981000D01*
X2117000Y-95981000D02*
X-1299000Y-95981000D01*
X-3781000Y-95941000D02*
X-7214000Y-95941000D01*
X2134000Y-95941000D02*
X-1299000Y-95941000D01*
X-3781000Y-95901000D02*
X-7230000Y-95901000D01*
X2150000Y-95901000D02*
X-1299000Y-95901000D01*
X-3781000Y-95861000D02*
X-7247000Y-95861000D01*
X2167000Y-95861000D02*
X-1299000Y-95861000D01*
X-3781000Y-95821000D02*
X-7263000Y-95821000D01*
X2183000Y-95821000D02*
X-1299000Y-95821000D01*
X-3781000Y-95781000D02*
X-7278000Y-95781000D01*
X2198000Y-95781000D02*
X-1299000Y-95781000D01*
X-3781000Y-95741000D02*
X-7294000Y-95741000D01*
X2214000Y-95741000D02*
X-1299000Y-95741000D01*
X-3781000Y-95701000D02*
X-7308000Y-95701000D01*
X2228000Y-95701000D02*
X-1299000Y-95701000D01*
X-3781000Y-95661000D02*
X-7323000Y-95661000D01*
X2243000Y-95661000D02*
X-1299000Y-95661000D01*
X-3781000Y-95621000D02*
X-7337000Y-95621000D01*
X2257000Y-95621000D02*
X-1299000Y-95621000D01*
X-3781000Y-95581000D02*
X-7351000Y-95581000D01*
X2271000Y-95581000D02*
X-1299000Y-95581000D01*
X-3781000Y-95541000D02*
X-7364000Y-95541000D01*
X2284000Y-95541000D02*
X-1299000Y-95541000D01*
X-3781000Y-95501000D02*
X-7377000Y-95501000D01*
X2297000Y-95501000D02*
X-1299000Y-95501000D01*
X-3781000Y-95461000D02*
X-7390000Y-95461000D01*
X2310000Y-95461000D02*
X-1299000Y-95461000D01*
X-3781000Y-95421000D02*
X-7402000Y-95421000D01*
X2322000Y-95421000D02*
X-1299000Y-95421000D01*
X-3781000Y-95381000D02*
X-7414000Y-95381000D01*
X2334000Y-95381000D02*
X-1299000Y-95381000D01*
X-3781000Y-95341000D02*
X-7425000Y-95341000D01*
X2345000Y-95341000D02*
X-1299000Y-95341000D01*
X-3781000Y-95301000D02*
X-7437000Y-95301000D01*
X2357000Y-95301000D02*
X-1299000Y-95301000D01*
X-3781000Y-95261000D02*
X-7447000Y-95261000D01*
X2367000Y-95261000D02*
X-1299000Y-95261000D01*
X-3781000Y-95221000D02*
X-7458000Y-95221000D01*
X2378000Y-95221000D02*
X-1299000Y-95221000D01*
X2388000Y-95181000D02*
X-7468000Y-95181000D01*
X2398000Y-95141000D02*
X-7478000Y-95141000D01*
X2407000Y-95101000D02*
X-7487000Y-95101000D01*
X2416000Y-95061000D02*
X-7496000Y-95061000D01*
X2425000Y-95021000D02*
X-7505000Y-95021000D01*
X2434000Y-94981000D02*
X-7514000Y-94981000D01*
X2442000Y-94941000D02*
X-7522000Y-94941000D01*
X2450000Y-94901000D02*
X-7530000Y-94901000D01*
X2457000Y-94861000D02*
X-7537000Y-94861000D01*
X2464000Y-94821000D02*
X-7544000Y-94821000D01*
X2471000Y-94781000D02*
X-7551000Y-94781000D01*
X2478000Y-94741000D02*
X-7558000Y-94741000D01*
X2484000Y-94701000D02*
X-7564000Y-94701000D01*
X2490000Y-94661000D02*
X-7570000Y-94661000D01*
X2495000Y-94620000D02*
X-7575000Y-94620000D01*
X2500000Y-94580000D02*
X-7580000Y-94580000D01*
X2505000Y-94540000D02*
X-7585000Y-94540000D01*
X2510000Y-94500000D02*
X-7590000Y-94500000D01*
X2514000Y-94460000D02*
X-7594000Y-94460000D01*
X2518000Y-94420000D02*
X-7598000Y-94420000D01*
X2522000Y-94380000D02*
X-7602000Y-94380000D01*
X2525000Y-94340000D02*
X-7605000Y-94340000D01*
X2528000Y-94300000D02*
X-7608000Y-94300000D01*
X2530000Y-94260000D02*
X-7610000Y-94260000D01*
X2533000Y-94220000D02*
X-7613000Y-94220000D01*
X2535000Y-94180000D02*
X-7615000Y-94180000D01*
X2537000Y-94140000D02*
X-7617000Y-94140000D01*
X2538000Y-94100000D02*
X-7618000Y-94100000D01*
X2539000Y-94060000D02*
X-7619000Y-94060000D01*
X2540000Y-94020000D02*
X-7620000Y-94020000D01*
X2540000Y-93980000D02*
X-7620000Y-93980000D01*
X2540000Y-93940000D02*
X-7620000Y-93940000D01*
X2580000Y-93940000D02*
G75*
G03X2580000Y-93940000I-5120000J0D01*
G01*
X15280000Y-114260000D02*
G75*
G03X15280000Y-114260000I-5120000J0D01*
G01*
X15240000Y-114260000D02*
X5080000Y-114260000D01*
X15240000Y-114300000D02*
X5080000Y-114300000D01*
X15240000Y-114340000D02*
X5080000Y-114340000D01*
X15239000Y-114380000D02*
X5081000Y-114380000D01*
X15238000Y-114420000D02*
X5082000Y-114420000D01*
X15237000Y-114460000D02*
X5083000Y-114460000D01*
X15235000Y-114500000D02*
X5085000Y-114500000D01*
X15233000Y-114540000D02*
X5087000Y-114540000D01*
X15230000Y-114580000D02*
X5090000Y-114580000D01*
X15228000Y-114620000D02*
X5092000Y-114620000D01*
X15225000Y-114660000D02*
X5095000Y-114660000D01*
X15222000Y-114700000D02*
X5098000Y-114700000D01*
X15218000Y-114740000D02*
X5102000Y-114740000D01*
X15214000Y-114780000D02*
X5106000Y-114780000D01*
X15210000Y-114820000D02*
X5110000Y-114820000D01*
X15205000Y-114860000D02*
X5115000Y-114860000D01*
X15200000Y-114900000D02*
X5120000Y-114900000D01*
X15195000Y-114940000D02*
X5125000Y-114940000D01*
X15190000Y-114981000D02*
X5130000Y-114981000D01*
X15184000Y-115021000D02*
X5136000Y-115021000D01*
X15178000Y-115061000D02*
X5142000Y-115061000D01*
X15171000Y-115101000D02*
X5149000Y-115101000D01*
X15164000Y-115141000D02*
X5156000Y-115141000D01*
X15157000Y-115181000D02*
X5163000Y-115181000D01*
X15150000Y-115221000D02*
X5170000Y-115221000D01*
X15142000Y-115261000D02*
X5178000Y-115261000D01*
X15134000Y-115301000D02*
X5186000Y-115301000D01*
X15125000Y-115341000D02*
X5195000Y-115341000D01*
X15116000Y-115381000D02*
X5204000Y-115381000D01*
X15107000Y-115421000D02*
X5213000Y-115421000D01*
X15098000Y-115461000D02*
X5222000Y-115461000D01*
X15088000Y-115501000D02*
X5232000Y-115501000D01*
X15078000Y-115541000D02*
X11401000Y-115541000D01*
X8919000Y-115541000D02*
X5242000Y-115541000D01*
X15067000Y-115581000D02*
X11401000Y-115581000D01*
X8919000Y-115581000D02*
X5253000Y-115581000D01*
X15057000Y-115621000D02*
X11401000Y-115621000D01*
X8919000Y-115621000D02*
X5263000Y-115621000D01*
X15045000Y-115661000D02*
X11401000Y-115661000D01*
X8919000Y-115661000D02*
X5275000Y-115661000D01*
X15034000Y-115701000D02*
X11401000Y-115701000D01*
X8919000Y-115701000D02*
X5286000Y-115701000D01*
X15022000Y-115741000D02*
X11401000Y-115741000D01*
X8919000Y-115741000D02*
X5298000Y-115741000D01*
X15010000Y-115781000D02*
X11401000Y-115781000D01*
X8919000Y-115781000D02*
X5310000Y-115781000D01*
X14997000Y-115821000D02*
X11401000Y-115821000D01*
X8919000Y-115821000D02*
X5323000Y-115821000D01*
X14984000Y-115861000D02*
X11401000Y-115861000D01*
X8919000Y-115861000D02*
X5336000Y-115861000D01*
X14971000Y-115901000D02*
X11401000Y-115901000D01*
X8919000Y-115901000D02*
X5349000Y-115901000D01*
X14957000Y-115941000D02*
X11401000Y-115941000D01*
X8919000Y-115941000D02*
X5363000Y-115941000D01*
X14943000Y-115981000D02*
X11401000Y-115981000D01*
X8919000Y-115981000D02*
X5377000Y-115981000D01*
X14928000Y-116021000D02*
X11401000Y-116021000D01*
X8919000Y-116021000D02*
X5392000Y-116021000D01*
X14914000Y-116061000D02*
X11401000Y-116061000D01*
X8919000Y-116061000D02*
X5406000Y-116061000D01*
X14898000Y-116101000D02*
X11401000Y-116101000D01*
X8919000Y-116101000D02*
X5422000Y-116101000D01*
X14883000Y-116141000D02*
X11401000Y-116141000D01*
X8919000Y-116141000D02*
X5437000Y-116141000D01*
X14867000Y-116181000D02*
X11401000Y-116181000D01*
X8919000Y-116181000D02*
X5453000Y-116181000D01*
X14850000Y-116221000D02*
X11401000Y-116221000D01*
X8919000Y-116221000D02*
X5470000Y-116221000D01*
X14834000Y-116261000D02*
X11401000Y-116261000D01*
X8919000Y-116261000D02*
X5486000Y-116261000D01*
X14817000Y-116301000D02*
X11401000Y-116301000D01*
X8919000Y-116301000D02*
X5503000Y-116301000D01*
X14799000Y-116341000D02*
X11401000Y-116341000D01*
X8919000Y-116341000D02*
X5521000Y-116341000D01*
X14781000Y-116381000D02*
X11401000Y-116381000D01*
X8919000Y-116381000D02*
X5539000Y-116381000D01*
X14763000Y-116421000D02*
X11401000Y-116421000D01*
X8919000Y-116421000D02*
X5557000Y-116421000D01*
X14744000Y-116461000D02*
X11401000Y-116461000D01*
X8919000Y-116461000D02*
X5576000Y-116461000D01*
X14724000Y-116501000D02*
X11401000Y-116501000D01*
X8919000Y-116501000D02*
X5596000Y-116501000D01*
X14705000Y-116541000D02*
X11401000Y-116541000D01*
X8919000Y-116541000D02*
X5615000Y-116541000D01*
X14685000Y-116581000D02*
X11401000Y-116581000D01*
X8919000Y-116581000D02*
X5635000Y-116581000D01*
X14664000Y-116621000D02*
X11401000Y-116621000D01*
X8919000Y-116621000D02*
X5656000Y-116621000D01*
X14643000Y-116661000D02*
X11401000Y-116661000D01*
X8919000Y-116661000D02*
X5677000Y-116661000D01*
X14622000Y-116701000D02*
X11401000Y-116701000D01*
X8919000Y-116701000D02*
X5698000Y-116701000D01*
X14600000Y-116741000D02*
X11401000Y-116741000D01*
X8919000Y-116741000D02*
X5720000Y-116741000D01*
X14577000Y-116781000D02*
X11401000Y-116781000D01*
X8919000Y-116781000D02*
X5743000Y-116781000D01*
X14555000Y-116821000D02*
X11401000Y-116821000D01*
X8919000Y-116821000D02*
X5765000Y-116821000D01*
X14531000Y-116861000D02*
X11401000Y-116861000D01*
X8919000Y-116861000D02*
X5789000Y-116861000D01*
X14507000Y-116901000D02*
X11401000Y-116901000D01*
X8919000Y-116901000D02*
X5813000Y-116901000D01*
X14483000Y-116941000D02*
X11401000Y-116941000D01*
X8919000Y-116941000D02*
X5837000Y-116941000D01*
X14458000Y-116981000D02*
X11401000Y-116981000D01*
X8919000Y-116981000D02*
X5862000Y-116981000D01*
X14433000Y-117021000D02*
X11401000Y-117021000D01*
X8919000Y-117021000D02*
X5887000Y-117021000D01*
X14407000Y-117061000D02*
X11401000Y-117061000D01*
X8919000Y-117061000D02*
X5913000Y-117061000D01*
X14381000Y-117101000D02*
X11401000Y-117101000D01*
X8919000Y-117101000D02*
X5939000Y-117101000D01*
X14354000Y-117141000D02*
X11401000Y-117141000D01*
X8919000Y-117141000D02*
X5966000Y-117141000D01*
X14326000Y-117181000D02*
X11401000Y-117181000D01*
X8919000Y-117181000D02*
X5994000Y-117181000D01*
X14298000Y-117221000D02*
X11401000Y-117221000D01*
X8919000Y-117221000D02*
X6022000Y-117221000D01*
X14270000Y-117261000D02*
X11401000Y-117261000D01*
X8919000Y-117261000D02*
X6050000Y-117261000D01*
X14240000Y-117301000D02*
X11401000Y-117301000D01*
X8919000Y-117301000D02*
X6080000Y-117301000D01*
X14210000Y-117341000D02*
X11401000Y-117341000D01*
X8919000Y-117341000D02*
X6110000Y-117341000D01*
X14180000Y-117381000D02*
X11401000Y-117381000D01*
X8919000Y-117381000D02*
X6140000Y-117381000D01*
X14149000Y-117421000D02*
X11401000Y-117421000D01*
X8919000Y-117421000D02*
X6171000Y-117421000D01*
X14117000Y-117461000D02*
X11401000Y-117461000D01*
X8919000Y-117461000D02*
X6203000Y-117461000D01*
X14085000Y-117501000D02*
X11401000Y-117501000D01*
X8919000Y-117501000D02*
X6235000Y-117501000D01*
X14052000Y-117541000D02*
X11401000Y-117541000D01*
X8919000Y-117541000D02*
X6268000Y-117541000D01*
X14018000Y-117581000D02*
X11401000Y-117581000D01*
X8919000Y-117581000D02*
X6302000Y-117581000D01*
X13984000Y-117621000D02*
X11401000Y-117621000D01*
X8919000Y-117621000D02*
X6336000Y-117621000D01*
X13949000Y-117661000D02*
X11401000Y-117661000D01*
X8919000Y-117661000D02*
X6371000Y-117661000D01*
X13913000Y-117701000D02*
X11401000Y-117701000D01*
X8919000Y-117701000D02*
X6407000Y-117701000D01*
X13876000Y-117741000D02*
X11401000Y-117741000D01*
X8919000Y-117741000D02*
X6444000Y-117741000D01*
X13839000Y-117781000D02*
X11401000Y-117781000D01*
X8919000Y-117781000D02*
X6481000Y-117781000D01*
X13800000Y-117821000D02*
X11401000Y-117821000D01*
X8919000Y-117821000D02*
X6520000Y-117821000D01*
X13761000Y-117861000D02*
X11401000Y-117861000D01*
X8919000Y-117861000D02*
X6559000Y-117861000D01*
X13721000Y-117901000D02*
X11401000Y-117901000D01*
X8919000Y-117901000D02*
X6599000Y-117901000D01*
X13680000Y-117941000D02*
X11401000Y-117941000D01*
X8919000Y-117941000D02*
X6640000Y-117941000D01*
X13638000Y-117981000D02*
X11401000Y-117981000D01*
X8919000Y-117981000D02*
X6682000Y-117981000D01*
X13596000Y-118021000D02*
X6724000Y-118021000D01*
X13552000Y-118061000D02*
X6768000Y-118061000D01*
X13507000Y-118101000D02*
X6813000Y-118101000D01*
X13461000Y-118141000D02*
X6859000Y-118141000D01*
X13414000Y-118181000D02*
X6906000Y-118181000D01*
X13366000Y-118221000D02*
X6954000Y-118221000D01*
X13316000Y-118261000D02*
X7004000Y-118261000D01*
X13266000Y-118301000D02*
X7054000Y-118301000D01*
X13214000Y-118341000D02*
X7106000Y-118341000D01*
X13160000Y-118381000D02*
X7160000Y-118381000D01*
X13105000Y-118421000D02*
X7215000Y-118421000D01*
X13049000Y-118461000D02*
X7271000Y-118461000D01*
X12990000Y-118501000D02*
X7330000Y-118501000D01*
X12930000Y-118541000D02*
X7390000Y-118541000D01*
X12869000Y-118581000D02*
X7451000Y-118581000D01*
X12805000Y-118621000D02*
X7515000Y-118621000D01*
X12739000Y-118661000D02*
X7581000Y-118661000D01*
X12670000Y-118701000D02*
X7650000Y-118701000D01*
X12599000Y-118741000D02*
X7721000Y-118741000D01*
X12525000Y-118781000D02*
X7795000Y-118781000D01*
X12449000Y-118821000D02*
X7871000Y-118821000D01*
X12369000Y-118861000D02*
X7951000Y-118861000D01*
X12285000Y-118901000D02*
X8035000Y-118901000D01*
X12197000Y-118941000D02*
X8123000Y-118941000D01*
X12104000Y-118981000D02*
X8216000Y-118981000D01*
X12006000Y-119021000D02*
X8314000Y-119021000D01*
X11902000Y-119061000D02*
X8418000Y-119061000D01*
X11790000Y-119101000D02*
X8530000Y-119101000D01*
X11670000Y-119141000D02*
X8650000Y-119141000D01*
X11538000Y-119181000D02*
X8782000Y-119181000D01*
X11390000Y-119221000D02*
X8930000Y-119221000D01*
X11222000Y-119261000D02*
X9098000Y-119261000D01*
X11022000Y-119301000D02*
X9298000Y-119301000D01*
X10759000Y-119341000D02*
X9561000Y-119341000D01*
X13035000Y-108780354D02*
X13035000Y-109780354D01*
X13535000Y-109280354D02*
X12535000Y-109280354D01*
X34370000Y-78740000D02*
G75*
G03X34370000Y-78740000I-5120000J0D01*
G01*
X29250000Y-83820000D02*
X29250000Y-73660000D01*
X29210000Y-83820000D02*
X29210000Y-73660000D01*
X29170000Y-83820000D02*
X29170000Y-73660000D01*
X29130000Y-83819000D02*
X29130000Y-73661000D01*
X29090000Y-83818000D02*
X29090000Y-73662000D01*
X29050000Y-83817000D02*
X29050000Y-73663000D01*
X29010000Y-83815000D02*
X29010000Y-73665000D01*
X28970000Y-83813000D02*
X28970000Y-73667000D01*
X28930000Y-83810000D02*
X28930000Y-73670000D01*
X28890000Y-83808000D02*
X28890000Y-73672000D01*
X28850000Y-83805000D02*
X28850000Y-73675000D01*
X28810000Y-83802000D02*
X28810000Y-73678000D01*
X28770000Y-83798000D02*
X28770000Y-73682000D01*
X28730000Y-83794000D02*
X28730000Y-73686000D01*
X28690000Y-83790000D02*
X28690000Y-73690000D01*
X28650000Y-83785000D02*
X28650000Y-73695000D01*
X28610000Y-83780000D02*
X28610000Y-73700000D01*
X28570000Y-83775000D02*
X28570000Y-73705000D01*
X28529000Y-83770000D02*
X28529000Y-73710000D01*
X28489000Y-83764000D02*
X28489000Y-73716000D01*
X28449000Y-83758000D02*
X28449000Y-73722000D01*
X28409000Y-83751000D02*
X28409000Y-73729000D01*
X28369000Y-83744000D02*
X28369000Y-73736000D01*
X28329000Y-83737000D02*
X28329000Y-73743000D01*
X28289000Y-83730000D02*
X28289000Y-73750000D01*
X28249000Y-83722000D02*
X28249000Y-73758000D01*
X28209000Y-83714000D02*
X28209000Y-73766000D01*
X28169000Y-83705000D02*
X28169000Y-73775000D01*
X28129000Y-83696000D02*
X28129000Y-73784000D01*
X28089000Y-83687000D02*
X28089000Y-73793000D01*
X28049000Y-83678000D02*
X28049000Y-73802000D01*
X28009000Y-83668000D02*
X28009000Y-73812000D01*
X27969000Y-83658000D02*
X27969000Y-79981000D01*
X27969000Y-77499000D02*
X27969000Y-73822000D01*
X27929000Y-83647000D02*
X27929000Y-79981000D01*
X27929000Y-77499000D02*
X27929000Y-73833000D01*
X27889000Y-83637000D02*
X27889000Y-79981000D01*
X27889000Y-77499000D02*
X27889000Y-73843000D01*
X27849000Y-83625000D02*
X27849000Y-79981000D01*
X27849000Y-77499000D02*
X27849000Y-73855000D01*
X27809000Y-83614000D02*
X27809000Y-79981000D01*
X27809000Y-77499000D02*
X27809000Y-73866000D01*
X27769000Y-83602000D02*
X27769000Y-79981000D01*
X27769000Y-77499000D02*
X27769000Y-73878000D01*
X27729000Y-83590000D02*
X27729000Y-79981000D01*
X27729000Y-77499000D02*
X27729000Y-73890000D01*
X27689000Y-83577000D02*
X27689000Y-79981000D01*
X27689000Y-77499000D02*
X27689000Y-73903000D01*
X27649000Y-83564000D02*
X27649000Y-79981000D01*
X27649000Y-77499000D02*
X27649000Y-73916000D01*
X27609000Y-83551000D02*
X27609000Y-79981000D01*
X27609000Y-77499000D02*
X27609000Y-73929000D01*
X27569000Y-83537000D02*
X27569000Y-79981000D01*
X27569000Y-77499000D02*
X27569000Y-73943000D01*
X27529000Y-83523000D02*
X27529000Y-79981000D01*
X27529000Y-77499000D02*
X27529000Y-73957000D01*
X27489000Y-83508000D02*
X27489000Y-79981000D01*
X27489000Y-77499000D02*
X27489000Y-73972000D01*
X27449000Y-83494000D02*
X27449000Y-79981000D01*
X27449000Y-77499000D02*
X27449000Y-73986000D01*
X27409000Y-83478000D02*
X27409000Y-79981000D01*
X27409000Y-77499000D02*
X27409000Y-74002000D01*
X27369000Y-83463000D02*
X27369000Y-79981000D01*
X27369000Y-77499000D02*
X27369000Y-74017000D01*
X27329000Y-83447000D02*
X27329000Y-79981000D01*
X27329000Y-77499000D02*
X27329000Y-74033000D01*
X27289000Y-83430000D02*
X27289000Y-79981000D01*
X27289000Y-77499000D02*
X27289000Y-74050000D01*
X27249000Y-83414000D02*
X27249000Y-79981000D01*
X27249000Y-77499000D02*
X27249000Y-74066000D01*
X27209000Y-83397000D02*
X27209000Y-79981000D01*
X27209000Y-77499000D02*
X27209000Y-74083000D01*
X27169000Y-83379000D02*
X27169000Y-79981000D01*
X27169000Y-77499000D02*
X27169000Y-74101000D01*
X27129000Y-83361000D02*
X27129000Y-79981000D01*
X27129000Y-77499000D02*
X27129000Y-74119000D01*
X27089000Y-83343000D02*
X27089000Y-79981000D01*
X27089000Y-77499000D02*
X27089000Y-74137000D01*
X27049000Y-83324000D02*
X27049000Y-79981000D01*
X27049000Y-77499000D02*
X27049000Y-74156000D01*
X27009000Y-83304000D02*
X27009000Y-79981000D01*
X27009000Y-77499000D02*
X27009000Y-74176000D01*
X26969000Y-83285000D02*
X26969000Y-79981000D01*
X26969000Y-77499000D02*
X26969000Y-74195000D01*
X26929000Y-83265000D02*
X26929000Y-79981000D01*
X26929000Y-77499000D02*
X26929000Y-74215000D01*
X26889000Y-83244000D02*
X26889000Y-79981000D01*
X26889000Y-77499000D02*
X26889000Y-74236000D01*
X26849000Y-83223000D02*
X26849000Y-79981000D01*
X26849000Y-77499000D02*
X26849000Y-74257000D01*
X26809000Y-83202000D02*
X26809000Y-79981000D01*
X26809000Y-77499000D02*
X26809000Y-74278000D01*
X26769000Y-83180000D02*
X26769000Y-79981000D01*
X26769000Y-77499000D02*
X26769000Y-74300000D01*
X26729000Y-83157000D02*
X26729000Y-79981000D01*
X26729000Y-77499000D02*
X26729000Y-74323000D01*
X26689000Y-83135000D02*
X26689000Y-79981000D01*
X26689000Y-77499000D02*
X26689000Y-74345000D01*
X26649000Y-83111000D02*
X26649000Y-79981000D01*
X26649000Y-77499000D02*
X26649000Y-74369000D01*
X26609000Y-83087000D02*
X26609000Y-79981000D01*
X26609000Y-77499000D02*
X26609000Y-74393000D01*
X26569000Y-83063000D02*
X26569000Y-79981000D01*
X26569000Y-77499000D02*
X26569000Y-74417000D01*
X26529000Y-83038000D02*
X26529000Y-79981000D01*
X26529000Y-77499000D02*
X26529000Y-74442000D01*
X26489000Y-83013000D02*
X26489000Y-79981000D01*
X26489000Y-77499000D02*
X26489000Y-74467000D01*
X26449000Y-82987000D02*
X26449000Y-79981000D01*
X26449000Y-77499000D02*
X26449000Y-74493000D01*
X26409000Y-82961000D02*
X26409000Y-79981000D01*
X26409000Y-77499000D02*
X26409000Y-74519000D01*
X26369000Y-82934000D02*
X26369000Y-79981000D01*
X26369000Y-77499000D02*
X26369000Y-74546000D01*
X26329000Y-82906000D02*
X26329000Y-79981000D01*
X26329000Y-77499000D02*
X26329000Y-74574000D01*
X26289000Y-82878000D02*
X26289000Y-79981000D01*
X26289000Y-77499000D02*
X26289000Y-74602000D01*
X26249000Y-82850000D02*
X26249000Y-79981000D01*
X26249000Y-77499000D02*
X26249000Y-74630000D01*
X26209000Y-82820000D02*
X26209000Y-79981000D01*
X26209000Y-77499000D02*
X26209000Y-74660000D01*
X26169000Y-82790000D02*
X26169000Y-79981000D01*
X26169000Y-77499000D02*
X26169000Y-74690000D01*
X26129000Y-82760000D02*
X26129000Y-79981000D01*
X26129000Y-77499000D02*
X26129000Y-74720000D01*
X26089000Y-82729000D02*
X26089000Y-79981000D01*
X26089000Y-77499000D02*
X26089000Y-74751000D01*
X26049000Y-82697000D02*
X26049000Y-79981000D01*
X26049000Y-77499000D02*
X26049000Y-74783000D01*
X26009000Y-82665000D02*
X26009000Y-79981000D01*
X26009000Y-77499000D02*
X26009000Y-74815000D01*
X25969000Y-82632000D02*
X25969000Y-79981000D01*
X25969000Y-77499000D02*
X25969000Y-74848000D01*
X25929000Y-82598000D02*
X25929000Y-79981000D01*
X25929000Y-77499000D02*
X25929000Y-74882000D01*
X25889000Y-82564000D02*
X25889000Y-79981000D01*
X25889000Y-77499000D02*
X25889000Y-74916000D01*
X25849000Y-82529000D02*
X25849000Y-79981000D01*
X25849000Y-77499000D02*
X25849000Y-74951000D01*
X25809000Y-82493000D02*
X25809000Y-79981000D01*
X25809000Y-77499000D02*
X25809000Y-74987000D01*
X25769000Y-82456000D02*
X25769000Y-79981000D01*
X25769000Y-77499000D02*
X25769000Y-75024000D01*
X25729000Y-82419000D02*
X25729000Y-79981000D01*
X25729000Y-77499000D02*
X25729000Y-75061000D01*
X25689000Y-82380000D02*
X25689000Y-79981000D01*
X25689000Y-77499000D02*
X25689000Y-75100000D01*
X25649000Y-82341000D02*
X25649000Y-79981000D01*
X25649000Y-77499000D02*
X25649000Y-75139000D01*
X25609000Y-82301000D02*
X25609000Y-79981000D01*
X25609000Y-77499000D02*
X25609000Y-75179000D01*
X25569000Y-82260000D02*
X25569000Y-79981000D01*
X25569000Y-77499000D02*
X25569000Y-75220000D01*
X25529000Y-82218000D02*
X25529000Y-79981000D01*
X25529000Y-77499000D02*
X25529000Y-75262000D01*
X25489000Y-82176000D02*
X25489000Y-75304000D01*
X25449000Y-82132000D02*
X25449000Y-75348000D01*
X25409000Y-82087000D02*
X25409000Y-75393000D01*
X25369000Y-82041000D02*
X25369000Y-75439000D01*
X25329000Y-81994000D02*
X25329000Y-75486000D01*
X25289000Y-81946000D02*
X25289000Y-75534000D01*
X25249000Y-81896000D02*
X25249000Y-75584000D01*
X25209000Y-81846000D02*
X25209000Y-75634000D01*
X25169000Y-81794000D02*
X25169000Y-75686000D01*
X25129000Y-81740000D02*
X25129000Y-75740000D01*
X25089000Y-81685000D02*
X25089000Y-75795000D01*
X25049000Y-81629000D02*
X25049000Y-75851000D01*
X25009000Y-81570000D02*
X25009000Y-75910000D01*
X24969000Y-81510000D02*
X24969000Y-75970000D01*
X24929000Y-81449000D02*
X24929000Y-76031000D01*
X24889000Y-81385000D02*
X24889000Y-76095000D01*
X24849000Y-81319000D02*
X24849000Y-76161000D01*
X24809000Y-81250000D02*
X24809000Y-76230000D01*
X24769000Y-81179000D02*
X24769000Y-76301000D01*
X24729000Y-81105000D02*
X24729000Y-76375000D01*
X24689000Y-81029000D02*
X24689000Y-76451000D01*
X24649000Y-80949000D02*
X24649000Y-76531000D01*
X24609000Y-80865000D02*
X24609000Y-76615000D01*
X24569000Y-80777000D02*
X24569000Y-76703000D01*
X24529000Y-80684000D02*
X24529000Y-76796000D01*
X24489000Y-80586000D02*
X24489000Y-76894000D01*
X24449000Y-80482000D02*
X24449000Y-76998000D01*
X24409000Y-80370000D02*
X24409000Y-77110000D01*
X24369000Y-80250000D02*
X24369000Y-77230000D01*
X24329000Y-80118000D02*
X24329000Y-77362000D01*
X24289000Y-79970000D02*
X24289000Y-77510000D01*
X24249000Y-79802000D02*
X24249000Y-77678000D01*
X24209000Y-79602000D02*
X24209000Y-77878000D01*
X24169000Y-79339000D02*
X24169000Y-78141000D01*
X34729646Y-81615000D02*
X33729646Y-81615000D01*
X34229646Y-82115000D02*
X34229646Y-81115000D01*
X65605000Y-72450354D02*
X64605000Y-72450354D01*
X65105000Y-71950354D02*
X65105000Y-72950354D01*
X62829000Y-82511000D02*
X61631000Y-82511000D01*
X63092000Y-82471000D02*
X61368000Y-82471000D01*
X63292000Y-82431000D02*
X61168000Y-82431000D01*
X63460000Y-82391000D02*
X61000000Y-82391000D01*
X63608000Y-82351000D02*
X60852000Y-82351000D01*
X63740000Y-82311000D02*
X60720000Y-82311000D01*
X63860000Y-82271000D02*
X60600000Y-82271000D01*
X63972000Y-82231000D02*
X60488000Y-82231000D01*
X64076000Y-82191000D02*
X60384000Y-82191000D01*
X64174000Y-82151000D02*
X60286000Y-82151000D01*
X64267000Y-82111000D02*
X60193000Y-82111000D01*
X64355000Y-82071000D02*
X60105000Y-82071000D01*
X64439000Y-82031000D02*
X60021000Y-82031000D01*
X64519000Y-81991000D02*
X59941000Y-81991000D01*
X64595000Y-81951000D02*
X59865000Y-81951000D01*
X64669000Y-81911000D02*
X59791000Y-81911000D01*
X64740000Y-81871000D02*
X59720000Y-81871000D01*
X64809000Y-81831000D02*
X59651000Y-81831000D01*
X64875000Y-81791000D02*
X59585000Y-81791000D01*
X64939000Y-81751000D02*
X59521000Y-81751000D01*
X65000000Y-81711000D02*
X59460000Y-81711000D01*
X65060000Y-81671000D02*
X59400000Y-81671000D01*
X65119000Y-81631000D02*
X59341000Y-81631000D01*
X65175000Y-81591000D02*
X59285000Y-81591000D01*
X65230000Y-81551000D02*
X59230000Y-81551000D01*
X65284000Y-81511000D02*
X59176000Y-81511000D01*
X65336000Y-81471000D02*
X59124000Y-81471000D01*
X65386000Y-81431000D02*
X59074000Y-81431000D01*
X65436000Y-81391000D02*
X59024000Y-81391000D01*
X65484000Y-81351000D02*
X58976000Y-81351000D01*
X65531000Y-81311000D02*
X58929000Y-81311000D01*
X65577000Y-81271000D02*
X58883000Y-81271000D01*
X65622000Y-81231000D02*
X58838000Y-81231000D01*
X65666000Y-81191000D02*
X58794000Y-81191000D01*
X60989000Y-81151000D02*
X58752000Y-81151000D01*
X65708000Y-81151000D02*
X63471000Y-81151000D01*
X60989000Y-81111000D02*
X58710000Y-81111000D01*
X65750000Y-81111000D02*
X63471000Y-81111000D01*
X60989000Y-81071000D02*
X58669000Y-81071000D01*
X65791000Y-81071000D02*
X63471000Y-81071000D01*
X60989000Y-81031000D02*
X58629000Y-81031000D01*
X65831000Y-81031000D02*
X63471000Y-81031000D01*
X60989000Y-80991000D02*
X58590000Y-80991000D01*
X65870000Y-80991000D02*
X63471000Y-80991000D01*
X60989000Y-80951000D02*
X58551000Y-80951000D01*
X65909000Y-80951000D02*
X63471000Y-80951000D01*
X60989000Y-80911000D02*
X58514000Y-80911000D01*
X65946000Y-80911000D02*
X63471000Y-80911000D01*
X60989000Y-80871000D02*
X58477000Y-80871000D01*
X65983000Y-80871000D02*
X63471000Y-80871000D01*
X60989000Y-80831000D02*
X58441000Y-80831000D01*
X66019000Y-80831000D02*
X63471000Y-80831000D01*
X60989000Y-80791000D02*
X58406000Y-80791000D01*
X66054000Y-80791000D02*
X63471000Y-80791000D01*
X60989000Y-80751000D02*
X58372000Y-80751000D01*
X66088000Y-80751000D02*
X63471000Y-80751000D01*
X60989000Y-80711000D02*
X58338000Y-80711000D01*
X66122000Y-80711000D02*
X63471000Y-80711000D01*
X60989000Y-80671000D02*
X58305000Y-80671000D01*
X66155000Y-80671000D02*
X63471000Y-80671000D01*
X60989000Y-80631000D02*
X58273000Y-80631000D01*
X66187000Y-80631000D02*
X63471000Y-80631000D01*
X60989000Y-80591000D02*
X58241000Y-80591000D01*
X66219000Y-80591000D02*
X63471000Y-80591000D01*
X60989000Y-80551000D02*
X58210000Y-80551000D01*
X66250000Y-80551000D02*
X63471000Y-80551000D01*
X60989000Y-80511000D02*
X58180000Y-80511000D01*
X66280000Y-80511000D02*
X63471000Y-80511000D01*
X60989000Y-80471000D02*
X58150000Y-80471000D01*
X66310000Y-80471000D02*
X63471000Y-80471000D01*
X60989000Y-80431000D02*
X58120000Y-80431000D01*
X66340000Y-80431000D02*
X63471000Y-80431000D01*
X60989000Y-80391000D02*
X58092000Y-80391000D01*
X66368000Y-80391000D02*
X63471000Y-80391000D01*
X60989000Y-80351000D02*
X58064000Y-80351000D01*
X66396000Y-80351000D02*
X63471000Y-80351000D01*
X60989000Y-80311000D02*
X58036000Y-80311000D01*
X66424000Y-80311000D02*
X63471000Y-80311000D01*
X60989000Y-80271000D02*
X58009000Y-80271000D01*
X66451000Y-80271000D02*
X63471000Y-80271000D01*
X60989000Y-80231000D02*
X57983000Y-80231000D01*
X66477000Y-80231000D02*
X63471000Y-80231000D01*
X60989000Y-80191000D02*
X57957000Y-80191000D01*
X66503000Y-80191000D02*
X63471000Y-80191000D01*
X60989000Y-80151000D02*
X57932000Y-80151000D01*
X66528000Y-80151000D02*
X63471000Y-80151000D01*
X60989000Y-80111000D02*
X57907000Y-80111000D01*
X66553000Y-80111000D02*
X63471000Y-80111000D01*
X60989000Y-80071000D02*
X57883000Y-80071000D01*
X66577000Y-80071000D02*
X63471000Y-80071000D01*
X60989000Y-80031000D02*
X57859000Y-80031000D01*
X66601000Y-80031000D02*
X63471000Y-80031000D01*
X60989000Y-79991000D02*
X57835000Y-79991000D01*
X66625000Y-79991000D02*
X63471000Y-79991000D01*
X60989000Y-79951000D02*
X57813000Y-79951000D01*
X66647000Y-79951000D02*
X63471000Y-79951000D01*
X60989000Y-79911000D02*
X57790000Y-79911000D01*
X66670000Y-79911000D02*
X63471000Y-79911000D01*
X60989000Y-79871000D02*
X57768000Y-79871000D01*
X66692000Y-79871000D02*
X63471000Y-79871000D01*
X60989000Y-79831000D02*
X57747000Y-79831000D01*
X66713000Y-79831000D02*
X63471000Y-79831000D01*
X60989000Y-79791000D02*
X57726000Y-79791000D01*
X66734000Y-79791000D02*
X63471000Y-79791000D01*
X60989000Y-79751000D02*
X57705000Y-79751000D01*
X66755000Y-79751000D02*
X63471000Y-79751000D01*
X60989000Y-79711000D02*
X57685000Y-79711000D01*
X66775000Y-79711000D02*
X63471000Y-79711000D01*
X60989000Y-79671000D02*
X57666000Y-79671000D01*
X66794000Y-79671000D02*
X63471000Y-79671000D01*
X60989000Y-79631000D02*
X57646000Y-79631000D01*
X66814000Y-79631000D02*
X63471000Y-79631000D01*
X60989000Y-79591000D02*
X57627000Y-79591000D01*
X66833000Y-79591000D02*
X63471000Y-79591000D01*
X60989000Y-79551000D02*
X57609000Y-79551000D01*
X66851000Y-79551000D02*
X63471000Y-79551000D01*
X60989000Y-79511000D02*
X57591000Y-79511000D01*
X66869000Y-79511000D02*
X63471000Y-79511000D01*
X60989000Y-79471000D02*
X57573000Y-79471000D01*
X66887000Y-79471000D02*
X63471000Y-79471000D01*
X60989000Y-79431000D02*
X57556000Y-79431000D01*
X66904000Y-79431000D02*
X63471000Y-79431000D01*
X60989000Y-79391000D02*
X57540000Y-79391000D01*
X66920000Y-79391000D02*
X63471000Y-79391000D01*
X60989000Y-79351000D02*
X57523000Y-79351000D01*
X66937000Y-79351000D02*
X63471000Y-79351000D01*
X60989000Y-79311000D02*
X57507000Y-79311000D01*
X66953000Y-79311000D02*
X63471000Y-79311000D01*
X60989000Y-79271000D02*
X57492000Y-79271000D01*
X66968000Y-79271000D02*
X63471000Y-79271000D01*
X60989000Y-79231000D02*
X57476000Y-79231000D01*
X66984000Y-79231000D02*
X63471000Y-79231000D01*
X60989000Y-79191000D02*
X57462000Y-79191000D01*
X66998000Y-79191000D02*
X63471000Y-79191000D01*
X60989000Y-79151000D02*
X57447000Y-79151000D01*
X67013000Y-79151000D02*
X63471000Y-79151000D01*
X60989000Y-79111000D02*
X57433000Y-79111000D01*
X67027000Y-79111000D02*
X63471000Y-79111000D01*
X60989000Y-79071000D02*
X57419000Y-79071000D01*
X67041000Y-79071000D02*
X63471000Y-79071000D01*
X60989000Y-79031000D02*
X57406000Y-79031000D01*
X67054000Y-79031000D02*
X63471000Y-79031000D01*
X60989000Y-78991000D02*
X57393000Y-78991000D01*
X67067000Y-78991000D02*
X63471000Y-78991000D01*
X60989000Y-78951000D02*
X57380000Y-78951000D01*
X67080000Y-78951000D02*
X63471000Y-78951000D01*
X60989000Y-78911000D02*
X57368000Y-78911000D01*
X67092000Y-78911000D02*
X63471000Y-78911000D01*
X60989000Y-78871000D02*
X57356000Y-78871000D01*
X67104000Y-78871000D02*
X63471000Y-78871000D01*
X60989000Y-78831000D02*
X57345000Y-78831000D01*
X67115000Y-78831000D02*
X63471000Y-78831000D01*
X60989000Y-78791000D02*
X57333000Y-78791000D01*
X67127000Y-78791000D02*
X63471000Y-78791000D01*
X60989000Y-78751000D02*
X57323000Y-78751000D01*
X67137000Y-78751000D02*
X63471000Y-78751000D01*
X60989000Y-78711000D02*
X57312000Y-78711000D01*
X67148000Y-78711000D02*
X63471000Y-78711000D01*
X67158000Y-78671000D02*
X57302000Y-78671000D01*
X67168000Y-78631000D02*
X57292000Y-78631000D01*
X67177000Y-78591000D02*
X57283000Y-78591000D01*
X67186000Y-78551000D02*
X57274000Y-78551000D01*
X67195000Y-78511000D02*
X57265000Y-78511000D01*
X67204000Y-78471000D02*
X57256000Y-78471000D01*
X67212000Y-78431000D02*
X57248000Y-78431000D01*
X67220000Y-78391000D02*
X57240000Y-78391000D01*
X67227000Y-78351000D02*
X57233000Y-78351000D01*
X67234000Y-78311000D02*
X57226000Y-78311000D01*
X67241000Y-78271000D02*
X57219000Y-78271000D01*
X67248000Y-78231000D02*
X57212000Y-78231000D01*
X67254000Y-78191000D02*
X57206000Y-78191000D01*
X67260000Y-78151000D02*
X57200000Y-78151000D01*
X67265000Y-78110000D02*
X57195000Y-78110000D01*
X67270000Y-78070000D02*
X57190000Y-78070000D01*
X67275000Y-78030000D02*
X57185000Y-78030000D01*
X67280000Y-77990000D02*
X57180000Y-77990000D01*
X67284000Y-77950000D02*
X57176000Y-77950000D01*
X67288000Y-77910000D02*
X57172000Y-77910000D01*
X67292000Y-77870000D02*
X57168000Y-77870000D01*
X67295000Y-77830000D02*
X57165000Y-77830000D01*
X67298000Y-77790000D02*
X57162000Y-77790000D01*
X67300000Y-77750000D02*
X57160000Y-77750000D01*
X67303000Y-77710000D02*
X57157000Y-77710000D01*
X67305000Y-77670000D02*
X57155000Y-77670000D01*
X67307000Y-77630000D02*
X57153000Y-77630000D01*
X67308000Y-77590000D02*
X57152000Y-77590000D01*
X67309000Y-77550000D02*
X57151000Y-77550000D01*
X67310000Y-77510000D02*
X57150000Y-77510000D01*
X67310000Y-77470000D02*
X57150000Y-77470000D01*
X67310000Y-77430000D02*
X57150000Y-77430000D01*
X67350000Y-77430000D02*
G75*
G03X67350000Y-77430000I-5120000J0D01*
G01*
X87090000Y-68540000D02*
X87090000Y-78780000D01*
X82449000Y-68540000D02*
X82449000Y-78780000D01*
X87090000Y-68540000D02*
X82449000Y-68540000D01*
X87090000Y-78780000D02*
X82449000Y-78780000D01*
X85580000Y-68540000D02*
X85580000Y-78780000D01*
X87090000Y-71810000D02*
X85580000Y-71810000D01*
X87090000Y-75511000D02*
X85580000Y-75511000D01*
X160060000Y-31210000D02*
X149820000Y-31210000D01*
X160060000Y-26569000D02*
X149820000Y-26569000D01*
X160060000Y-31210000D02*
X160060000Y-26569000D01*
X149820000Y-31210000D02*
X149820000Y-26569000D01*
X160060000Y-29700000D02*
X149820000Y-29700000D01*
X156790000Y-31210000D02*
X156790000Y-29700000D01*
X153089000Y-31210000D02*
X153089000Y-29700000D01*
X170910000Y-45680000D02*
X170910000Y-55920000D01*
X166269000Y-45680000D02*
X166269000Y-55920000D01*
X170910000Y-45680000D02*
X166269000Y-45680000D01*
X170910000Y-55920000D02*
X166269000Y-55920000D01*
X169400000Y-45680000D02*
X169400000Y-55920000D01*
X170910000Y-48950000D02*
X169400000Y-48950000D01*
X170910000Y-52651000D02*
X169400000Y-52651000D01*
X10160000Y-98020000D02*
X10160000Y-97250000D01*
X10160000Y-89940000D02*
X10160000Y-90710000D01*
X11530000Y-97250000D02*
X11530000Y-90710000D01*
X8790000Y-97250000D02*
X11530000Y-97250000D01*
X8790000Y-90710000D02*
X8790000Y-97250000D01*
X11530000Y-90710000D02*
X8790000Y-90710000D01*
X40640000Y-87860000D02*
X40640000Y-87090000D01*
X40640000Y-79780000D02*
X40640000Y-80550000D01*
X42010000Y-87090000D02*
X42010000Y-80550000D01*
X39270000Y-87090000D02*
X42010000Y-87090000D01*
X39270000Y-80550000D02*
X39270000Y-87090000D01*
X42010000Y-80550000D02*
X39270000Y-80550000D01*
X53340000Y-65000000D02*
X53340000Y-64230000D01*
X53340000Y-56920000D02*
X53340000Y-57690000D01*
X54710000Y-64230000D02*
X54710000Y-57690000D01*
X51970000Y-64230000D02*
X54710000Y-64230000D01*
X51970000Y-57690000D02*
X51970000Y-64230000D01*
X54710000Y-57690000D02*
X51970000Y-57690000D01*
X72290000Y-74390000D02*
X75030000Y-74390000D01*
X75030000Y-74390000D02*
X75030000Y-67850000D01*
X75030000Y-67850000D02*
X72290000Y-67850000D01*
X72290000Y-67850000D02*
X72290000Y-74390000D01*
X73660000Y-75160000D02*
X73660000Y-74390000D01*
X73660000Y-67080000D02*
X73660000Y-67850000D01*
X57250000Y-100870000D02*
X54510000Y-100870000D01*
X54510000Y-100870000D02*
X54510000Y-107410000D01*
X54510000Y-107410000D02*
X57250000Y-107410000D01*
X57250000Y-107410000D02*
X57250000Y-100870000D01*
X55880000Y-100100000D02*
X55880000Y-100870000D01*
X55880000Y-108180000D02*
X55880000Y-107410000D01*
X269240000Y-37060000D02*
X269240000Y-36290000D01*
X269240000Y-28980000D02*
X269240000Y-29750000D01*
X270610000Y-36290000D02*
X270610000Y-29750000D01*
X267870000Y-36290000D02*
X270610000Y-36290000D01*
X267870000Y-29750000D02*
X267870000Y-36290000D01*
X270610000Y-29750000D02*
X267870000Y-29750000D01*
X270610000Y-55150000D02*
X267870000Y-55150000D01*
X267870000Y-55150000D02*
X267870000Y-61690000D01*
X267870000Y-61690000D02*
X270610000Y-61690000D01*
X270610000Y-61690000D02*
X270610000Y-55150000D01*
X269240000Y-54380000D02*
X269240000Y-55150000D01*
X269240000Y-62460000D02*
X269240000Y-61690000D01*
D11*
X44045000Y-71985000D02*
X44045000Y-72210000D01*
X47395000Y-71985000D02*
X47395000Y-72285000D01*
X47395000Y-75335000D02*
X47395000Y-75035000D01*
X44045000Y-75335000D02*
X44045000Y-75035000D01*
X44045000Y-71985000D02*
X47395000Y-71985000D01*
X44045000Y-75335000D02*
X47395000Y-75335000D01*
X44045000Y-72210000D02*
X42820000Y-72210000D01*
D10*
X-1270000Y-30480000D02*
X5080000Y-30480000D01*
X5080000Y-30480000D02*
X7620000Y-27940000D01*
X7620000Y-27940000D02*
X7620000Y-25400000D01*
X7620000Y-25400000D02*
X5080000Y-22860000D01*
X5080000Y-22860000D02*
X-1270000Y-22860000D01*
X-370581Y-26670000D02*
G75*
G03X-370581Y-26670000I-8519419J0D01*
G01*
X-370581Y-64770000D02*
G75*
G03X-370581Y-64770000I-8519419J0D01*
G01*
X5080000Y-60960000D02*
X-1270000Y-60960000D01*
X7620000Y-63500000D02*
X5080000Y-60960000D01*
X7620000Y-66040000D02*
X7620000Y-63500000D01*
X5080000Y-68580000D02*
X7620000Y-66040000D01*
X-1270000Y-68580000D02*
X5080000Y-68580000D01*
X207010000Y-91440000D02*
X207010000Y-97790000D01*
X207010000Y-97790000D02*
X209550000Y-100330000D01*
X209550000Y-100330000D02*
X212090000Y-100330000D01*
X212090000Y-100330000D02*
X214630000Y-97790000D01*
X214630000Y-97790000D02*
X214630000Y-91440000D01*
X219339419Y-83820000D02*
G75*
G03X219339419Y-83820000I-8519419J0D01*
G01*
X179969419Y-83820000D02*
G75*
G03X179969419Y-83820000I-8519419J0D01*
G01*
X175260000Y-97790000D02*
X175260000Y-91440000D01*
X172720000Y-100330000D02*
X175260000Y-97790000D01*
X170180000Y-100330000D02*
X172720000Y-100330000D01*
X167640000Y-97790000D02*
X170180000Y-100330000D01*
X167640000Y-91440000D02*
X167640000Y-97790000D01*
D11*
X250447142Y-33146666D02*
X250494761Y-33194285D01*
X250542380Y-33337142D01*
X250542380Y-33432380D01*
X250494761Y-33575238D01*
X250399523Y-33670476D01*
X250304285Y-33718095D01*
X250113809Y-33765714D01*
X249970952Y-33765714D01*
X249780476Y-33718095D01*
X249685238Y-33670476D01*
X249590000Y-33575238D01*
X249542380Y-33432380D01*
X249542380Y-33337142D01*
X249590000Y-33194285D01*
X249637619Y-33146666D01*
X249542380Y-32241904D02*
X249542380Y-32718095D01*
X250018571Y-32765714D01*
X249970952Y-32718095D01*
X249923333Y-32622857D01*
X249923333Y-32384761D01*
X249970952Y-32289523D01*
X250018571Y-32241904D01*
X250113809Y-32194285D01*
X250351904Y-32194285D01*
X250447142Y-32241904D01*
X250494761Y-32289523D01*
X250542380Y-32384761D01*
X250542380Y-32622857D01*
X250494761Y-32718095D01*
X250447142Y-32765714D01*
X108438095Y-69852380D02*
X108438095Y-70661904D01*
X108485714Y-70757142D01*
X108533333Y-70804761D01*
X108628571Y-70852380D01*
X108819047Y-70852380D01*
X108914285Y-70804761D01*
X108961904Y-70757142D01*
X109009523Y-70661904D01*
X109009523Y-69852380D01*
X109438095Y-69947619D02*
X109485714Y-69900000D01*
X109580952Y-69852380D01*
X109819047Y-69852380D01*
X109914285Y-69900000D01*
X109961904Y-69947619D01*
X110009523Y-70042857D01*
X110009523Y-70138095D01*
X109961904Y-70280952D01*
X109390476Y-70852380D01*
X110009523Y-70852380D01*
X60697619Y-90265238D02*
X60650000Y-90360476D01*
X60554761Y-90455714D01*
X60411904Y-90598571D01*
X60364285Y-90693809D01*
X60364285Y-90789047D01*
X60602380Y-90741428D02*
X60554761Y-90836666D01*
X60459523Y-90931904D01*
X60269047Y-90979523D01*
X59935714Y-90979523D01*
X59745238Y-90931904D01*
X59650000Y-90836666D01*
X59602380Y-90741428D01*
X59602380Y-90550952D01*
X59650000Y-90455714D01*
X59745238Y-90360476D01*
X59935714Y-90312857D01*
X60269047Y-90312857D01*
X60459523Y-90360476D01*
X60554761Y-90455714D01*
X60602380Y-90550952D01*
X60602380Y-90741428D01*
X60602380Y-89360476D02*
X60602380Y-89931904D01*
X60602380Y-89646190D02*
X59602380Y-89646190D01*
X59745238Y-89741428D01*
X59840476Y-89836666D01*
X59888095Y-89931904D01*
X4067142Y-94106666D02*
X4114761Y-94154285D01*
X4162380Y-94297142D01*
X4162380Y-94392380D01*
X4114761Y-94535238D01*
X4019523Y-94630476D01*
X3924285Y-94678095D01*
X3733809Y-94725714D01*
X3590952Y-94725714D01*
X3400476Y-94678095D01*
X3305238Y-94630476D01*
X3210000Y-94535238D01*
X3162380Y-94392380D01*
X3162380Y-94297142D01*
X3210000Y-94154285D01*
X3257619Y-94106666D01*
X4162380Y-93154285D02*
X4162380Y-93725714D01*
X4162380Y-93440000D02*
X3162380Y-93440000D01*
X3305238Y-93535238D01*
X3400476Y-93630476D01*
X3448095Y-93725714D01*
X16767142Y-114426666D02*
X16814761Y-114474285D01*
X16862380Y-114617142D01*
X16862380Y-114712380D01*
X16814761Y-114855238D01*
X16719523Y-114950476D01*
X16624285Y-114998095D01*
X16433809Y-115045714D01*
X16290952Y-115045714D01*
X16100476Y-114998095D01*
X16005238Y-114950476D01*
X15910000Y-114855238D01*
X15862380Y-114712380D01*
X15862380Y-114617142D01*
X15910000Y-114474285D01*
X15957619Y-114426666D01*
X15957619Y-114045714D02*
X15910000Y-113998095D01*
X15862380Y-113902857D01*
X15862380Y-113664761D01*
X15910000Y-113569523D01*
X15957619Y-113521904D01*
X16052857Y-113474285D01*
X16148095Y-113474285D01*
X16290952Y-113521904D01*
X16862380Y-114093333D01*
X16862380Y-113474285D01*
X29083333Y-85347142D02*
X29035714Y-85394761D01*
X28892857Y-85442380D01*
X28797619Y-85442380D01*
X28654761Y-85394761D01*
X28559523Y-85299523D01*
X28511904Y-85204285D01*
X28464285Y-85013809D01*
X28464285Y-84870952D01*
X28511904Y-84680476D01*
X28559523Y-84585238D01*
X28654761Y-84490000D01*
X28797619Y-84442380D01*
X28892857Y-84442380D01*
X29035714Y-84490000D01*
X29083333Y-84537619D01*
X29416666Y-84442380D02*
X30035714Y-84442380D01*
X29702380Y-84823333D01*
X29845238Y-84823333D01*
X29940476Y-84870952D01*
X29988095Y-84918571D01*
X30035714Y-85013809D01*
X30035714Y-85251904D01*
X29988095Y-85347142D01*
X29940476Y-85394761D01*
X29845238Y-85442380D01*
X29559523Y-85442380D01*
X29464285Y-85394761D01*
X29416666Y-85347142D01*
X68837142Y-77596666D02*
X68884761Y-77644285D01*
X68932380Y-77787142D01*
X68932380Y-77882380D01*
X68884761Y-78025238D01*
X68789523Y-78120476D01*
X68694285Y-78168095D01*
X68503809Y-78215714D01*
X68360952Y-78215714D01*
X68170476Y-78168095D01*
X68075238Y-78120476D01*
X67980000Y-78025238D01*
X67932380Y-77882380D01*
X67932380Y-77787142D01*
X67980000Y-77644285D01*
X68027619Y-77596666D01*
X68265714Y-76739523D02*
X68932380Y-76739523D01*
X67884761Y-76977619D02*
X68599047Y-77215714D01*
X68599047Y-76596666D01*
X88542380Y-74398095D02*
X87542380Y-74398095D01*
X87542380Y-74160000D01*
X87590000Y-74017142D01*
X87685238Y-73921904D01*
X87780476Y-73874285D01*
X87970952Y-73826666D01*
X88113809Y-73826666D01*
X88304285Y-73874285D01*
X88399523Y-73921904D01*
X88494761Y-74017142D01*
X88542380Y-74160000D01*
X88542380Y-74398095D01*
X88542380Y-72874285D02*
X88542380Y-73445714D01*
X88542380Y-73160000D02*
X87542380Y-73160000D01*
X87685238Y-73255238D01*
X87780476Y-73350476D01*
X87828095Y-73445714D01*
X154201904Y-32662380D02*
X154201904Y-31662380D01*
X154440000Y-31662380D01*
X154582857Y-31710000D01*
X154678095Y-31805238D01*
X154725714Y-31900476D01*
X154773333Y-32090952D01*
X154773333Y-32233809D01*
X154725714Y-32424285D01*
X154678095Y-32519523D01*
X154582857Y-32614761D01*
X154440000Y-32662380D01*
X154201904Y-32662380D01*
X155154285Y-31757619D02*
X155201904Y-31710000D01*
X155297142Y-31662380D01*
X155535238Y-31662380D01*
X155630476Y-31710000D01*
X155678095Y-31757619D01*
X155725714Y-31852857D01*
X155725714Y-31948095D01*
X155678095Y-32090952D01*
X155106666Y-32662380D01*
X155725714Y-32662380D01*
X172362380Y-51538095D02*
X171362380Y-51538095D01*
X171362380Y-51300000D01*
X171410000Y-51157142D01*
X171505238Y-51061904D01*
X171600476Y-51014285D01*
X171790952Y-50966666D01*
X171933809Y-50966666D01*
X172124285Y-51014285D01*
X172219523Y-51061904D01*
X172314761Y-51157142D01*
X172362380Y-51300000D01*
X172362380Y-51538095D01*
X171362380Y-50633333D02*
X171362380Y-50014285D01*
X171743333Y-50347619D01*
X171743333Y-50204761D01*
X171790952Y-50109523D01*
X171838571Y-50061904D01*
X171933809Y-50014285D01*
X172171904Y-50014285D01*
X172267142Y-50061904D01*
X172314761Y-50109523D01*
X172362380Y-50204761D01*
X172362380Y-50490476D01*
X172314761Y-50585714D01*
X172267142Y-50633333D01*
X231872380Y-28005066D02*
X231872380Y-28481257D01*
X230872380Y-28481257D01*
X231872380Y-27147923D02*
X231872380Y-27719352D01*
X231872380Y-27433638D02*
X230872380Y-27433638D01*
X231015238Y-27528876D01*
X231110476Y-27624114D01*
X231158095Y-27719352D01*
X12982380Y-94146666D02*
X12506190Y-94480000D01*
X12982380Y-94718095D02*
X11982380Y-94718095D01*
X11982380Y-94337142D01*
X12030000Y-94241904D01*
X12077619Y-94194285D01*
X12172857Y-94146666D01*
X12315714Y-94146666D01*
X12410952Y-94194285D01*
X12458571Y-94241904D01*
X12506190Y-94337142D01*
X12506190Y-94718095D01*
X12982380Y-93194285D02*
X12982380Y-93765714D01*
X12982380Y-93480000D02*
X11982380Y-93480000D01*
X12125238Y-93575238D01*
X12220476Y-93670476D01*
X12268095Y-93765714D01*
X43462380Y-83986666D02*
X42986190Y-84320000D01*
X43462380Y-84558095D02*
X42462380Y-84558095D01*
X42462380Y-84177142D01*
X42510000Y-84081904D01*
X42557619Y-84034285D01*
X42652857Y-83986666D01*
X42795714Y-83986666D01*
X42890952Y-84034285D01*
X42938571Y-84081904D01*
X42986190Y-84177142D01*
X42986190Y-84558095D01*
X42557619Y-83605714D02*
X42510000Y-83558095D01*
X42462380Y-83462857D01*
X42462380Y-83224761D01*
X42510000Y-83129523D01*
X42557619Y-83081904D01*
X42652857Y-83034285D01*
X42748095Y-83034285D01*
X42890952Y-83081904D01*
X43462380Y-83653333D01*
X43462380Y-83034285D01*
X56162380Y-61126666D02*
X55686190Y-61460000D01*
X56162380Y-61698095D02*
X55162380Y-61698095D01*
X55162380Y-61317142D01*
X55210000Y-61221904D01*
X55257619Y-61174285D01*
X55352857Y-61126666D01*
X55495714Y-61126666D01*
X55590952Y-61174285D01*
X55638571Y-61221904D01*
X55686190Y-61317142D01*
X55686190Y-61698095D01*
X55162380Y-60793333D02*
X55162380Y-60174285D01*
X55543333Y-60507619D01*
X55543333Y-60364761D01*
X55590952Y-60269523D01*
X55638571Y-60221904D01*
X55733809Y-60174285D01*
X55971904Y-60174285D01*
X56067142Y-60221904D01*
X56114761Y-60269523D01*
X56162380Y-60364761D01*
X56162380Y-60650476D01*
X56114761Y-60745714D01*
X56067142Y-60793333D01*
X71742380Y-71286666D02*
X71266190Y-71620000D01*
X71742380Y-71858095D02*
X70742380Y-71858095D01*
X70742380Y-71477142D01*
X70790000Y-71381904D01*
X70837619Y-71334285D01*
X70932857Y-71286666D01*
X71075714Y-71286666D01*
X71170952Y-71334285D01*
X71218571Y-71381904D01*
X71266190Y-71477142D01*
X71266190Y-71858095D01*
X71075714Y-70429523D02*
X71742380Y-70429523D01*
X70694761Y-70667619D02*
X71409047Y-70905714D01*
X71409047Y-70286666D01*
X58702380Y-104306666D02*
X58226190Y-104640000D01*
X58702380Y-104878095D02*
X57702380Y-104878095D01*
X57702380Y-104497142D01*
X57750000Y-104401904D01*
X57797619Y-104354285D01*
X57892857Y-104306666D01*
X58035714Y-104306666D01*
X58130952Y-104354285D01*
X58178571Y-104401904D01*
X58226190Y-104497142D01*
X58226190Y-104878095D01*
X57702380Y-103401904D02*
X57702380Y-103878095D01*
X58178571Y-103925714D01*
X58130952Y-103878095D01*
X58083333Y-103782857D01*
X58083333Y-103544761D01*
X58130952Y-103449523D01*
X58178571Y-103401904D01*
X58273809Y-103354285D01*
X58511904Y-103354285D01*
X58607142Y-103401904D01*
X58654761Y-103449523D01*
X58702380Y-103544761D01*
X58702380Y-103782857D01*
X58654761Y-103878095D01*
X58607142Y-103925714D01*
X272062380Y-33186666D02*
X271586190Y-33520000D01*
X272062380Y-33758095D02*
X271062380Y-33758095D01*
X271062380Y-33377142D01*
X271110000Y-33281904D01*
X271157619Y-33234285D01*
X271252857Y-33186666D01*
X271395714Y-33186666D01*
X271490952Y-33234285D01*
X271538571Y-33281904D01*
X271586190Y-33377142D01*
X271586190Y-33758095D01*
X271062380Y-32853333D02*
X271062380Y-32186666D01*
X272062380Y-32615238D01*
X272062380Y-58586666D02*
X271586190Y-58920000D01*
X272062380Y-59158095D02*
X271062380Y-59158095D01*
X271062380Y-58777142D01*
X271110000Y-58681904D01*
X271157619Y-58634285D01*
X271252857Y-58586666D01*
X271395714Y-58586666D01*
X271490952Y-58634285D01*
X271538571Y-58681904D01*
X271586190Y-58777142D01*
X271586190Y-59158095D01*
X271490952Y-58015238D02*
X271443333Y-58110476D01*
X271395714Y-58158095D01*
X271300476Y-58205714D01*
X271252857Y-58205714D01*
X271157619Y-58158095D01*
X271110000Y-58110476D01*
X271062380Y-58015238D01*
X271062380Y-57824761D01*
X271110000Y-57729523D01*
X271157619Y-57681904D01*
X271252857Y-57634285D01*
X271300476Y-57634285D01*
X271395714Y-57681904D01*
X271443333Y-57729523D01*
X271490952Y-57824761D01*
X271490952Y-58015238D01*
X271538571Y-58110476D01*
X271586190Y-58158095D01*
X271681428Y-58205714D01*
X271871904Y-58205714D01*
X271967142Y-58158095D01*
X272014761Y-58110476D01*
X272062380Y-58015238D01*
X272062380Y-57824761D01*
X272014761Y-57729523D01*
X271967142Y-57681904D01*
X271871904Y-57634285D01*
X271681428Y-57634285D01*
X271586190Y-57681904D01*
X271538571Y-57729523D01*
X271490952Y-57824761D01*
X44958095Y-70512380D02*
X44958095Y-71321904D01*
X45005714Y-71417142D01*
X45053333Y-71464761D01*
X45148571Y-71512380D01*
X45339047Y-71512380D01*
X45434285Y-71464761D01*
X45481904Y-71417142D01*
X45529523Y-71321904D01*
X45529523Y-70512380D01*
X46529523Y-71512380D02*
X45958095Y-71512380D01*
X46243809Y-71512380D02*
X46243809Y-70512380D01*
X46148571Y-70655238D01*
X46053333Y-70750476D01*
X45958095Y-70798095D01*
X726666Y-20622380D02*
X726666Y-21336666D01*
X679047Y-21479523D01*
X583809Y-21574761D01*
X440952Y-21622380D01*
X345714Y-21622380D01*
X1726666Y-21622380D02*
X1155238Y-21622380D01*
X1440952Y-21622380D02*
X1440952Y-20622380D01*
X1345714Y-20765238D01*
X1250476Y-20860476D01*
X1155238Y-20908095D01*
X726666Y-58722380D02*
X726666Y-59436666D01*
X679047Y-59579523D01*
X583809Y-59674761D01*
X440952Y-59722380D01*
X345714Y-59722380D01*
X1155238Y-58817619D02*
X1202857Y-58770000D01*
X1298095Y-58722380D01*
X1536190Y-58722380D01*
X1631428Y-58770000D01*
X1679047Y-58817619D01*
X1726666Y-58912857D01*
X1726666Y-59008095D01*
X1679047Y-59150952D01*
X1107619Y-59722380D01*
X1726666Y-59722380D01*
X215772380Y-94103333D02*
X216486666Y-94103333D01*
X216629523Y-94150952D01*
X216724761Y-94246190D01*
X216772380Y-94389047D01*
X216772380Y-94484285D01*
X215772380Y-93722380D02*
X215772380Y-93103333D01*
X216153333Y-93436666D01*
X216153333Y-93293809D01*
X216200952Y-93198571D01*
X216248571Y-93150952D01*
X216343809Y-93103333D01*
X216581904Y-93103333D01*
X216677142Y-93150952D01*
X216724761Y-93198571D01*
X216772380Y-93293809D01*
X216772380Y-93579523D01*
X216724761Y-93674761D01*
X216677142Y-93722380D01*
X176402380Y-94103333D02*
X177116666Y-94103333D01*
X177259523Y-94150952D01*
X177354761Y-94246190D01*
X177402380Y-94389047D01*
X177402380Y-94484285D01*
X176735714Y-93198571D02*
X177402380Y-93198571D01*
X176354761Y-93436666D02*
X177069047Y-93674761D01*
X177069047Y-93055714D01*
M02*
