G04 #@! TF.GenerationSoftware,KiCad,Pcbnew,(5.1.5)-3*
G04 #@! TF.CreationDate,2020-06-24T22:01:33+03:00*
G04 #@! TF.ProjectId,forward_converter_opto,666f7277-6172-4645-9f63-6f6e76657274,rev?*
G04 #@! TF.SameCoordinates,Original*
G04 #@! TF.FileFunction,Copper,L2,Bot*
G04 #@! TF.FilePolarity,Positive*
%FSLAX46Y46*%
G04 Gerber Fmt 4.6, Leading zero omitted, Abs format (unit mm)*
G04 Created by KiCad (PCBNEW (5.1.5)-3) date 2020-06-24 22:01:33*
%MOMM*%
%LPD*%
G04 APERTURE LIST*
%ADD10C,2.000000*%
%ADD11R,2.000000X2.000000*%
%ADD12C,3.000000*%
%ADD13C,2.400000*%
%ADD14R,2.000000X1.905000*%
%ADD15O,2.000000X1.905000*%
%ADD16O,2.000000X2.000000*%
%ADD17C,14.000000*%
%ADD18O,1.600000X1.600000*%
%ADD19C,1.600000*%
%ADD20C,15.240000*%
%ADD21C,5.080000*%
%ADD22C,0.250000*%
%ADD23C,0.400000*%
%ADD24C,0.254000*%
G04 APERTURE END LIST*
D10*
X243840000Y-35480000D03*
D11*
X243840000Y-30480000D03*
D12*
X76200000Y-25400000D03*
X76200000Y-35400000D03*
X76200000Y-45400000D03*
X76200000Y-55400000D03*
D13*
X142200000Y-30400000D03*
X142200000Y-50400000D03*
D14*
X55880000Y-87630000D03*
D15*
X55880000Y-90170000D03*
X55880000Y-92710000D03*
D10*
X-2540000Y-96440000D03*
D11*
X-2540000Y-91440000D03*
X10160000Y-111760000D03*
D10*
X10160000Y-116760000D03*
D11*
X31750000Y-78740000D03*
D10*
X26750000Y-78740000D03*
X62230000Y-79930000D03*
D11*
X62230000Y-74930000D03*
X83820000Y-71120000D03*
D16*
X83820000Y-76200000D03*
D11*
X157480000Y-27940000D03*
D16*
X152400000Y-27940000D03*
D11*
X167640000Y-48260000D03*
D16*
X167640000Y-53340000D03*
D17*
X185980000Y-27940000D03*
X220980000Y-27940000D03*
D18*
X10160000Y-99060000D03*
D19*
X10160000Y-88900000D03*
D18*
X40640000Y-88900000D03*
D19*
X40640000Y-78740000D03*
D18*
X53340000Y-66040000D03*
D19*
X53340000Y-55880000D03*
X73660000Y-76200000D03*
D18*
X73660000Y-66040000D03*
D19*
X55880000Y-99060000D03*
D18*
X55880000Y-109220000D03*
X269240000Y-38100000D03*
D19*
X269240000Y-27940000D03*
X269240000Y-53340000D03*
D18*
X269240000Y-63500000D03*
D20*
X-8890000Y-26670000D03*
D21*
X3810000Y-26670000D03*
X3810000Y-64770000D03*
D20*
X-8890000Y-64770000D03*
X210820000Y-83820000D03*
D21*
X210820000Y-96520000D03*
X171450000Y-96520000D03*
D20*
X171450000Y-83820000D03*
D22*
X-2540000Y-104060000D02*
X10160000Y-116760000D01*
X-2540000Y-96440000D02*
X-2540000Y-104060000D01*
X26750000Y-100170000D02*
X10160000Y-116760000D01*
X40640000Y-88900000D02*
X26670000Y-88900000D01*
X26750000Y-78740000D02*
X26670000Y-88900000D01*
X26670000Y-88900000D02*
X26750000Y-100170000D01*
X55880000Y-109220000D02*
X35560000Y-109220000D01*
X26750000Y-100410000D02*
X26750000Y-100170000D01*
X35560000Y-109220000D02*
X26750000Y-100410000D01*
X73660000Y-76200000D02*
X83820000Y-76200000D01*
X73660000Y-76200000D02*
X69850000Y-80010000D01*
X69770000Y-79930000D02*
X62230000Y-79930000D01*
X69850000Y-80010000D02*
X69770000Y-79930000D01*
X62230000Y-79930000D02*
X49610000Y-79930000D01*
X-8890000Y-90090000D02*
X-8890000Y-64770000D01*
X-2540000Y-96440000D02*
X-8890000Y-90090000D01*
X46990000Y-82550000D02*
X46990000Y-74930000D01*
X46990000Y-82550000D02*
X40640000Y-88900000D01*
X49610000Y-79930000D02*
X46990000Y-82550000D01*
X46990000Y-74930000D02*
X45720000Y-73660000D01*
D23*
X269240000Y-63500000D02*
X232410000Y-63500000D01*
X243840000Y-52070000D02*
X243840000Y-35480000D01*
X232410000Y-63500000D02*
X243840000Y-52070000D01*
X177800000Y-63500000D02*
X167640000Y-53340000D01*
X232410000Y-63500000D02*
X189230000Y-63500000D01*
X189230000Y-63500000D02*
X177800000Y-63500000D01*
X177800000Y-66693693D02*
X177800000Y-63500000D01*
X171450000Y-73043693D02*
X177800000Y-66693693D01*
X171450000Y-83820000D02*
X171450000Y-73043693D01*
D24*
G36*
X274193000Y-102743000D02*
G01*
X138557000Y-102743000D01*
X138557000Y-96207290D01*
X168275000Y-96207290D01*
X168275000Y-96832710D01*
X168397014Y-97446113D01*
X168636352Y-98023926D01*
X168983817Y-98543944D01*
X169426056Y-98986183D01*
X169946074Y-99333648D01*
X170523887Y-99572986D01*
X171137290Y-99695000D01*
X171762710Y-99695000D01*
X172376113Y-99572986D01*
X172953926Y-99333648D01*
X173473944Y-98986183D01*
X173916183Y-98543944D01*
X174263648Y-98023926D01*
X174502986Y-97446113D01*
X174625000Y-96832710D01*
X174625000Y-96207290D01*
X207645000Y-96207290D01*
X207645000Y-96832710D01*
X207767014Y-97446113D01*
X208006352Y-98023926D01*
X208353817Y-98543944D01*
X208796056Y-98986183D01*
X209316074Y-99333648D01*
X209893887Y-99572986D01*
X210507290Y-99695000D01*
X211132710Y-99695000D01*
X211746113Y-99572986D01*
X212323926Y-99333648D01*
X212843944Y-98986183D01*
X213286183Y-98543944D01*
X213633648Y-98023926D01*
X213872986Y-97446113D01*
X213995000Y-96832710D01*
X213995000Y-96207290D01*
X213872986Y-95593887D01*
X213633648Y-95016074D01*
X213286183Y-94496056D01*
X212843944Y-94053817D01*
X212323926Y-93706352D01*
X211746113Y-93467014D01*
X211132710Y-93345000D01*
X210507290Y-93345000D01*
X209893887Y-93467014D01*
X209316074Y-93706352D01*
X208796056Y-94053817D01*
X208353817Y-94496056D01*
X208006352Y-95016074D01*
X207767014Y-95593887D01*
X207645000Y-96207290D01*
X174625000Y-96207290D01*
X174502986Y-95593887D01*
X174263648Y-95016074D01*
X173916183Y-94496056D01*
X173473944Y-94053817D01*
X172953926Y-93706352D01*
X172376113Y-93467014D01*
X171762710Y-93345000D01*
X171137290Y-93345000D01*
X170523887Y-93467014D01*
X169946074Y-93706352D01*
X169426056Y-94053817D01*
X168983817Y-94496056D01*
X168636352Y-95016074D01*
X168397014Y-95593887D01*
X168275000Y-96207290D01*
X138557000Y-96207290D01*
X138557000Y-89662258D01*
X165787347Y-89662258D01*
X166677672Y-90604611D01*
X168092983Y-91405282D01*
X169637302Y-91914455D01*
X171251282Y-92112562D01*
X172872899Y-91991990D01*
X174439835Y-91557374D01*
X175891872Y-90825414D01*
X176222328Y-90604611D01*
X177112653Y-89662258D01*
X171450000Y-83999605D01*
X165787347Y-89662258D01*
X138557000Y-89662258D01*
X138557000Y-83621282D01*
X163157438Y-83621282D01*
X163278010Y-85242899D01*
X163712626Y-86809835D01*
X164444586Y-88261872D01*
X164665389Y-88592328D01*
X165607742Y-89482653D01*
X171270395Y-83820000D01*
X171629605Y-83820000D01*
X177292258Y-89482653D01*
X178234611Y-88592328D01*
X179035282Y-87177017D01*
X179544455Y-85632698D01*
X179742562Y-84018718D01*
X179667335Y-83006954D01*
X202565000Y-83006954D01*
X202565000Y-84633046D01*
X202882235Y-86227895D01*
X203504514Y-87730209D01*
X204407923Y-89082255D01*
X205557745Y-90232077D01*
X206909791Y-91135486D01*
X208412105Y-91757765D01*
X210006954Y-92075000D01*
X211633046Y-92075000D01*
X213227895Y-91757765D01*
X214730209Y-91135486D01*
X216082255Y-90232077D01*
X217232077Y-89082255D01*
X218135486Y-87730209D01*
X218757765Y-86227895D01*
X219075000Y-84633046D01*
X219075000Y-83006954D01*
X218757765Y-81412105D01*
X218135486Y-79909791D01*
X217232077Y-78557745D01*
X216082255Y-77407923D01*
X214730209Y-76504514D01*
X213227895Y-75882235D01*
X211633046Y-75565000D01*
X210006954Y-75565000D01*
X208412105Y-75882235D01*
X206909791Y-76504514D01*
X205557745Y-77407923D01*
X204407923Y-78557745D01*
X203504514Y-79909791D01*
X202882235Y-81412105D01*
X202565000Y-83006954D01*
X179667335Y-83006954D01*
X179621990Y-82397101D01*
X179187374Y-80830165D01*
X178455414Y-79378128D01*
X178234611Y-79047672D01*
X177292258Y-78157347D01*
X171629605Y-83820000D01*
X171270395Y-83820000D01*
X165607742Y-78157347D01*
X164665389Y-79047672D01*
X163864718Y-80462983D01*
X163355545Y-82007302D01*
X163157438Y-83621282D01*
X138557000Y-83621282D01*
X138557000Y-77977742D01*
X165787347Y-77977742D01*
X171450000Y-83640395D01*
X177112653Y-77977742D01*
X176222328Y-77035389D01*
X174807017Y-76234718D01*
X173262698Y-75725545D01*
X171648718Y-75527438D01*
X170027101Y-75648010D01*
X168460165Y-76082626D01*
X167008128Y-76814586D01*
X166677672Y-77035389D01*
X165787347Y-77977742D01*
X138557000Y-77977742D01*
X138557000Y-63849040D01*
X267848091Y-63849040D01*
X267942930Y-64113881D01*
X268087615Y-64355131D01*
X268276586Y-64563519D01*
X268502580Y-64731037D01*
X268756913Y-64851246D01*
X268890961Y-64891904D01*
X269113000Y-64769915D01*
X269113000Y-63627000D01*
X269367000Y-63627000D01*
X269367000Y-64769915D01*
X269589039Y-64891904D01*
X269723087Y-64851246D01*
X269977420Y-64731037D01*
X270203414Y-64563519D01*
X270392385Y-64355131D01*
X270537070Y-64113881D01*
X270631909Y-63849040D01*
X270510624Y-63627000D01*
X269367000Y-63627000D01*
X269113000Y-63627000D01*
X267969376Y-63627000D01*
X267848091Y-63849040D01*
X138557000Y-63849040D01*
X138557000Y-63150960D01*
X267848091Y-63150960D01*
X267969376Y-63373000D01*
X269113000Y-63373000D01*
X269113000Y-62230085D01*
X269367000Y-62230085D01*
X269367000Y-63373000D01*
X270510624Y-63373000D01*
X270631909Y-63150960D01*
X270537070Y-62886119D01*
X270392385Y-62644869D01*
X270203414Y-62436481D01*
X269977420Y-62268963D01*
X269723087Y-62148754D01*
X269589039Y-62108096D01*
X269367000Y-62230085D01*
X269113000Y-62230085D01*
X268890961Y-62108096D01*
X268756913Y-62148754D01*
X268502580Y-62268963D01*
X268276586Y-62436481D01*
X268087615Y-62644869D01*
X267942930Y-62886119D01*
X267848091Y-63150960D01*
X138557000Y-63150960D01*
X138557000Y-53720435D01*
X166049871Y-53720435D01*
X166154644Y-54023344D01*
X166316499Y-54299992D01*
X166529215Y-54539748D01*
X166784618Y-54733399D01*
X167072893Y-54873502D01*
X167259566Y-54930124D01*
X167513000Y-54810777D01*
X167513000Y-53467000D01*
X167767000Y-53467000D01*
X167767000Y-54810777D01*
X168020434Y-54930124D01*
X168207107Y-54873502D01*
X168495382Y-54733399D01*
X168750785Y-54539748D01*
X168963501Y-54299992D01*
X169125356Y-54023344D01*
X169230129Y-53720435D01*
X169111315Y-53467000D01*
X167767000Y-53467000D01*
X167513000Y-53467000D01*
X166168685Y-53467000D01*
X166049871Y-53720435D01*
X138557000Y-53720435D01*
X138557000Y-52959565D01*
X166049871Y-52959565D01*
X166168685Y-53213000D01*
X167513000Y-53213000D01*
X167513000Y-51869223D01*
X167767000Y-51869223D01*
X167767000Y-53213000D01*
X169111315Y-53213000D01*
X169118035Y-53198665D01*
X267805000Y-53198665D01*
X267805000Y-53481335D01*
X267860147Y-53758574D01*
X267968320Y-54019727D01*
X268125363Y-54254759D01*
X268325241Y-54454637D01*
X268560273Y-54611680D01*
X268821426Y-54719853D01*
X269098665Y-54775000D01*
X269381335Y-54775000D01*
X269658574Y-54719853D01*
X269919727Y-54611680D01*
X270154759Y-54454637D01*
X270354637Y-54254759D01*
X270511680Y-54019727D01*
X270619853Y-53758574D01*
X270675000Y-53481335D01*
X270675000Y-53198665D01*
X270619853Y-52921426D01*
X270511680Y-52660273D01*
X270354637Y-52425241D01*
X270154759Y-52225363D01*
X269919727Y-52068320D01*
X269658574Y-51960147D01*
X269381335Y-51905000D01*
X269098665Y-51905000D01*
X268821426Y-51960147D01*
X268560273Y-52068320D01*
X268325241Y-52225363D01*
X268125363Y-52425241D01*
X267968320Y-52660273D01*
X267860147Y-52921426D01*
X267805000Y-53198665D01*
X169118035Y-53198665D01*
X169230129Y-52959565D01*
X169125356Y-52656656D01*
X168963501Y-52380008D01*
X168750785Y-52140252D01*
X168495382Y-51946601D01*
X168207107Y-51806498D01*
X168020434Y-51749876D01*
X167767000Y-51869223D01*
X167513000Y-51869223D01*
X167259566Y-51749876D01*
X167072893Y-51806498D01*
X166784618Y-51946601D01*
X166529215Y-52140252D01*
X166316499Y-52380008D01*
X166154644Y-52656656D01*
X166049871Y-52959565D01*
X138557000Y-52959565D01*
X138557000Y-51677980D01*
X141101626Y-51677980D01*
X141221514Y-51962836D01*
X141545210Y-52123699D01*
X141894069Y-52218322D01*
X142254684Y-52243067D01*
X142613198Y-52196985D01*
X142955833Y-52081846D01*
X143178486Y-51962836D01*
X143298374Y-51677980D01*
X142200000Y-50579605D01*
X141101626Y-51677980D01*
X138557000Y-51677980D01*
X138557000Y-50454684D01*
X140356933Y-50454684D01*
X140403015Y-50813198D01*
X140518154Y-51155833D01*
X140637164Y-51378486D01*
X140922020Y-51498374D01*
X142020395Y-50400000D01*
X142379605Y-50400000D01*
X143477980Y-51498374D01*
X143762836Y-51378486D01*
X143923699Y-51054790D01*
X144018322Y-50705931D01*
X144043067Y-50345316D01*
X143996985Y-49986802D01*
X143881846Y-49644167D01*
X143762836Y-49421514D01*
X143477980Y-49301626D01*
X142379605Y-50400000D01*
X142020395Y-50400000D01*
X140922020Y-49301626D01*
X140637164Y-49421514D01*
X140476301Y-49745210D01*
X140381678Y-50094069D01*
X140356933Y-50454684D01*
X138557000Y-50454684D01*
X138557000Y-49122020D01*
X141101626Y-49122020D01*
X142200000Y-50220395D01*
X143298374Y-49122020D01*
X143178486Y-48837164D01*
X142854790Y-48676301D01*
X142505931Y-48581678D01*
X142145316Y-48556933D01*
X141786802Y-48603015D01*
X141444167Y-48718154D01*
X141221514Y-48837164D01*
X141101626Y-49122020D01*
X138557000Y-49122020D01*
X138557000Y-47260000D01*
X166001928Y-47260000D01*
X166001928Y-49260000D01*
X166014188Y-49384482D01*
X166050498Y-49504180D01*
X166109463Y-49614494D01*
X166188815Y-49711185D01*
X166285506Y-49790537D01*
X166395820Y-49849502D01*
X166515518Y-49885812D01*
X166640000Y-49898072D01*
X168640000Y-49898072D01*
X168764482Y-49885812D01*
X168884180Y-49849502D01*
X168994494Y-49790537D01*
X169091185Y-49711185D01*
X169170537Y-49614494D01*
X169229502Y-49504180D01*
X169265812Y-49384482D01*
X169278072Y-49260000D01*
X169278072Y-47260000D01*
X169265812Y-47135518D01*
X169229502Y-47015820D01*
X169170537Y-46905506D01*
X169091185Y-46808815D01*
X168994494Y-46729463D01*
X168884180Y-46670498D01*
X168764482Y-46634188D01*
X168640000Y-46621928D01*
X166640000Y-46621928D01*
X166515518Y-46634188D01*
X166395820Y-46670498D01*
X166285506Y-46729463D01*
X166188815Y-46808815D01*
X166109463Y-46905506D01*
X166050498Y-47015820D01*
X166014188Y-47135518D01*
X166001928Y-47260000D01*
X138557000Y-47260000D01*
X138557000Y-37958665D01*
X267805000Y-37958665D01*
X267805000Y-38241335D01*
X267860147Y-38518574D01*
X267968320Y-38779727D01*
X268125363Y-39014759D01*
X268325241Y-39214637D01*
X268560273Y-39371680D01*
X268821426Y-39479853D01*
X269098665Y-39535000D01*
X269381335Y-39535000D01*
X269658574Y-39479853D01*
X269919727Y-39371680D01*
X270154759Y-39214637D01*
X270354637Y-39014759D01*
X270511680Y-38779727D01*
X270619853Y-38518574D01*
X270675000Y-38241335D01*
X270675000Y-37958665D01*
X270619853Y-37681426D01*
X270511680Y-37420273D01*
X270354637Y-37185241D01*
X270154759Y-36985363D01*
X269919727Y-36828320D01*
X269658574Y-36720147D01*
X269381335Y-36665000D01*
X269098665Y-36665000D01*
X268821426Y-36720147D01*
X268560273Y-36828320D01*
X268325241Y-36985363D01*
X268125363Y-37185241D01*
X267968320Y-37420273D01*
X267860147Y-37681426D01*
X267805000Y-37958665D01*
X138557000Y-37958665D01*
X138557000Y-36615413D01*
X242884192Y-36615413D01*
X242979956Y-36879814D01*
X243269571Y-37020704D01*
X243581108Y-37102384D01*
X243902595Y-37121718D01*
X244221675Y-37077961D01*
X244526088Y-36972795D01*
X244700044Y-36879814D01*
X244795808Y-36615413D01*
X243840000Y-35659605D01*
X242884192Y-36615413D01*
X138557000Y-36615413D01*
X138557000Y-30219268D01*
X140365000Y-30219268D01*
X140365000Y-30580732D01*
X140435518Y-30935250D01*
X140573844Y-31269199D01*
X140774662Y-31569744D01*
X141030256Y-31825338D01*
X141330801Y-32026156D01*
X141664750Y-32164482D01*
X142019268Y-32235000D01*
X142380732Y-32235000D01*
X142735250Y-32164482D01*
X143069199Y-32026156D01*
X143369744Y-31825338D01*
X143625338Y-31569744D01*
X143826156Y-31269199D01*
X143964482Y-30935250D01*
X144035000Y-30580732D01*
X144035000Y-30219268D01*
X143964482Y-29864750D01*
X143826156Y-29530801D01*
X143625338Y-29230256D01*
X143369744Y-28974662D01*
X143069199Y-28773844D01*
X142735250Y-28635518D01*
X142380732Y-28565000D01*
X142019268Y-28565000D01*
X141664750Y-28635518D01*
X141330801Y-28773844D01*
X141030256Y-28974662D01*
X140774662Y-29230256D01*
X140573844Y-29530801D01*
X140435518Y-29864750D01*
X140365000Y-30219268D01*
X138557000Y-30219268D01*
X138557000Y-27778967D01*
X150765000Y-27778967D01*
X150765000Y-28101033D01*
X150827832Y-28416912D01*
X150951082Y-28714463D01*
X151130013Y-28982252D01*
X151357748Y-29209987D01*
X151625537Y-29388918D01*
X151923088Y-29512168D01*
X152238967Y-29575000D01*
X152561033Y-29575000D01*
X152876912Y-29512168D01*
X153174463Y-29388918D01*
X153442252Y-29209987D01*
X153669987Y-28982252D01*
X153848918Y-28714463D01*
X153972168Y-28416912D01*
X154035000Y-28101033D01*
X154035000Y-27778967D01*
X153972168Y-27463088D01*
X153848918Y-27165537D01*
X153698219Y-26940000D01*
X155841928Y-26940000D01*
X155841928Y-28940000D01*
X155854188Y-29064482D01*
X155890498Y-29184180D01*
X155949463Y-29294494D01*
X156028815Y-29391185D01*
X156125506Y-29470537D01*
X156235820Y-29529502D01*
X156355518Y-29565812D01*
X156480000Y-29578072D01*
X158480000Y-29578072D01*
X158604482Y-29565812D01*
X158724180Y-29529502D01*
X158834494Y-29470537D01*
X158931185Y-29391185D01*
X159010537Y-29294494D01*
X159069502Y-29184180D01*
X159105812Y-29064482D01*
X159118072Y-28940000D01*
X159118072Y-27188018D01*
X178345000Y-27188018D01*
X178345000Y-28691982D01*
X178638408Y-30167047D01*
X179213950Y-31556529D01*
X180049508Y-32807029D01*
X181112971Y-33870492D01*
X182363471Y-34706050D01*
X183752953Y-35281592D01*
X185228018Y-35575000D01*
X186731982Y-35575000D01*
X188207047Y-35281592D01*
X189596529Y-34706050D01*
X190847029Y-33870492D01*
X191910492Y-32807029D01*
X192746050Y-31556529D01*
X193321592Y-30167047D01*
X193615000Y-28691982D01*
X193615000Y-27188018D01*
X213345000Y-27188018D01*
X213345000Y-28691982D01*
X213638408Y-30167047D01*
X214213950Y-31556529D01*
X215049508Y-32807029D01*
X216112971Y-33870492D01*
X217363471Y-34706050D01*
X218752953Y-35281592D01*
X220228018Y-35575000D01*
X221731982Y-35575000D01*
X221894893Y-35542595D01*
X242198282Y-35542595D01*
X242242039Y-35861675D01*
X242347205Y-36166088D01*
X242440186Y-36340044D01*
X242704587Y-36435808D01*
X243660395Y-35480000D01*
X244019605Y-35480000D01*
X244975413Y-36435808D01*
X245239814Y-36340044D01*
X245380704Y-36050429D01*
X245462384Y-35738892D01*
X245481718Y-35417405D01*
X245437961Y-35098325D01*
X245332795Y-34793912D01*
X245239814Y-34619956D01*
X244975413Y-34524192D01*
X244019605Y-35480000D01*
X243660395Y-35480000D01*
X242704587Y-34524192D01*
X242440186Y-34619956D01*
X242299296Y-34909571D01*
X242217616Y-35221108D01*
X242198282Y-35542595D01*
X221894893Y-35542595D01*
X223207047Y-35281592D01*
X224596529Y-34706050D01*
X225137496Y-34344587D01*
X242884192Y-34344587D01*
X243840000Y-35300395D01*
X244795808Y-34344587D01*
X244700044Y-34080186D01*
X244410429Y-33939296D01*
X244098892Y-33857616D01*
X243777405Y-33838282D01*
X243458325Y-33882039D01*
X243153912Y-33987205D01*
X242979956Y-34080186D01*
X242884192Y-34344587D01*
X225137496Y-34344587D01*
X225847029Y-33870492D01*
X226910492Y-32807029D01*
X227746050Y-31556529D01*
X228321592Y-30167047D01*
X228458253Y-29480000D01*
X242201928Y-29480000D01*
X242201928Y-31480000D01*
X242214188Y-31604482D01*
X242250498Y-31724180D01*
X242309463Y-31834494D01*
X242388815Y-31931185D01*
X242485506Y-32010537D01*
X242595820Y-32069502D01*
X242715518Y-32105812D01*
X242840000Y-32118072D01*
X244840000Y-32118072D01*
X244964482Y-32105812D01*
X245084180Y-32069502D01*
X245194494Y-32010537D01*
X245291185Y-31931185D01*
X245370537Y-31834494D01*
X245429502Y-31724180D01*
X245465812Y-31604482D01*
X245478072Y-31480000D01*
X245478072Y-29480000D01*
X245465812Y-29355518D01*
X245429502Y-29235820D01*
X245370537Y-29125506D01*
X245291185Y-29028815D01*
X245194494Y-28949463D01*
X245084180Y-28890498D01*
X244964482Y-28854188D01*
X244840000Y-28841928D01*
X242840000Y-28841928D01*
X242715518Y-28854188D01*
X242595820Y-28890498D01*
X242485506Y-28949463D01*
X242388815Y-29028815D01*
X242309463Y-29125506D01*
X242250498Y-29235820D01*
X242214188Y-29355518D01*
X242201928Y-29480000D01*
X228458253Y-29480000D01*
X228615000Y-28691982D01*
X228615000Y-27798665D01*
X267805000Y-27798665D01*
X267805000Y-28081335D01*
X267860147Y-28358574D01*
X267968320Y-28619727D01*
X268125363Y-28854759D01*
X268325241Y-29054637D01*
X268560273Y-29211680D01*
X268821426Y-29319853D01*
X269098665Y-29375000D01*
X269381335Y-29375000D01*
X269658574Y-29319853D01*
X269919727Y-29211680D01*
X270154759Y-29054637D01*
X270354637Y-28854759D01*
X270511680Y-28619727D01*
X270619853Y-28358574D01*
X270675000Y-28081335D01*
X270675000Y-27798665D01*
X270619853Y-27521426D01*
X270511680Y-27260273D01*
X270354637Y-27025241D01*
X270154759Y-26825363D01*
X269919727Y-26668320D01*
X269658574Y-26560147D01*
X269381335Y-26505000D01*
X269098665Y-26505000D01*
X268821426Y-26560147D01*
X268560273Y-26668320D01*
X268325241Y-26825363D01*
X268125363Y-27025241D01*
X267968320Y-27260273D01*
X267860147Y-27521426D01*
X267805000Y-27798665D01*
X228615000Y-27798665D01*
X228615000Y-27188018D01*
X228321592Y-25712953D01*
X227746050Y-24323471D01*
X226910492Y-23072971D01*
X225847029Y-22009508D01*
X224596529Y-21173950D01*
X223207047Y-20598408D01*
X221731982Y-20305000D01*
X220228018Y-20305000D01*
X218752953Y-20598408D01*
X217363471Y-21173950D01*
X216112971Y-22009508D01*
X215049508Y-23072971D01*
X214213950Y-24323471D01*
X213638408Y-25712953D01*
X213345000Y-27188018D01*
X193615000Y-27188018D01*
X193321592Y-25712953D01*
X192746050Y-24323471D01*
X191910492Y-23072971D01*
X190847029Y-22009508D01*
X189596529Y-21173950D01*
X188207047Y-20598408D01*
X186731982Y-20305000D01*
X185228018Y-20305000D01*
X183752953Y-20598408D01*
X182363471Y-21173950D01*
X181112971Y-22009508D01*
X180049508Y-23072971D01*
X179213950Y-24323471D01*
X178638408Y-25712953D01*
X178345000Y-27188018D01*
X159118072Y-27188018D01*
X159118072Y-26940000D01*
X159105812Y-26815518D01*
X159069502Y-26695820D01*
X159010537Y-26585506D01*
X158931185Y-26488815D01*
X158834494Y-26409463D01*
X158724180Y-26350498D01*
X158604482Y-26314188D01*
X158480000Y-26301928D01*
X156480000Y-26301928D01*
X156355518Y-26314188D01*
X156235820Y-26350498D01*
X156125506Y-26409463D01*
X156028815Y-26488815D01*
X155949463Y-26585506D01*
X155890498Y-26695820D01*
X155854188Y-26815518D01*
X155841928Y-26940000D01*
X153698219Y-26940000D01*
X153669987Y-26897748D01*
X153442252Y-26670013D01*
X153174463Y-26491082D01*
X152876912Y-26367832D01*
X152561033Y-26305000D01*
X152238967Y-26305000D01*
X151923088Y-26367832D01*
X151625537Y-26491082D01*
X151357748Y-26670013D01*
X151130013Y-26897748D01*
X150951082Y-27165537D01*
X150827832Y-27463088D01*
X150765000Y-27778967D01*
X138557000Y-27778967D01*
X138557000Y-19177000D01*
X274193000Y-19177000D01*
X274193000Y-102743000D01*
G37*
X274193000Y-102743000D02*
X138557000Y-102743000D01*
X138557000Y-96207290D01*
X168275000Y-96207290D01*
X168275000Y-96832710D01*
X168397014Y-97446113D01*
X168636352Y-98023926D01*
X168983817Y-98543944D01*
X169426056Y-98986183D01*
X169946074Y-99333648D01*
X170523887Y-99572986D01*
X171137290Y-99695000D01*
X171762710Y-99695000D01*
X172376113Y-99572986D01*
X172953926Y-99333648D01*
X173473944Y-98986183D01*
X173916183Y-98543944D01*
X174263648Y-98023926D01*
X174502986Y-97446113D01*
X174625000Y-96832710D01*
X174625000Y-96207290D01*
X207645000Y-96207290D01*
X207645000Y-96832710D01*
X207767014Y-97446113D01*
X208006352Y-98023926D01*
X208353817Y-98543944D01*
X208796056Y-98986183D01*
X209316074Y-99333648D01*
X209893887Y-99572986D01*
X210507290Y-99695000D01*
X211132710Y-99695000D01*
X211746113Y-99572986D01*
X212323926Y-99333648D01*
X212843944Y-98986183D01*
X213286183Y-98543944D01*
X213633648Y-98023926D01*
X213872986Y-97446113D01*
X213995000Y-96832710D01*
X213995000Y-96207290D01*
X213872986Y-95593887D01*
X213633648Y-95016074D01*
X213286183Y-94496056D01*
X212843944Y-94053817D01*
X212323926Y-93706352D01*
X211746113Y-93467014D01*
X211132710Y-93345000D01*
X210507290Y-93345000D01*
X209893887Y-93467014D01*
X209316074Y-93706352D01*
X208796056Y-94053817D01*
X208353817Y-94496056D01*
X208006352Y-95016074D01*
X207767014Y-95593887D01*
X207645000Y-96207290D01*
X174625000Y-96207290D01*
X174502986Y-95593887D01*
X174263648Y-95016074D01*
X173916183Y-94496056D01*
X173473944Y-94053817D01*
X172953926Y-93706352D01*
X172376113Y-93467014D01*
X171762710Y-93345000D01*
X171137290Y-93345000D01*
X170523887Y-93467014D01*
X169946074Y-93706352D01*
X169426056Y-94053817D01*
X168983817Y-94496056D01*
X168636352Y-95016074D01*
X168397014Y-95593887D01*
X168275000Y-96207290D01*
X138557000Y-96207290D01*
X138557000Y-89662258D01*
X165787347Y-89662258D01*
X166677672Y-90604611D01*
X168092983Y-91405282D01*
X169637302Y-91914455D01*
X171251282Y-92112562D01*
X172872899Y-91991990D01*
X174439835Y-91557374D01*
X175891872Y-90825414D01*
X176222328Y-90604611D01*
X177112653Y-89662258D01*
X171450000Y-83999605D01*
X165787347Y-89662258D01*
X138557000Y-89662258D01*
X138557000Y-83621282D01*
X163157438Y-83621282D01*
X163278010Y-85242899D01*
X163712626Y-86809835D01*
X164444586Y-88261872D01*
X164665389Y-88592328D01*
X165607742Y-89482653D01*
X171270395Y-83820000D01*
X171629605Y-83820000D01*
X177292258Y-89482653D01*
X178234611Y-88592328D01*
X179035282Y-87177017D01*
X179544455Y-85632698D01*
X179742562Y-84018718D01*
X179667335Y-83006954D01*
X202565000Y-83006954D01*
X202565000Y-84633046D01*
X202882235Y-86227895D01*
X203504514Y-87730209D01*
X204407923Y-89082255D01*
X205557745Y-90232077D01*
X206909791Y-91135486D01*
X208412105Y-91757765D01*
X210006954Y-92075000D01*
X211633046Y-92075000D01*
X213227895Y-91757765D01*
X214730209Y-91135486D01*
X216082255Y-90232077D01*
X217232077Y-89082255D01*
X218135486Y-87730209D01*
X218757765Y-86227895D01*
X219075000Y-84633046D01*
X219075000Y-83006954D01*
X218757765Y-81412105D01*
X218135486Y-79909791D01*
X217232077Y-78557745D01*
X216082255Y-77407923D01*
X214730209Y-76504514D01*
X213227895Y-75882235D01*
X211633046Y-75565000D01*
X210006954Y-75565000D01*
X208412105Y-75882235D01*
X206909791Y-76504514D01*
X205557745Y-77407923D01*
X204407923Y-78557745D01*
X203504514Y-79909791D01*
X202882235Y-81412105D01*
X202565000Y-83006954D01*
X179667335Y-83006954D01*
X179621990Y-82397101D01*
X179187374Y-80830165D01*
X178455414Y-79378128D01*
X178234611Y-79047672D01*
X177292258Y-78157347D01*
X171629605Y-83820000D01*
X171270395Y-83820000D01*
X165607742Y-78157347D01*
X164665389Y-79047672D01*
X163864718Y-80462983D01*
X163355545Y-82007302D01*
X163157438Y-83621282D01*
X138557000Y-83621282D01*
X138557000Y-77977742D01*
X165787347Y-77977742D01*
X171450000Y-83640395D01*
X177112653Y-77977742D01*
X176222328Y-77035389D01*
X174807017Y-76234718D01*
X173262698Y-75725545D01*
X171648718Y-75527438D01*
X170027101Y-75648010D01*
X168460165Y-76082626D01*
X167008128Y-76814586D01*
X166677672Y-77035389D01*
X165787347Y-77977742D01*
X138557000Y-77977742D01*
X138557000Y-63849040D01*
X267848091Y-63849040D01*
X267942930Y-64113881D01*
X268087615Y-64355131D01*
X268276586Y-64563519D01*
X268502580Y-64731037D01*
X268756913Y-64851246D01*
X268890961Y-64891904D01*
X269113000Y-64769915D01*
X269113000Y-63627000D01*
X269367000Y-63627000D01*
X269367000Y-64769915D01*
X269589039Y-64891904D01*
X269723087Y-64851246D01*
X269977420Y-64731037D01*
X270203414Y-64563519D01*
X270392385Y-64355131D01*
X270537070Y-64113881D01*
X270631909Y-63849040D01*
X270510624Y-63627000D01*
X269367000Y-63627000D01*
X269113000Y-63627000D01*
X267969376Y-63627000D01*
X267848091Y-63849040D01*
X138557000Y-63849040D01*
X138557000Y-63150960D01*
X267848091Y-63150960D01*
X267969376Y-63373000D01*
X269113000Y-63373000D01*
X269113000Y-62230085D01*
X269367000Y-62230085D01*
X269367000Y-63373000D01*
X270510624Y-63373000D01*
X270631909Y-63150960D01*
X270537070Y-62886119D01*
X270392385Y-62644869D01*
X270203414Y-62436481D01*
X269977420Y-62268963D01*
X269723087Y-62148754D01*
X269589039Y-62108096D01*
X269367000Y-62230085D01*
X269113000Y-62230085D01*
X268890961Y-62108096D01*
X268756913Y-62148754D01*
X268502580Y-62268963D01*
X268276586Y-62436481D01*
X268087615Y-62644869D01*
X267942930Y-62886119D01*
X267848091Y-63150960D01*
X138557000Y-63150960D01*
X138557000Y-53720435D01*
X166049871Y-53720435D01*
X166154644Y-54023344D01*
X166316499Y-54299992D01*
X166529215Y-54539748D01*
X166784618Y-54733399D01*
X167072893Y-54873502D01*
X167259566Y-54930124D01*
X167513000Y-54810777D01*
X167513000Y-53467000D01*
X167767000Y-53467000D01*
X167767000Y-54810777D01*
X168020434Y-54930124D01*
X168207107Y-54873502D01*
X168495382Y-54733399D01*
X168750785Y-54539748D01*
X168963501Y-54299992D01*
X169125356Y-54023344D01*
X169230129Y-53720435D01*
X169111315Y-53467000D01*
X167767000Y-53467000D01*
X167513000Y-53467000D01*
X166168685Y-53467000D01*
X166049871Y-53720435D01*
X138557000Y-53720435D01*
X138557000Y-52959565D01*
X166049871Y-52959565D01*
X166168685Y-53213000D01*
X167513000Y-53213000D01*
X167513000Y-51869223D01*
X167767000Y-51869223D01*
X167767000Y-53213000D01*
X169111315Y-53213000D01*
X169118035Y-53198665D01*
X267805000Y-53198665D01*
X267805000Y-53481335D01*
X267860147Y-53758574D01*
X267968320Y-54019727D01*
X268125363Y-54254759D01*
X268325241Y-54454637D01*
X268560273Y-54611680D01*
X268821426Y-54719853D01*
X269098665Y-54775000D01*
X269381335Y-54775000D01*
X269658574Y-54719853D01*
X269919727Y-54611680D01*
X270154759Y-54454637D01*
X270354637Y-54254759D01*
X270511680Y-54019727D01*
X270619853Y-53758574D01*
X270675000Y-53481335D01*
X270675000Y-53198665D01*
X270619853Y-52921426D01*
X270511680Y-52660273D01*
X270354637Y-52425241D01*
X270154759Y-52225363D01*
X269919727Y-52068320D01*
X269658574Y-51960147D01*
X269381335Y-51905000D01*
X269098665Y-51905000D01*
X268821426Y-51960147D01*
X268560273Y-52068320D01*
X268325241Y-52225363D01*
X268125363Y-52425241D01*
X267968320Y-52660273D01*
X267860147Y-52921426D01*
X267805000Y-53198665D01*
X169118035Y-53198665D01*
X169230129Y-52959565D01*
X169125356Y-52656656D01*
X168963501Y-52380008D01*
X168750785Y-52140252D01*
X168495382Y-51946601D01*
X168207107Y-51806498D01*
X168020434Y-51749876D01*
X167767000Y-51869223D01*
X167513000Y-51869223D01*
X167259566Y-51749876D01*
X167072893Y-51806498D01*
X166784618Y-51946601D01*
X166529215Y-52140252D01*
X166316499Y-52380008D01*
X166154644Y-52656656D01*
X166049871Y-52959565D01*
X138557000Y-52959565D01*
X138557000Y-51677980D01*
X141101626Y-51677980D01*
X141221514Y-51962836D01*
X141545210Y-52123699D01*
X141894069Y-52218322D01*
X142254684Y-52243067D01*
X142613198Y-52196985D01*
X142955833Y-52081846D01*
X143178486Y-51962836D01*
X143298374Y-51677980D01*
X142200000Y-50579605D01*
X141101626Y-51677980D01*
X138557000Y-51677980D01*
X138557000Y-50454684D01*
X140356933Y-50454684D01*
X140403015Y-50813198D01*
X140518154Y-51155833D01*
X140637164Y-51378486D01*
X140922020Y-51498374D01*
X142020395Y-50400000D01*
X142379605Y-50400000D01*
X143477980Y-51498374D01*
X143762836Y-51378486D01*
X143923699Y-51054790D01*
X144018322Y-50705931D01*
X144043067Y-50345316D01*
X143996985Y-49986802D01*
X143881846Y-49644167D01*
X143762836Y-49421514D01*
X143477980Y-49301626D01*
X142379605Y-50400000D01*
X142020395Y-50400000D01*
X140922020Y-49301626D01*
X140637164Y-49421514D01*
X140476301Y-49745210D01*
X140381678Y-50094069D01*
X140356933Y-50454684D01*
X138557000Y-50454684D01*
X138557000Y-49122020D01*
X141101626Y-49122020D01*
X142200000Y-50220395D01*
X143298374Y-49122020D01*
X143178486Y-48837164D01*
X142854790Y-48676301D01*
X142505931Y-48581678D01*
X142145316Y-48556933D01*
X141786802Y-48603015D01*
X141444167Y-48718154D01*
X141221514Y-48837164D01*
X141101626Y-49122020D01*
X138557000Y-49122020D01*
X138557000Y-47260000D01*
X166001928Y-47260000D01*
X166001928Y-49260000D01*
X166014188Y-49384482D01*
X166050498Y-49504180D01*
X166109463Y-49614494D01*
X166188815Y-49711185D01*
X166285506Y-49790537D01*
X166395820Y-49849502D01*
X166515518Y-49885812D01*
X166640000Y-49898072D01*
X168640000Y-49898072D01*
X168764482Y-49885812D01*
X168884180Y-49849502D01*
X168994494Y-49790537D01*
X169091185Y-49711185D01*
X169170537Y-49614494D01*
X169229502Y-49504180D01*
X169265812Y-49384482D01*
X169278072Y-49260000D01*
X169278072Y-47260000D01*
X169265812Y-47135518D01*
X169229502Y-47015820D01*
X169170537Y-46905506D01*
X169091185Y-46808815D01*
X168994494Y-46729463D01*
X168884180Y-46670498D01*
X168764482Y-46634188D01*
X168640000Y-46621928D01*
X166640000Y-46621928D01*
X166515518Y-46634188D01*
X166395820Y-46670498D01*
X166285506Y-46729463D01*
X166188815Y-46808815D01*
X166109463Y-46905506D01*
X166050498Y-47015820D01*
X166014188Y-47135518D01*
X166001928Y-47260000D01*
X138557000Y-47260000D01*
X138557000Y-37958665D01*
X267805000Y-37958665D01*
X267805000Y-38241335D01*
X267860147Y-38518574D01*
X267968320Y-38779727D01*
X268125363Y-39014759D01*
X268325241Y-39214637D01*
X268560273Y-39371680D01*
X268821426Y-39479853D01*
X269098665Y-39535000D01*
X269381335Y-39535000D01*
X269658574Y-39479853D01*
X269919727Y-39371680D01*
X270154759Y-39214637D01*
X270354637Y-39014759D01*
X270511680Y-38779727D01*
X270619853Y-38518574D01*
X270675000Y-38241335D01*
X270675000Y-37958665D01*
X270619853Y-37681426D01*
X270511680Y-37420273D01*
X270354637Y-37185241D01*
X270154759Y-36985363D01*
X269919727Y-36828320D01*
X269658574Y-36720147D01*
X269381335Y-36665000D01*
X269098665Y-36665000D01*
X268821426Y-36720147D01*
X268560273Y-36828320D01*
X268325241Y-36985363D01*
X268125363Y-37185241D01*
X267968320Y-37420273D01*
X267860147Y-37681426D01*
X267805000Y-37958665D01*
X138557000Y-37958665D01*
X138557000Y-36615413D01*
X242884192Y-36615413D01*
X242979956Y-36879814D01*
X243269571Y-37020704D01*
X243581108Y-37102384D01*
X243902595Y-37121718D01*
X244221675Y-37077961D01*
X244526088Y-36972795D01*
X244700044Y-36879814D01*
X244795808Y-36615413D01*
X243840000Y-35659605D01*
X242884192Y-36615413D01*
X138557000Y-36615413D01*
X138557000Y-30219268D01*
X140365000Y-30219268D01*
X140365000Y-30580732D01*
X140435518Y-30935250D01*
X140573844Y-31269199D01*
X140774662Y-31569744D01*
X141030256Y-31825338D01*
X141330801Y-32026156D01*
X141664750Y-32164482D01*
X142019268Y-32235000D01*
X142380732Y-32235000D01*
X142735250Y-32164482D01*
X143069199Y-32026156D01*
X143369744Y-31825338D01*
X143625338Y-31569744D01*
X143826156Y-31269199D01*
X143964482Y-30935250D01*
X144035000Y-30580732D01*
X144035000Y-30219268D01*
X143964482Y-29864750D01*
X143826156Y-29530801D01*
X143625338Y-29230256D01*
X143369744Y-28974662D01*
X143069199Y-28773844D01*
X142735250Y-28635518D01*
X142380732Y-28565000D01*
X142019268Y-28565000D01*
X141664750Y-28635518D01*
X141330801Y-28773844D01*
X141030256Y-28974662D01*
X140774662Y-29230256D01*
X140573844Y-29530801D01*
X140435518Y-29864750D01*
X140365000Y-30219268D01*
X138557000Y-30219268D01*
X138557000Y-27778967D01*
X150765000Y-27778967D01*
X150765000Y-28101033D01*
X150827832Y-28416912D01*
X150951082Y-28714463D01*
X151130013Y-28982252D01*
X151357748Y-29209987D01*
X151625537Y-29388918D01*
X151923088Y-29512168D01*
X152238967Y-29575000D01*
X152561033Y-29575000D01*
X152876912Y-29512168D01*
X153174463Y-29388918D01*
X153442252Y-29209987D01*
X153669987Y-28982252D01*
X153848918Y-28714463D01*
X153972168Y-28416912D01*
X154035000Y-28101033D01*
X154035000Y-27778967D01*
X153972168Y-27463088D01*
X153848918Y-27165537D01*
X153698219Y-26940000D01*
X155841928Y-26940000D01*
X155841928Y-28940000D01*
X155854188Y-29064482D01*
X155890498Y-29184180D01*
X155949463Y-29294494D01*
X156028815Y-29391185D01*
X156125506Y-29470537D01*
X156235820Y-29529502D01*
X156355518Y-29565812D01*
X156480000Y-29578072D01*
X158480000Y-29578072D01*
X158604482Y-29565812D01*
X158724180Y-29529502D01*
X158834494Y-29470537D01*
X158931185Y-29391185D01*
X159010537Y-29294494D01*
X159069502Y-29184180D01*
X159105812Y-29064482D01*
X159118072Y-28940000D01*
X159118072Y-27188018D01*
X178345000Y-27188018D01*
X178345000Y-28691982D01*
X178638408Y-30167047D01*
X179213950Y-31556529D01*
X180049508Y-32807029D01*
X181112971Y-33870492D01*
X182363471Y-34706050D01*
X183752953Y-35281592D01*
X185228018Y-35575000D01*
X186731982Y-35575000D01*
X188207047Y-35281592D01*
X189596529Y-34706050D01*
X190847029Y-33870492D01*
X191910492Y-32807029D01*
X192746050Y-31556529D01*
X193321592Y-30167047D01*
X193615000Y-28691982D01*
X193615000Y-27188018D01*
X213345000Y-27188018D01*
X213345000Y-28691982D01*
X213638408Y-30167047D01*
X214213950Y-31556529D01*
X215049508Y-32807029D01*
X216112971Y-33870492D01*
X217363471Y-34706050D01*
X218752953Y-35281592D01*
X220228018Y-35575000D01*
X221731982Y-35575000D01*
X221894893Y-35542595D01*
X242198282Y-35542595D01*
X242242039Y-35861675D01*
X242347205Y-36166088D01*
X242440186Y-36340044D01*
X242704587Y-36435808D01*
X243660395Y-35480000D01*
X244019605Y-35480000D01*
X244975413Y-36435808D01*
X245239814Y-36340044D01*
X245380704Y-36050429D01*
X245462384Y-35738892D01*
X245481718Y-35417405D01*
X245437961Y-35098325D01*
X245332795Y-34793912D01*
X245239814Y-34619956D01*
X244975413Y-34524192D01*
X244019605Y-35480000D01*
X243660395Y-35480000D01*
X242704587Y-34524192D01*
X242440186Y-34619956D01*
X242299296Y-34909571D01*
X242217616Y-35221108D01*
X242198282Y-35542595D01*
X221894893Y-35542595D01*
X223207047Y-35281592D01*
X224596529Y-34706050D01*
X225137496Y-34344587D01*
X242884192Y-34344587D01*
X243840000Y-35300395D01*
X244795808Y-34344587D01*
X244700044Y-34080186D01*
X244410429Y-33939296D01*
X244098892Y-33857616D01*
X243777405Y-33838282D01*
X243458325Y-33882039D01*
X243153912Y-33987205D01*
X242979956Y-34080186D01*
X242884192Y-34344587D01*
X225137496Y-34344587D01*
X225847029Y-33870492D01*
X226910492Y-32807029D01*
X227746050Y-31556529D01*
X228321592Y-30167047D01*
X228458253Y-29480000D01*
X242201928Y-29480000D01*
X242201928Y-31480000D01*
X242214188Y-31604482D01*
X242250498Y-31724180D01*
X242309463Y-31834494D01*
X242388815Y-31931185D01*
X242485506Y-32010537D01*
X242595820Y-32069502D01*
X242715518Y-32105812D01*
X242840000Y-32118072D01*
X244840000Y-32118072D01*
X244964482Y-32105812D01*
X245084180Y-32069502D01*
X245194494Y-32010537D01*
X245291185Y-31931185D01*
X245370537Y-31834494D01*
X245429502Y-31724180D01*
X245465812Y-31604482D01*
X245478072Y-31480000D01*
X245478072Y-29480000D01*
X245465812Y-29355518D01*
X245429502Y-29235820D01*
X245370537Y-29125506D01*
X245291185Y-29028815D01*
X245194494Y-28949463D01*
X245084180Y-28890498D01*
X244964482Y-28854188D01*
X244840000Y-28841928D01*
X242840000Y-28841928D01*
X242715518Y-28854188D01*
X242595820Y-28890498D01*
X242485506Y-28949463D01*
X242388815Y-29028815D01*
X242309463Y-29125506D01*
X242250498Y-29235820D01*
X242214188Y-29355518D01*
X242201928Y-29480000D01*
X228458253Y-29480000D01*
X228615000Y-28691982D01*
X228615000Y-27798665D01*
X267805000Y-27798665D01*
X267805000Y-28081335D01*
X267860147Y-28358574D01*
X267968320Y-28619727D01*
X268125363Y-28854759D01*
X268325241Y-29054637D01*
X268560273Y-29211680D01*
X268821426Y-29319853D01*
X269098665Y-29375000D01*
X269381335Y-29375000D01*
X269658574Y-29319853D01*
X269919727Y-29211680D01*
X270154759Y-29054637D01*
X270354637Y-28854759D01*
X270511680Y-28619727D01*
X270619853Y-28358574D01*
X270675000Y-28081335D01*
X270675000Y-27798665D01*
X270619853Y-27521426D01*
X270511680Y-27260273D01*
X270354637Y-27025241D01*
X270154759Y-26825363D01*
X269919727Y-26668320D01*
X269658574Y-26560147D01*
X269381335Y-26505000D01*
X269098665Y-26505000D01*
X268821426Y-26560147D01*
X268560273Y-26668320D01*
X268325241Y-26825363D01*
X268125363Y-27025241D01*
X267968320Y-27260273D01*
X267860147Y-27521426D01*
X267805000Y-27798665D01*
X228615000Y-27798665D01*
X228615000Y-27188018D01*
X228321592Y-25712953D01*
X227746050Y-24323471D01*
X226910492Y-23072971D01*
X225847029Y-22009508D01*
X224596529Y-21173950D01*
X223207047Y-20598408D01*
X221731982Y-20305000D01*
X220228018Y-20305000D01*
X218752953Y-20598408D01*
X217363471Y-21173950D01*
X216112971Y-22009508D01*
X215049508Y-23072971D01*
X214213950Y-24323471D01*
X213638408Y-25712953D01*
X213345000Y-27188018D01*
X193615000Y-27188018D01*
X193321592Y-25712953D01*
X192746050Y-24323471D01*
X191910492Y-23072971D01*
X190847029Y-22009508D01*
X189596529Y-21173950D01*
X188207047Y-20598408D01*
X186731982Y-20305000D01*
X185228018Y-20305000D01*
X183752953Y-20598408D01*
X182363471Y-21173950D01*
X181112971Y-22009508D01*
X180049508Y-23072971D01*
X179213950Y-24323471D01*
X178638408Y-25712953D01*
X178345000Y-27188018D01*
X159118072Y-27188018D01*
X159118072Y-26940000D01*
X159105812Y-26815518D01*
X159069502Y-26695820D01*
X159010537Y-26585506D01*
X158931185Y-26488815D01*
X158834494Y-26409463D01*
X158724180Y-26350498D01*
X158604482Y-26314188D01*
X158480000Y-26301928D01*
X156480000Y-26301928D01*
X156355518Y-26314188D01*
X156235820Y-26350498D01*
X156125506Y-26409463D01*
X156028815Y-26488815D01*
X155949463Y-26585506D01*
X155890498Y-26695820D01*
X155854188Y-26815518D01*
X155841928Y-26940000D01*
X153698219Y-26940000D01*
X153669987Y-26897748D01*
X153442252Y-26670013D01*
X153174463Y-26491082D01*
X152876912Y-26367832D01*
X152561033Y-26305000D01*
X152238967Y-26305000D01*
X151923088Y-26367832D01*
X151625537Y-26491082D01*
X151357748Y-26670013D01*
X151130013Y-26897748D01*
X150951082Y-27165537D01*
X150827832Y-27463088D01*
X150765000Y-27778967D01*
X138557000Y-27778967D01*
X138557000Y-19177000D01*
X274193000Y-19177000D01*
X274193000Y-102743000D01*
G36*
X75188698Y-53507988D02*
G01*
X74839017Y-53741637D01*
X74541637Y-54039017D01*
X74307988Y-54388698D01*
X74147047Y-54777244D01*
X74065000Y-55189721D01*
X74065000Y-55610279D01*
X74147047Y-56022756D01*
X74307988Y-56411302D01*
X74541637Y-56760983D01*
X74839017Y-57058363D01*
X75188698Y-57292012D01*
X75577244Y-57452953D01*
X75989721Y-57535000D01*
X76410279Y-57535000D01*
X76822756Y-57452953D01*
X77211302Y-57292012D01*
X77560983Y-57058363D01*
X77858363Y-56760983D01*
X78092012Y-56411302D01*
X78252953Y-56022756D01*
X78335000Y-55610279D01*
X78335000Y-55189721D01*
X78252953Y-54777244D01*
X78092012Y-54388698D01*
X77858363Y-54039017D01*
X77560983Y-53741637D01*
X77211302Y-53507988D01*
X77112348Y-53467000D01*
X95123000Y-53467000D01*
X95123000Y-121793000D01*
X-21463000Y-121793000D01*
X-21463000Y-117895413D01*
X9204192Y-117895413D01*
X9299956Y-118159814D01*
X9589571Y-118300704D01*
X9901108Y-118382384D01*
X10222595Y-118401718D01*
X10541675Y-118357961D01*
X10846088Y-118252795D01*
X11020044Y-118159814D01*
X11115808Y-117895413D01*
X10160000Y-116939605D01*
X9204192Y-117895413D01*
X-21463000Y-117895413D01*
X-21463000Y-116822595D01*
X8518282Y-116822595D01*
X8562039Y-117141675D01*
X8667205Y-117446088D01*
X8760186Y-117620044D01*
X9024587Y-117715808D01*
X9980395Y-116760000D01*
X10339605Y-116760000D01*
X11295413Y-117715808D01*
X11559814Y-117620044D01*
X11700704Y-117330429D01*
X11782384Y-117018892D01*
X11801718Y-116697405D01*
X11757961Y-116378325D01*
X11652795Y-116073912D01*
X11559814Y-115899956D01*
X11295413Y-115804192D01*
X10339605Y-116760000D01*
X9980395Y-116760000D01*
X9024587Y-115804192D01*
X8760186Y-115899956D01*
X8619296Y-116189571D01*
X8537616Y-116501108D01*
X8518282Y-116822595D01*
X-21463000Y-116822595D01*
X-21463000Y-115624587D01*
X9204192Y-115624587D01*
X10160000Y-116580395D01*
X11115808Y-115624587D01*
X11020044Y-115360186D01*
X10730429Y-115219296D01*
X10418892Y-115137616D01*
X10097405Y-115118282D01*
X9778325Y-115162039D01*
X9473912Y-115267205D01*
X9299956Y-115360186D01*
X9204192Y-115624587D01*
X-21463000Y-115624587D01*
X-21463000Y-110760000D01*
X8521928Y-110760000D01*
X8521928Y-112760000D01*
X8534188Y-112884482D01*
X8570498Y-113004180D01*
X8629463Y-113114494D01*
X8708815Y-113211185D01*
X8805506Y-113290537D01*
X8915820Y-113349502D01*
X9035518Y-113385812D01*
X9160000Y-113398072D01*
X11160000Y-113398072D01*
X11284482Y-113385812D01*
X11404180Y-113349502D01*
X11514494Y-113290537D01*
X11611185Y-113211185D01*
X11690537Y-113114494D01*
X11749502Y-113004180D01*
X11785812Y-112884482D01*
X11798072Y-112760000D01*
X11798072Y-110760000D01*
X11785812Y-110635518D01*
X11749502Y-110515820D01*
X11690537Y-110405506D01*
X11611185Y-110308815D01*
X11514494Y-110229463D01*
X11404180Y-110170498D01*
X11284482Y-110134188D01*
X11160000Y-110121928D01*
X9160000Y-110121928D01*
X9035518Y-110134188D01*
X8915820Y-110170498D01*
X8805506Y-110229463D01*
X8708815Y-110308815D01*
X8629463Y-110405506D01*
X8570498Y-110515820D01*
X8534188Y-110635518D01*
X8521928Y-110760000D01*
X-21463000Y-110760000D01*
X-21463000Y-109569040D01*
X54488091Y-109569040D01*
X54582930Y-109833881D01*
X54727615Y-110075131D01*
X54916586Y-110283519D01*
X55142580Y-110451037D01*
X55396913Y-110571246D01*
X55530961Y-110611904D01*
X55753000Y-110489915D01*
X55753000Y-109347000D01*
X56007000Y-109347000D01*
X56007000Y-110489915D01*
X56229039Y-110611904D01*
X56363087Y-110571246D01*
X56617420Y-110451037D01*
X56843414Y-110283519D01*
X57032385Y-110075131D01*
X57177070Y-109833881D01*
X57271909Y-109569040D01*
X57150624Y-109347000D01*
X56007000Y-109347000D01*
X55753000Y-109347000D01*
X54609376Y-109347000D01*
X54488091Y-109569040D01*
X-21463000Y-109569040D01*
X-21463000Y-108870960D01*
X54488091Y-108870960D01*
X54609376Y-109093000D01*
X55753000Y-109093000D01*
X55753000Y-107950085D01*
X56007000Y-107950085D01*
X56007000Y-109093000D01*
X57150624Y-109093000D01*
X57271909Y-108870960D01*
X57177070Y-108606119D01*
X57032385Y-108364869D01*
X56843414Y-108156481D01*
X56617420Y-107988963D01*
X56363087Y-107868754D01*
X56229039Y-107828096D01*
X56007000Y-107950085D01*
X55753000Y-107950085D01*
X55530961Y-107828096D01*
X55396913Y-107868754D01*
X55142580Y-107988963D01*
X54916586Y-108156481D01*
X54727615Y-108364869D01*
X54582930Y-108606119D01*
X54488091Y-108870960D01*
X-21463000Y-108870960D01*
X-21463000Y-98918665D01*
X8725000Y-98918665D01*
X8725000Y-99201335D01*
X8780147Y-99478574D01*
X8888320Y-99739727D01*
X9045363Y-99974759D01*
X9245241Y-100174637D01*
X9480273Y-100331680D01*
X9741426Y-100439853D01*
X10018665Y-100495000D01*
X10301335Y-100495000D01*
X10578574Y-100439853D01*
X10839727Y-100331680D01*
X11074759Y-100174637D01*
X11274637Y-99974759D01*
X11431680Y-99739727D01*
X11539853Y-99478574D01*
X11595000Y-99201335D01*
X11595000Y-98918665D01*
X54445000Y-98918665D01*
X54445000Y-99201335D01*
X54500147Y-99478574D01*
X54608320Y-99739727D01*
X54765363Y-99974759D01*
X54965241Y-100174637D01*
X55200273Y-100331680D01*
X55461426Y-100439853D01*
X55738665Y-100495000D01*
X56021335Y-100495000D01*
X56298574Y-100439853D01*
X56559727Y-100331680D01*
X56794759Y-100174637D01*
X56994637Y-99974759D01*
X57151680Y-99739727D01*
X57259853Y-99478574D01*
X57315000Y-99201335D01*
X57315000Y-98918665D01*
X57259853Y-98641426D01*
X57151680Y-98380273D01*
X56994637Y-98145241D01*
X56794759Y-97945363D01*
X56559727Y-97788320D01*
X56298574Y-97680147D01*
X56021335Y-97625000D01*
X55738665Y-97625000D01*
X55461426Y-97680147D01*
X55200273Y-97788320D01*
X54965241Y-97945363D01*
X54765363Y-98145241D01*
X54608320Y-98380273D01*
X54500147Y-98641426D01*
X54445000Y-98918665D01*
X11595000Y-98918665D01*
X11539853Y-98641426D01*
X11431680Y-98380273D01*
X11274637Y-98145241D01*
X11074759Y-97945363D01*
X10839727Y-97788320D01*
X10578574Y-97680147D01*
X10301335Y-97625000D01*
X10018665Y-97625000D01*
X9741426Y-97680147D01*
X9480273Y-97788320D01*
X9245241Y-97945363D01*
X9045363Y-98145241D01*
X8888320Y-98380273D01*
X8780147Y-98641426D01*
X8725000Y-98918665D01*
X-21463000Y-98918665D01*
X-21463000Y-97575413D01*
X-3495808Y-97575413D01*
X-3400044Y-97839814D01*
X-3110429Y-97980704D01*
X-2798892Y-98062384D01*
X-2477405Y-98081718D01*
X-2158325Y-98037961D01*
X-1853912Y-97932795D01*
X-1679956Y-97839814D01*
X-1584192Y-97575413D01*
X-2540000Y-96619605D01*
X-3495808Y-97575413D01*
X-21463000Y-97575413D01*
X-21463000Y-96502595D01*
X-4181718Y-96502595D01*
X-4137961Y-96821675D01*
X-4032795Y-97126088D01*
X-3939814Y-97300044D01*
X-3675413Y-97395808D01*
X-2719605Y-96440000D01*
X-2360395Y-96440000D01*
X-1404587Y-97395808D01*
X-1140186Y-97300044D01*
X-999296Y-97010429D01*
X-917616Y-96698892D01*
X-898282Y-96377405D01*
X-942039Y-96058325D01*
X-1047205Y-95753912D01*
X-1140186Y-95579956D01*
X-1404587Y-95484192D01*
X-2360395Y-96440000D01*
X-2719605Y-96440000D01*
X-3675413Y-95484192D01*
X-3939814Y-95579956D01*
X-4080704Y-95869571D01*
X-4162384Y-96181108D01*
X-4181718Y-96502595D01*
X-21463000Y-96502595D01*
X-21463000Y-95304587D01*
X-3495808Y-95304587D01*
X-2540000Y-96260395D01*
X-1584192Y-95304587D01*
X-1679956Y-95040186D01*
X-1969571Y-94899296D01*
X-2281108Y-94817616D01*
X-2602595Y-94798282D01*
X-2921675Y-94842039D01*
X-3226088Y-94947205D01*
X-3400044Y-95040186D01*
X-3495808Y-95304587D01*
X-21463000Y-95304587D01*
X-21463000Y-90440000D01*
X-4178072Y-90440000D01*
X-4178072Y-92440000D01*
X-4165812Y-92564482D01*
X-4129502Y-92684180D01*
X-4070537Y-92794494D01*
X-3991185Y-92891185D01*
X-3894494Y-92970537D01*
X-3784180Y-93029502D01*
X-3664482Y-93065812D01*
X-3540000Y-93078072D01*
X-1540000Y-93078072D01*
X-1415518Y-93065812D01*
X-1295820Y-93029502D01*
X-1185506Y-92970537D01*
X-1088815Y-92891185D01*
X-1009463Y-92794494D01*
X-950498Y-92684180D01*
X-914188Y-92564482D01*
X-901928Y-92440000D01*
X-901928Y-90440000D01*
X-914188Y-90315518D01*
X-950498Y-90195820D01*
X-1009463Y-90085506D01*
X-1088815Y-89988815D01*
X-1185506Y-89909463D01*
X-1295820Y-89850498D01*
X-1415518Y-89814188D01*
X-1540000Y-89801928D01*
X-3540000Y-89801928D01*
X-3664482Y-89814188D01*
X-3784180Y-89850498D01*
X-3894494Y-89909463D01*
X-3991185Y-89988815D01*
X-4070537Y-90085506D01*
X-4129502Y-90195820D01*
X-4165812Y-90315518D01*
X-4178072Y-90440000D01*
X-21463000Y-90440000D01*
X-21463000Y-88758665D01*
X8725000Y-88758665D01*
X8725000Y-89041335D01*
X8780147Y-89318574D01*
X8888320Y-89579727D01*
X9045363Y-89814759D01*
X9245241Y-90014637D01*
X9480273Y-90171680D01*
X9741426Y-90279853D01*
X10018665Y-90335000D01*
X10301335Y-90335000D01*
X10578574Y-90279853D01*
X10839727Y-90171680D01*
X11074759Y-90014637D01*
X11274637Y-89814759D01*
X11431680Y-89579727D01*
X11539853Y-89318574D01*
X11553684Y-89249040D01*
X39248091Y-89249040D01*
X39342930Y-89513881D01*
X39487615Y-89755131D01*
X39676586Y-89963519D01*
X39902580Y-90131037D01*
X40156913Y-90251246D01*
X40290961Y-90291904D01*
X40513000Y-90169915D01*
X40513000Y-89027000D01*
X40767000Y-89027000D01*
X40767000Y-90169915D01*
X40989039Y-90291904D01*
X41123087Y-90251246D01*
X41294983Y-90170000D01*
X54237319Y-90170000D01*
X54267970Y-90481204D01*
X54358745Y-90780449D01*
X54506155Y-91056235D01*
X54704537Y-91297963D01*
X54877609Y-91440000D01*
X54704537Y-91582037D01*
X54506155Y-91823765D01*
X54358745Y-92099551D01*
X54267970Y-92398796D01*
X54237319Y-92710000D01*
X54267970Y-93021204D01*
X54358745Y-93320449D01*
X54506155Y-93596235D01*
X54704537Y-93837963D01*
X54946265Y-94036345D01*
X55222051Y-94183755D01*
X55521296Y-94274530D01*
X55754514Y-94297500D01*
X56005486Y-94297500D01*
X56238704Y-94274530D01*
X56537949Y-94183755D01*
X56813735Y-94036345D01*
X57055463Y-93837963D01*
X57253845Y-93596235D01*
X57401255Y-93320449D01*
X57492030Y-93021204D01*
X57522681Y-92710000D01*
X57492030Y-92398796D01*
X57401255Y-92099551D01*
X57253845Y-91823765D01*
X57055463Y-91582037D01*
X56882391Y-91440000D01*
X57055463Y-91297963D01*
X57253845Y-91056235D01*
X57401255Y-90780449D01*
X57492030Y-90481204D01*
X57522681Y-90170000D01*
X57492030Y-89858796D01*
X57401255Y-89559551D01*
X57253845Y-89283765D01*
X57150554Y-89157905D01*
X57234494Y-89113037D01*
X57331185Y-89033685D01*
X57410537Y-88936994D01*
X57469502Y-88826680D01*
X57505812Y-88706982D01*
X57518072Y-88582500D01*
X57518072Y-86677500D01*
X57505812Y-86553018D01*
X57469502Y-86433320D01*
X57410537Y-86323006D01*
X57331185Y-86226315D01*
X57234494Y-86146963D01*
X57124180Y-86087998D01*
X57004482Y-86051688D01*
X56880000Y-86039428D01*
X54880000Y-86039428D01*
X54755518Y-86051688D01*
X54635820Y-86087998D01*
X54525506Y-86146963D01*
X54428815Y-86226315D01*
X54349463Y-86323006D01*
X54290498Y-86433320D01*
X54254188Y-86553018D01*
X54241928Y-86677500D01*
X54241928Y-88582500D01*
X54254188Y-88706982D01*
X54290498Y-88826680D01*
X54349463Y-88936994D01*
X54428815Y-89033685D01*
X54525506Y-89113037D01*
X54609446Y-89157905D01*
X54506155Y-89283765D01*
X54358745Y-89559551D01*
X54267970Y-89858796D01*
X54237319Y-90170000D01*
X41294983Y-90170000D01*
X41377420Y-90131037D01*
X41603414Y-89963519D01*
X41792385Y-89755131D01*
X41937070Y-89513881D01*
X42031909Y-89249040D01*
X41910624Y-89027000D01*
X40767000Y-89027000D01*
X40513000Y-89027000D01*
X39369376Y-89027000D01*
X39248091Y-89249040D01*
X11553684Y-89249040D01*
X11595000Y-89041335D01*
X11595000Y-88758665D01*
X11553685Y-88550960D01*
X39248091Y-88550960D01*
X39369376Y-88773000D01*
X40513000Y-88773000D01*
X40513000Y-87630085D01*
X40767000Y-87630085D01*
X40767000Y-88773000D01*
X41910624Y-88773000D01*
X42031909Y-88550960D01*
X41937070Y-88286119D01*
X41792385Y-88044869D01*
X41603414Y-87836481D01*
X41377420Y-87668963D01*
X41123087Y-87548754D01*
X40989039Y-87508096D01*
X40767000Y-87630085D01*
X40513000Y-87630085D01*
X40290961Y-87508096D01*
X40156913Y-87548754D01*
X39902580Y-87668963D01*
X39676586Y-87836481D01*
X39487615Y-88044869D01*
X39342930Y-88286119D01*
X39248091Y-88550960D01*
X11553685Y-88550960D01*
X11539853Y-88481426D01*
X11431680Y-88220273D01*
X11274637Y-87985241D01*
X11074759Y-87785363D01*
X10839727Y-87628320D01*
X10578574Y-87520147D01*
X10301335Y-87465000D01*
X10018665Y-87465000D01*
X9741426Y-87520147D01*
X9480273Y-87628320D01*
X9245241Y-87785363D01*
X9045363Y-87985241D01*
X8888320Y-88220273D01*
X8780147Y-88481426D01*
X8725000Y-88758665D01*
X-21463000Y-88758665D01*
X-21463000Y-81065413D01*
X61274192Y-81065413D01*
X61369956Y-81329814D01*
X61659571Y-81470704D01*
X61971108Y-81552384D01*
X62292595Y-81571718D01*
X62611675Y-81527961D01*
X62916088Y-81422795D01*
X63090044Y-81329814D01*
X63185808Y-81065413D01*
X62230000Y-80109605D01*
X61274192Y-81065413D01*
X-21463000Y-81065413D01*
X-21463000Y-79875413D01*
X25794192Y-79875413D01*
X25889956Y-80139814D01*
X26179571Y-80280704D01*
X26491108Y-80362384D01*
X26812595Y-80381718D01*
X27131675Y-80337961D01*
X27436088Y-80232795D01*
X27610044Y-80139814D01*
X27705808Y-79875413D01*
X26750000Y-78919605D01*
X25794192Y-79875413D01*
X-21463000Y-79875413D01*
X-21463000Y-78802595D01*
X25108282Y-78802595D01*
X25152039Y-79121675D01*
X25257205Y-79426088D01*
X25350186Y-79600044D01*
X25614587Y-79695808D01*
X26570395Y-78740000D01*
X26929605Y-78740000D01*
X27885413Y-79695808D01*
X28149814Y-79600044D01*
X28290704Y-79310429D01*
X28372384Y-78998892D01*
X28391718Y-78677405D01*
X28347961Y-78358325D01*
X28242795Y-78053912D01*
X28149814Y-77879956D01*
X27885413Y-77784192D01*
X26929605Y-78740000D01*
X26570395Y-78740000D01*
X25614587Y-77784192D01*
X25350186Y-77879956D01*
X25209296Y-78169571D01*
X25127616Y-78481108D01*
X25108282Y-78802595D01*
X-21463000Y-78802595D01*
X-21463000Y-77604587D01*
X25794192Y-77604587D01*
X26750000Y-78560395D01*
X27570395Y-77740000D01*
X30111928Y-77740000D01*
X30111928Y-79740000D01*
X30124188Y-79864482D01*
X30160498Y-79984180D01*
X30219463Y-80094494D01*
X30298815Y-80191185D01*
X30395506Y-80270537D01*
X30505820Y-80329502D01*
X30625518Y-80365812D01*
X30750000Y-80378072D01*
X32750000Y-80378072D01*
X32874482Y-80365812D01*
X32994180Y-80329502D01*
X33104494Y-80270537D01*
X33201185Y-80191185D01*
X33280537Y-80094494D01*
X33339502Y-79984180D01*
X33375812Y-79864482D01*
X33388072Y-79740000D01*
X33388072Y-78598665D01*
X39205000Y-78598665D01*
X39205000Y-78881335D01*
X39260147Y-79158574D01*
X39368320Y-79419727D01*
X39525363Y-79654759D01*
X39725241Y-79854637D01*
X39960273Y-80011680D01*
X40221426Y-80119853D01*
X40498665Y-80175000D01*
X40781335Y-80175000D01*
X41058574Y-80119853D01*
X41319727Y-80011680D01*
X41348289Y-79992595D01*
X60588282Y-79992595D01*
X60632039Y-80311675D01*
X60737205Y-80616088D01*
X60830186Y-80790044D01*
X61094587Y-80885808D01*
X62050395Y-79930000D01*
X62409605Y-79930000D01*
X63365413Y-80885808D01*
X63629814Y-80790044D01*
X63770704Y-80500429D01*
X63852384Y-80188892D01*
X63871718Y-79867405D01*
X63827961Y-79548325D01*
X63722795Y-79243912D01*
X63629814Y-79069956D01*
X63365413Y-78974192D01*
X62409605Y-79930000D01*
X62050395Y-79930000D01*
X61094587Y-78974192D01*
X60830186Y-79069956D01*
X60689296Y-79359571D01*
X60607616Y-79671108D01*
X60588282Y-79992595D01*
X41348289Y-79992595D01*
X41554759Y-79854637D01*
X41754637Y-79654759D01*
X41911680Y-79419727D01*
X42019853Y-79158574D01*
X42075000Y-78881335D01*
X42075000Y-78794587D01*
X61274192Y-78794587D01*
X62230000Y-79750395D01*
X63185808Y-78794587D01*
X63090044Y-78530186D01*
X62800429Y-78389296D01*
X62488892Y-78307616D01*
X62167405Y-78288282D01*
X61848325Y-78332039D01*
X61543912Y-78437205D01*
X61369956Y-78530186D01*
X61274192Y-78794587D01*
X42075000Y-78794587D01*
X42075000Y-78598665D01*
X42019853Y-78321426D01*
X41911680Y-78060273D01*
X41754637Y-77825241D01*
X41554759Y-77625363D01*
X41319727Y-77468320D01*
X41058574Y-77360147D01*
X40781335Y-77305000D01*
X40498665Y-77305000D01*
X40221426Y-77360147D01*
X39960273Y-77468320D01*
X39725241Y-77625363D01*
X39525363Y-77825241D01*
X39368320Y-78060273D01*
X39260147Y-78321426D01*
X39205000Y-78598665D01*
X33388072Y-78598665D01*
X33388072Y-77740000D01*
X33375812Y-77615518D01*
X33339502Y-77495820D01*
X33280537Y-77385506D01*
X33201185Y-77288815D01*
X33104494Y-77209463D01*
X33073137Y-77192702D01*
X72846903Y-77192702D01*
X72918486Y-77436671D01*
X73173996Y-77557571D01*
X73448184Y-77626300D01*
X73730512Y-77640217D01*
X74010130Y-77598787D01*
X74276292Y-77503603D01*
X74401514Y-77436671D01*
X74473097Y-77192702D01*
X73660000Y-76379605D01*
X72846903Y-77192702D01*
X33073137Y-77192702D01*
X32994180Y-77150498D01*
X32874482Y-77114188D01*
X32750000Y-77101928D01*
X30750000Y-77101928D01*
X30625518Y-77114188D01*
X30505820Y-77150498D01*
X30395506Y-77209463D01*
X30298815Y-77288815D01*
X30219463Y-77385506D01*
X30160498Y-77495820D01*
X30124188Y-77615518D01*
X30111928Y-77740000D01*
X27570395Y-77740000D01*
X27705808Y-77604587D01*
X27610044Y-77340186D01*
X27320429Y-77199296D01*
X27008892Y-77117616D01*
X26687405Y-77098282D01*
X26368325Y-77142039D01*
X26063912Y-77247205D01*
X25889956Y-77340186D01*
X25794192Y-77604587D01*
X-21463000Y-77604587D01*
X-21463000Y-73930000D01*
X60591928Y-73930000D01*
X60591928Y-75930000D01*
X60604188Y-76054482D01*
X60640498Y-76174180D01*
X60699463Y-76284494D01*
X60778815Y-76381185D01*
X60875506Y-76460537D01*
X60985820Y-76519502D01*
X61105518Y-76555812D01*
X61230000Y-76568072D01*
X63230000Y-76568072D01*
X63354482Y-76555812D01*
X63474180Y-76519502D01*
X63584494Y-76460537D01*
X63681185Y-76381185D01*
X63760537Y-76284494D01*
X63768010Y-76270512D01*
X72219783Y-76270512D01*
X72261213Y-76550130D01*
X72356397Y-76816292D01*
X72423329Y-76941514D01*
X72667298Y-77013097D01*
X73480395Y-76200000D01*
X73839605Y-76200000D01*
X74652702Y-77013097D01*
X74896671Y-76941514D01*
X75017571Y-76686004D01*
X75044033Y-76580435D01*
X82229871Y-76580435D01*
X82334644Y-76883344D01*
X82496499Y-77159992D01*
X82709215Y-77399748D01*
X82964618Y-77593399D01*
X83252893Y-77733502D01*
X83439566Y-77790124D01*
X83693000Y-77670777D01*
X83693000Y-76327000D01*
X83947000Y-76327000D01*
X83947000Y-77670777D01*
X84200434Y-77790124D01*
X84387107Y-77733502D01*
X84675382Y-77593399D01*
X84930785Y-77399748D01*
X85143501Y-77159992D01*
X85305356Y-76883344D01*
X85410129Y-76580435D01*
X85291315Y-76327000D01*
X83947000Y-76327000D01*
X83693000Y-76327000D01*
X82348685Y-76327000D01*
X82229871Y-76580435D01*
X75044033Y-76580435D01*
X75086300Y-76411816D01*
X75100217Y-76129488D01*
X75058787Y-75849870D01*
X75047950Y-75819565D01*
X82229871Y-75819565D01*
X82348685Y-76073000D01*
X83693000Y-76073000D01*
X83693000Y-74729223D01*
X83947000Y-74729223D01*
X83947000Y-76073000D01*
X85291315Y-76073000D01*
X85410129Y-75819565D01*
X85305356Y-75516656D01*
X85143501Y-75240008D01*
X84930785Y-75000252D01*
X84675382Y-74806601D01*
X84387107Y-74666498D01*
X84200434Y-74609876D01*
X83947000Y-74729223D01*
X83693000Y-74729223D01*
X83439566Y-74609876D01*
X83252893Y-74666498D01*
X82964618Y-74806601D01*
X82709215Y-75000252D01*
X82496499Y-75240008D01*
X82334644Y-75516656D01*
X82229871Y-75819565D01*
X75047950Y-75819565D01*
X74963603Y-75583708D01*
X74896671Y-75458486D01*
X74652702Y-75386903D01*
X73839605Y-76200000D01*
X73480395Y-76200000D01*
X72667298Y-75386903D01*
X72423329Y-75458486D01*
X72302429Y-75713996D01*
X72233700Y-75988184D01*
X72219783Y-76270512D01*
X63768010Y-76270512D01*
X63819502Y-76174180D01*
X63855812Y-76054482D01*
X63868072Y-75930000D01*
X63868072Y-75207298D01*
X72846903Y-75207298D01*
X73660000Y-76020395D01*
X74473097Y-75207298D01*
X74401514Y-74963329D01*
X74146004Y-74842429D01*
X73871816Y-74773700D01*
X73589488Y-74759783D01*
X73309870Y-74801213D01*
X73043708Y-74896397D01*
X72918486Y-74963329D01*
X72846903Y-75207298D01*
X63868072Y-75207298D01*
X63868072Y-73930000D01*
X63855812Y-73805518D01*
X63819502Y-73685820D01*
X63760537Y-73575506D01*
X63681185Y-73478815D01*
X63584494Y-73399463D01*
X63474180Y-73340498D01*
X63354482Y-73304188D01*
X63230000Y-73291928D01*
X61230000Y-73291928D01*
X61105518Y-73304188D01*
X60985820Y-73340498D01*
X60875506Y-73399463D01*
X60778815Y-73478815D01*
X60699463Y-73575506D01*
X60640498Y-73685820D01*
X60604188Y-73805518D01*
X60591928Y-73930000D01*
X-21463000Y-73930000D01*
X-21463000Y-70612258D01*
X-14552653Y-70612258D01*
X-13662328Y-71554611D01*
X-12247017Y-72355282D01*
X-10702698Y-72864455D01*
X-9088718Y-73062562D01*
X-7467101Y-72941990D01*
X-5900165Y-72507374D01*
X-4448128Y-71775414D01*
X-4117672Y-71554611D01*
X-3227347Y-70612258D01*
X-8890000Y-64949605D01*
X-14552653Y-70612258D01*
X-21463000Y-70612258D01*
X-21463000Y-64571282D01*
X-17182562Y-64571282D01*
X-17061990Y-66192899D01*
X-16627374Y-67759835D01*
X-15895414Y-69211872D01*
X-15674611Y-69542328D01*
X-14732258Y-70432653D01*
X-9069605Y-64770000D01*
X-8710395Y-64770000D01*
X-3047742Y-70432653D01*
X-2716819Y-70120000D01*
X82181928Y-70120000D01*
X82181928Y-72120000D01*
X82194188Y-72244482D01*
X82230498Y-72364180D01*
X82289463Y-72474494D01*
X82368815Y-72571185D01*
X82465506Y-72650537D01*
X82575820Y-72709502D01*
X82695518Y-72745812D01*
X82820000Y-72758072D01*
X84820000Y-72758072D01*
X84944482Y-72745812D01*
X85064180Y-72709502D01*
X85174494Y-72650537D01*
X85271185Y-72571185D01*
X85350537Y-72474494D01*
X85409502Y-72364180D01*
X85445812Y-72244482D01*
X85458072Y-72120000D01*
X85458072Y-70120000D01*
X85445812Y-69995518D01*
X85409502Y-69875820D01*
X85350537Y-69765506D01*
X85271185Y-69668815D01*
X85174494Y-69589463D01*
X85064180Y-69530498D01*
X84944482Y-69494188D01*
X84820000Y-69481928D01*
X82820000Y-69481928D01*
X82695518Y-69494188D01*
X82575820Y-69530498D01*
X82465506Y-69589463D01*
X82368815Y-69668815D01*
X82289463Y-69765506D01*
X82230498Y-69875820D01*
X82194188Y-69995518D01*
X82181928Y-70120000D01*
X-2716819Y-70120000D01*
X-2105389Y-69542328D01*
X-1304718Y-68127017D01*
X-795545Y-66582698D01*
X-597438Y-64968718D01*
X-635464Y-64457290D01*
X635000Y-64457290D01*
X635000Y-65082710D01*
X757014Y-65696113D01*
X996352Y-66273926D01*
X1343817Y-66793944D01*
X1786056Y-67236183D01*
X2306074Y-67583648D01*
X2883887Y-67822986D01*
X3497290Y-67945000D01*
X4122710Y-67945000D01*
X4736113Y-67822986D01*
X5313926Y-67583648D01*
X5833944Y-67236183D01*
X6276183Y-66793944D01*
X6623648Y-66273926D01*
X6779086Y-65898665D01*
X51905000Y-65898665D01*
X51905000Y-66181335D01*
X51960147Y-66458574D01*
X52068320Y-66719727D01*
X52225363Y-66954759D01*
X52425241Y-67154637D01*
X52660273Y-67311680D01*
X52921426Y-67419853D01*
X53198665Y-67475000D01*
X53481335Y-67475000D01*
X53758574Y-67419853D01*
X54019727Y-67311680D01*
X54254759Y-67154637D01*
X54454637Y-66954759D01*
X54611680Y-66719727D01*
X54719853Y-66458574D01*
X54775000Y-66181335D01*
X54775000Y-65898665D01*
X72225000Y-65898665D01*
X72225000Y-66181335D01*
X72280147Y-66458574D01*
X72388320Y-66719727D01*
X72545363Y-66954759D01*
X72745241Y-67154637D01*
X72980273Y-67311680D01*
X73241426Y-67419853D01*
X73518665Y-67475000D01*
X73801335Y-67475000D01*
X74078574Y-67419853D01*
X74339727Y-67311680D01*
X74574759Y-67154637D01*
X74774637Y-66954759D01*
X74931680Y-66719727D01*
X75039853Y-66458574D01*
X75095000Y-66181335D01*
X75095000Y-65898665D01*
X75039853Y-65621426D01*
X74931680Y-65360273D01*
X74774637Y-65125241D01*
X74574759Y-64925363D01*
X74339727Y-64768320D01*
X74078574Y-64660147D01*
X73801335Y-64605000D01*
X73518665Y-64605000D01*
X73241426Y-64660147D01*
X72980273Y-64768320D01*
X72745241Y-64925363D01*
X72545363Y-65125241D01*
X72388320Y-65360273D01*
X72280147Y-65621426D01*
X72225000Y-65898665D01*
X54775000Y-65898665D01*
X54719853Y-65621426D01*
X54611680Y-65360273D01*
X54454637Y-65125241D01*
X54254759Y-64925363D01*
X54019727Y-64768320D01*
X53758574Y-64660147D01*
X53481335Y-64605000D01*
X53198665Y-64605000D01*
X52921426Y-64660147D01*
X52660273Y-64768320D01*
X52425241Y-64925363D01*
X52225363Y-65125241D01*
X52068320Y-65360273D01*
X51960147Y-65621426D01*
X51905000Y-65898665D01*
X6779086Y-65898665D01*
X6862986Y-65696113D01*
X6985000Y-65082710D01*
X6985000Y-64457290D01*
X6862986Y-63843887D01*
X6623648Y-63266074D01*
X6276183Y-62746056D01*
X5833944Y-62303817D01*
X5313926Y-61956352D01*
X4736113Y-61717014D01*
X4122710Y-61595000D01*
X3497290Y-61595000D01*
X2883887Y-61717014D01*
X2306074Y-61956352D01*
X1786056Y-62303817D01*
X1343817Y-62746056D01*
X996352Y-63266074D01*
X757014Y-63843887D01*
X635000Y-64457290D01*
X-635464Y-64457290D01*
X-718010Y-63347101D01*
X-1152626Y-61780165D01*
X-1884586Y-60328128D01*
X-2105389Y-59997672D01*
X-3047742Y-59107347D01*
X-8710395Y-64770000D01*
X-9069605Y-64770000D01*
X-14732258Y-59107347D01*
X-15674611Y-59997672D01*
X-16475282Y-61412983D01*
X-16984455Y-62957302D01*
X-17182562Y-64571282D01*
X-21463000Y-64571282D01*
X-21463000Y-58927742D01*
X-14552653Y-58927742D01*
X-8890000Y-64590395D01*
X-3227347Y-58927742D01*
X-4117672Y-57985389D01*
X-5532983Y-57184718D01*
X-7077302Y-56675545D01*
X-8691282Y-56477438D01*
X-10312899Y-56598010D01*
X-11879835Y-57032626D01*
X-13331872Y-57764586D01*
X-13662328Y-57985389D01*
X-14552653Y-58927742D01*
X-21463000Y-58927742D01*
X-21463000Y-55738665D01*
X51905000Y-55738665D01*
X51905000Y-56021335D01*
X51960147Y-56298574D01*
X52068320Y-56559727D01*
X52225363Y-56794759D01*
X52425241Y-56994637D01*
X52660273Y-57151680D01*
X52921426Y-57259853D01*
X53198665Y-57315000D01*
X53481335Y-57315000D01*
X53758574Y-57259853D01*
X54019727Y-57151680D01*
X54254759Y-56994637D01*
X54454637Y-56794759D01*
X54611680Y-56559727D01*
X54719853Y-56298574D01*
X54775000Y-56021335D01*
X54775000Y-55738665D01*
X54719853Y-55461426D01*
X54611680Y-55200273D01*
X54454637Y-54965241D01*
X54254759Y-54765363D01*
X54019727Y-54608320D01*
X53758574Y-54500147D01*
X53481335Y-54445000D01*
X53198665Y-54445000D01*
X52921426Y-54500147D01*
X52660273Y-54608320D01*
X52425241Y-54765363D01*
X52225363Y-54965241D01*
X52068320Y-55200273D01*
X51960147Y-55461426D01*
X51905000Y-55738665D01*
X-21463000Y-55738665D01*
X-21463000Y-53467000D01*
X75287652Y-53467000D01*
X75188698Y-53507988D01*
G37*
X75188698Y-53507988D02*
X74839017Y-53741637D01*
X74541637Y-54039017D01*
X74307988Y-54388698D01*
X74147047Y-54777244D01*
X74065000Y-55189721D01*
X74065000Y-55610279D01*
X74147047Y-56022756D01*
X74307988Y-56411302D01*
X74541637Y-56760983D01*
X74839017Y-57058363D01*
X75188698Y-57292012D01*
X75577244Y-57452953D01*
X75989721Y-57535000D01*
X76410279Y-57535000D01*
X76822756Y-57452953D01*
X77211302Y-57292012D01*
X77560983Y-57058363D01*
X77858363Y-56760983D01*
X78092012Y-56411302D01*
X78252953Y-56022756D01*
X78335000Y-55610279D01*
X78335000Y-55189721D01*
X78252953Y-54777244D01*
X78092012Y-54388698D01*
X77858363Y-54039017D01*
X77560983Y-53741637D01*
X77211302Y-53507988D01*
X77112348Y-53467000D01*
X95123000Y-53467000D01*
X95123000Y-121793000D01*
X-21463000Y-121793000D01*
X-21463000Y-117895413D01*
X9204192Y-117895413D01*
X9299956Y-118159814D01*
X9589571Y-118300704D01*
X9901108Y-118382384D01*
X10222595Y-118401718D01*
X10541675Y-118357961D01*
X10846088Y-118252795D01*
X11020044Y-118159814D01*
X11115808Y-117895413D01*
X10160000Y-116939605D01*
X9204192Y-117895413D01*
X-21463000Y-117895413D01*
X-21463000Y-116822595D01*
X8518282Y-116822595D01*
X8562039Y-117141675D01*
X8667205Y-117446088D01*
X8760186Y-117620044D01*
X9024587Y-117715808D01*
X9980395Y-116760000D01*
X10339605Y-116760000D01*
X11295413Y-117715808D01*
X11559814Y-117620044D01*
X11700704Y-117330429D01*
X11782384Y-117018892D01*
X11801718Y-116697405D01*
X11757961Y-116378325D01*
X11652795Y-116073912D01*
X11559814Y-115899956D01*
X11295413Y-115804192D01*
X10339605Y-116760000D01*
X9980395Y-116760000D01*
X9024587Y-115804192D01*
X8760186Y-115899956D01*
X8619296Y-116189571D01*
X8537616Y-116501108D01*
X8518282Y-116822595D01*
X-21463000Y-116822595D01*
X-21463000Y-115624587D01*
X9204192Y-115624587D01*
X10160000Y-116580395D01*
X11115808Y-115624587D01*
X11020044Y-115360186D01*
X10730429Y-115219296D01*
X10418892Y-115137616D01*
X10097405Y-115118282D01*
X9778325Y-115162039D01*
X9473912Y-115267205D01*
X9299956Y-115360186D01*
X9204192Y-115624587D01*
X-21463000Y-115624587D01*
X-21463000Y-110760000D01*
X8521928Y-110760000D01*
X8521928Y-112760000D01*
X8534188Y-112884482D01*
X8570498Y-113004180D01*
X8629463Y-113114494D01*
X8708815Y-113211185D01*
X8805506Y-113290537D01*
X8915820Y-113349502D01*
X9035518Y-113385812D01*
X9160000Y-113398072D01*
X11160000Y-113398072D01*
X11284482Y-113385812D01*
X11404180Y-113349502D01*
X11514494Y-113290537D01*
X11611185Y-113211185D01*
X11690537Y-113114494D01*
X11749502Y-113004180D01*
X11785812Y-112884482D01*
X11798072Y-112760000D01*
X11798072Y-110760000D01*
X11785812Y-110635518D01*
X11749502Y-110515820D01*
X11690537Y-110405506D01*
X11611185Y-110308815D01*
X11514494Y-110229463D01*
X11404180Y-110170498D01*
X11284482Y-110134188D01*
X11160000Y-110121928D01*
X9160000Y-110121928D01*
X9035518Y-110134188D01*
X8915820Y-110170498D01*
X8805506Y-110229463D01*
X8708815Y-110308815D01*
X8629463Y-110405506D01*
X8570498Y-110515820D01*
X8534188Y-110635518D01*
X8521928Y-110760000D01*
X-21463000Y-110760000D01*
X-21463000Y-109569040D01*
X54488091Y-109569040D01*
X54582930Y-109833881D01*
X54727615Y-110075131D01*
X54916586Y-110283519D01*
X55142580Y-110451037D01*
X55396913Y-110571246D01*
X55530961Y-110611904D01*
X55753000Y-110489915D01*
X55753000Y-109347000D01*
X56007000Y-109347000D01*
X56007000Y-110489915D01*
X56229039Y-110611904D01*
X56363087Y-110571246D01*
X56617420Y-110451037D01*
X56843414Y-110283519D01*
X57032385Y-110075131D01*
X57177070Y-109833881D01*
X57271909Y-109569040D01*
X57150624Y-109347000D01*
X56007000Y-109347000D01*
X55753000Y-109347000D01*
X54609376Y-109347000D01*
X54488091Y-109569040D01*
X-21463000Y-109569040D01*
X-21463000Y-108870960D01*
X54488091Y-108870960D01*
X54609376Y-109093000D01*
X55753000Y-109093000D01*
X55753000Y-107950085D01*
X56007000Y-107950085D01*
X56007000Y-109093000D01*
X57150624Y-109093000D01*
X57271909Y-108870960D01*
X57177070Y-108606119D01*
X57032385Y-108364869D01*
X56843414Y-108156481D01*
X56617420Y-107988963D01*
X56363087Y-107868754D01*
X56229039Y-107828096D01*
X56007000Y-107950085D01*
X55753000Y-107950085D01*
X55530961Y-107828096D01*
X55396913Y-107868754D01*
X55142580Y-107988963D01*
X54916586Y-108156481D01*
X54727615Y-108364869D01*
X54582930Y-108606119D01*
X54488091Y-108870960D01*
X-21463000Y-108870960D01*
X-21463000Y-98918665D01*
X8725000Y-98918665D01*
X8725000Y-99201335D01*
X8780147Y-99478574D01*
X8888320Y-99739727D01*
X9045363Y-99974759D01*
X9245241Y-100174637D01*
X9480273Y-100331680D01*
X9741426Y-100439853D01*
X10018665Y-100495000D01*
X10301335Y-100495000D01*
X10578574Y-100439853D01*
X10839727Y-100331680D01*
X11074759Y-100174637D01*
X11274637Y-99974759D01*
X11431680Y-99739727D01*
X11539853Y-99478574D01*
X11595000Y-99201335D01*
X11595000Y-98918665D01*
X54445000Y-98918665D01*
X54445000Y-99201335D01*
X54500147Y-99478574D01*
X54608320Y-99739727D01*
X54765363Y-99974759D01*
X54965241Y-100174637D01*
X55200273Y-100331680D01*
X55461426Y-100439853D01*
X55738665Y-100495000D01*
X56021335Y-100495000D01*
X56298574Y-100439853D01*
X56559727Y-100331680D01*
X56794759Y-100174637D01*
X56994637Y-99974759D01*
X57151680Y-99739727D01*
X57259853Y-99478574D01*
X57315000Y-99201335D01*
X57315000Y-98918665D01*
X57259853Y-98641426D01*
X57151680Y-98380273D01*
X56994637Y-98145241D01*
X56794759Y-97945363D01*
X56559727Y-97788320D01*
X56298574Y-97680147D01*
X56021335Y-97625000D01*
X55738665Y-97625000D01*
X55461426Y-97680147D01*
X55200273Y-97788320D01*
X54965241Y-97945363D01*
X54765363Y-98145241D01*
X54608320Y-98380273D01*
X54500147Y-98641426D01*
X54445000Y-98918665D01*
X11595000Y-98918665D01*
X11539853Y-98641426D01*
X11431680Y-98380273D01*
X11274637Y-98145241D01*
X11074759Y-97945363D01*
X10839727Y-97788320D01*
X10578574Y-97680147D01*
X10301335Y-97625000D01*
X10018665Y-97625000D01*
X9741426Y-97680147D01*
X9480273Y-97788320D01*
X9245241Y-97945363D01*
X9045363Y-98145241D01*
X8888320Y-98380273D01*
X8780147Y-98641426D01*
X8725000Y-98918665D01*
X-21463000Y-98918665D01*
X-21463000Y-97575413D01*
X-3495808Y-97575413D01*
X-3400044Y-97839814D01*
X-3110429Y-97980704D01*
X-2798892Y-98062384D01*
X-2477405Y-98081718D01*
X-2158325Y-98037961D01*
X-1853912Y-97932795D01*
X-1679956Y-97839814D01*
X-1584192Y-97575413D01*
X-2540000Y-96619605D01*
X-3495808Y-97575413D01*
X-21463000Y-97575413D01*
X-21463000Y-96502595D01*
X-4181718Y-96502595D01*
X-4137961Y-96821675D01*
X-4032795Y-97126088D01*
X-3939814Y-97300044D01*
X-3675413Y-97395808D01*
X-2719605Y-96440000D01*
X-2360395Y-96440000D01*
X-1404587Y-97395808D01*
X-1140186Y-97300044D01*
X-999296Y-97010429D01*
X-917616Y-96698892D01*
X-898282Y-96377405D01*
X-942039Y-96058325D01*
X-1047205Y-95753912D01*
X-1140186Y-95579956D01*
X-1404587Y-95484192D01*
X-2360395Y-96440000D01*
X-2719605Y-96440000D01*
X-3675413Y-95484192D01*
X-3939814Y-95579956D01*
X-4080704Y-95869571D01*
X-4162384Y-96181108D01*
X-4181718Y-96502595D01*
X-21463000Y-96502595D01*
X-21463000Y-95304587D01*
X-3495808Y-95304587D01*
X-2540000Y-96260395D01*
X-1584192Y-95304587D01*
X-1679956Y-95040186D01*
X-1969571Y-94899296D01*
X-2281108Y-94817616D01*
X-2602595Y-94798282D01*
X-2921675Y-94842039D01*
X-3226088Y-94947205D01*
X-3400044Y-95040186D01*
X-3495808Y-95304587D01*
X-21463000Y-95304587D01*
X-21463000Y-90440000D01*
X-4178072Y-90440000D01*
X-4178072Y-92440000D01*
X-4165812Y-92564482D01*
X-4129502Y-92684180D01*
X-4070537Y-92794494D01*
X-3991185Y-92891185D01*
X-3894494Y-92970537D01*
X-3784180Y-93029502D01*
X-3664482Y-93065812D01*
X-3540000Y-93078072D01*
X-1540000Y-93078072D01*
X-1415518Y-93065812D01*
X-1295820Y-93029502D01*
X-1185506Y-92970537D01*
X-1088815Y-92891185D01*
X-1009463Y-92794494D01*
X-950498Y-92684180D01*
X-914188Y-92564482D01*
X-901928Y-92440000D01*
X-901928Y-90440000D01*
X-914188Y-90315518D01*
X-950498Y-90195820D01*
X-1009463Y-90085506D01*
X-1088815Y-89988815D01*
X-1185506Y-89909463D01*
X-1295820Y-89850498D01*
X-1415518Y-89814188D01*
X-1540000Y-89801928D01*
X-3540000Y-89801928D01*
X-3664482Y-89814188D01*
X-3784180Y-89850498D01*
X-3894494Y-89909463D01*
X-3991185Y-89988815D01*
X-4070537Y-90085506D01*
X-4129502Y-90195820D01*
X-4165812Y-90315518D01*
X-4178072Y-90440000D01*
X-21463000Y-90440000D01*
X-21463000Y-88758665D01*
X8725000Y-88758665D01*
X8725000Y-89041335D01*
X8780147Y-89318574D01*
X8888320Y-89579727D01*
X9045363Y-89814759D01*
X9245241Y-90014637D01*
X9480273Y-90171680D01*
X9741426Y-90279853D01*
X10018665Y-90335000D01*
X10301335Y-90335000D01*
X10578574Y-90279853D01*
X10839727Y-90171680D01*
X11074759Y-90014637D01*
X11274637Y-89814759D01*
X11431680Y-89579727D01*
X11539853Y-89318574D01*
X11553684Y-89249040D01*
X39248091Y-89249040D01*
X39342930Y-89513881D01*
X39487615Y-89755131D01*
X39676586Y-89963519D01*
X39902580Y-90131037D01*
X40156913Y-90251246D01*
X40290961Y-90291904D01*
X40513000Y-90169915D01*
X40513000Y-89027000D01*
X40767000Y-89027000D01*
X40767000Y-90169915D01*
X40989039Y-90291904D01*
X41123087Y-90251246D01*
X41294983Y-90170000D01*
X54237319Y-90170000D01*
X54267970Y-90481204D01*
X54358745Y-90780449D01*
X54506155Y-91056235D01*
X54704537Y-91297963D01*
X54877609Y-91440000D01*
X54704537Y-91582037D01*
X54506155Y-91823765D01*
X54358745Y-92099551D01*
X54267970Y-92398796D01*
X54237319Y-92710000D01*
X54267970Y-93021204D01*
X54358745Y-93320449D01*
X54506155Y-93596235D01*
X54704537Y-93837963D01*
X54946265Y-94036345D01*
X55222051Y-94183755D01*
X55521296Y-94274530D01*
X55754514Y-94297500D01*
X56005486Y-94297500D01*
X56238704Y-94274530D01*
X56537949Y-94183755D01*
X56813735Y-94036345D01*
X57055463Y-93837963D01*
X57253845Y-93596235D01*
X57401255Y-93320449D01*
X57492030Y-93021204D01*
X57522681Y-92710000D01*
X57492030Y-92398796D01*
X57401255Y-92099551D01*
X57253845Y-91823765D01*
X57055463Y-91582037D01*
X56882391Y-91440000D01*
X57055463Y-91297963D01*
X57253845Y-91056235D01*
X57401255Y-90780449D01*
X57492030Y-90481204D01*
X57522681Y-90170000D01*
X57492030Y-89858796D01*
X57401255Y-89559551D01*
X57253845Y-89283765D01*
X57150554Y-89157905D01*
X57234494Y-89113037D01*
X57331185Y-89033685D01*
X57410537Y-88936994D01*
X57469502Y-88826680D01*
X57505812Y-88706982D01*
X57518072Y-88582500D01*
X57518072Y-86677500D01*
X57505812Y-86553018D01*
X57469502Y-86433320D01*
X57410537Y-86323006D01*
X57331185Y-86226315D01*
X57234494Y-86146963D01*
X57124180Y-86087998D01*
X57004482Y-86051688D01*
X56880000Y-86039428D01*
X54880000Y-86039428D01*
X54755518Y-86051688D01*
X54635820Y-86087998D01*
X54525506Y-86146963D01*
X54428815Y-86226315D01*
X54349463Y-86323006D01*
X54290498Y-86433320D01*
X54254188Y-86553018D01*
X54241928Y-86677500D01*
X54241928Y-88582500D01*
X54254188Y-88706982D01*
X54290498Y-88826680D01*
X54349463Y-88936994D01*
X54428815Y-89033685D01*
X54525506Y-89113037D01*
X54609446Y-89157905D01*
X54506155Y-89283765D01*
X54358745Y-89559551D01*
X54267970Y-89858796D01*
X54237319Y-90170000D01*
X41294983Y-90170000D01*
X41377420Y-90131037D01*
X41603414Y-89963519D01*
X41792385Y-89755131D01*
X41937070Y-89513881D01*
X42031909Y-89249040D01*
X41910624Y-89027000D01*
X40767000Y-89027000D01*
X40513000Y-89027000D01*
X39369376Y-89027000D01*
X39248091Y-89249040D01*
X11553684Y-89249040D01*
X11595000Y-89041335D01*
X11595000Y-88758665D01*
X11553685Y-88550960D01*
X39248091Y-88550960D01*
X39369376Y-88773000D01*
X40513000Y-88773000D01*
X40513000Y-87630085D01*
X40767000Y-87630085D01*
X40767000Y-88773000D01*
X41910624Y-88773000D01*
X42031909Y-88550960D01*
X41937070Y-88286119D01*
X41792385Y-88044869D01*
X41603414Y-87836481D01*
X41377420Y-87668963D01*
X41123087Y-87548754D01*
X40989039Y-87508096D01*
X40767000Y-87630085D01*
X40513000Y-87630085D01*
X40290961Y-87508096D01*
X40156913Y-87548754D01*
X39902580Y-87668963D01*
X39676586Y-87836481D01*
X39487615Y-88044869D01*
X39342930Y-88286119D01*
X39248091Y-88550960D01*
X11553685Y-88550960D01*
X11539853Y-88481426D01*
X11431680Y-88220273D01*
X11274637Y-87985241D01*
X11074759Y-87785363D01*
X10839727Y-87628320D01*
X10578574Y-87520147D01*
X10301335Y-87465000D01*
X10018665Y-87465000D01*
X9741426Y-87520147D01*
X9480273Y-87628320D01*
X9245241Y-87785363D01*
X9045363Y-87985241D01*
X8888320Y-88220273D01*
X8780147Y-88481426D01*
X8725000Y-88758665D01*
X-21463000Y-88758665D01*
X-21463000Y-81065413D01*
X61274192Y-81065413D01*
X61369956Y-81329814D01*
X61659571Y-81470704D01*
X61971108Y-81552384D01*
X62292595Y-81571718D01*
X62611675Y-81527961D01*
X62916088Y-81422795D01*
X63090044Y-81329814D01*
X63185808Y-81065413D01*
X62230000Y-80109605D01*
X61274192Y-81065413D01*
X-21463000Y-81065413D01*
X-21463000Y-79875413D01*
X25794192Y-79875413D01*
X25889956Y-80139814D01*
X26179571Y-80280704D01*
X26491108Y-80362384D01*
X26812595Y-80381718D01*
X27131675Y-80337961D01*
X27436088Y-80232795D01*
X27610044Y-80139814D01*
X27705808Y-79875413D01*
X26750000Y-78919605D01*
X25794192Y-79875413D01*
X-21463000Y-79875413D01*
X-21463000Y-78802595D01*
X25108282Y-78802595D01*
X25152039Y-79121675D01*
X25257205Y-79426088D01*
X25350186Y-79600044D01*
X25614587Y-79695808D01*
X26570395Y-78740000D01*
X26929605Y-78740000D01*
X27885413Y-79695808D01*
X28149814Y-79600044D01*
X28290704Y-79310429D01*
X28372384Y-78998892D01*
X28391718Y-78677405D01*
X28347961Y-78358325D01*
X28242795Y-78053912D01*
X28149814Y-77879956D01*
X27885413Y-77784192D01*
X26929605Y-78740000D01*
X26570395Y-78740000D01*
X25614587Y-77784192D01*
X25350186Y-77879956D01*
X25209296Y-78169571D01*
X25127616Y-78481108D01*
X25108282Y-78802595D01*
X-21463000Y-78802595D01*
X-21463000Y-77604587D01*
X25794192Y-77604587D01*
X26750000Y-78560395D01*
X27570395Y-77740000D01*
X30111928Y-77740000D01*
X30111928Y-79740000D01*
X30124188Y-79864482D01*
X30160498Y-79984180D01*
X30219463Y-80094494D01*
X30298815Y-80191185D01*
X30395506Y-80270537D01*
X30505820Y-80329502D01*
X30625518Y-80365812D01*
X30750000Y-80378072D01*
X32750000Y-80378072D01*
X32874482Y-80365812D01*
X32994180Y-80329502D01*
X33104494Y-80270537D01*
X33201185Y-80191185D01*
X33280537Y-80094494D01*
X33339502Y-79984180D01*
X33375812Y-79864482D01*
X33388072Y-79740000D01*
X33388072Y-78598665D01*
X39205000Y-78598665D01*
X39205000Y-78881335D01*
X39260147Y-79158574D01*
X39368320Y-79419727D01*
X39525363Y-79654759D01*
X39725241Y-79854637D01*
X39960273Y-80011680D01*
X40221426Y-80119853D01*
X40498665Y-80175000D01*
X40781335Y-80175000D01*
X41058574Y-80119853D01*
X41319727Y-80011680D01*
X41348289Y-79992595D01*
X60588282Y-79992595D01*
X60632039Y-80311675D01*
X60737205Y-80616088D01*
X60830186Y-80790044D01*
X61094587Y-80885808D01*
X62050395Y-79930000D01*
X62409605Y-79930000D01*
X63365413Y-80885808D01*
X63629814Y-80790044D01*
X63770704Y-80500429D01*
X63852384Y-80188892D01*
X63871718Y-79867405D01*
X63827961Y-79548325D01*
X63722795Y-79243912D01*
X63629814Y-79069956D01*
X63365413Y-78974192D01*
X62409605Y-79930000D01*
X62050395Y-79930000D01*
X61094587Y-78974192D01*
X60830186Y-79069956D01*
X60689296Y-79359571D01*
X60607616Y-79671108D01*
X60588282Y-79992595D01*
X41348289Y-79992595D01*
X41554759Y-79854637D01*
X41754637Y-79654759D01*
X41911680Y-79419727D01*
X42019853Y-79158574D01*
X42075000Y-78881335D01*
X42075000Y-78794587D01*
X61274192Y-78794587D01*
X62230000Y-79750395D01*
X63185808Y-78794587D01*
X63090044Y-78530186D01*
X62800429Y-78389296D01*
X62488892Y-78307616D01*
X62167405Y-78288282D01*
X61848325Y-78332039D01*
X61543912Y-78437205D01*
X61369956Y-78530186D01*
X61274192Y-78794587D01*
X42075000Y-78794587D01*
X42075000Y-78598665D01*
X42019853Y-78321426D01*
X41911680Y-78060273D01*
X41754637Y-77825241D01*
X41554759Y-77625363D01*
X41319727Y-77468320D01*
X41058574Y-77360147D01*
X40781335Y-77305000D01*
X40498665Y-77305000D01*
X40221426Y-77360147D01*
X39960273Y-77468320D01*
X39725241Y-77625363D01*
X39525363Y-77825241D01*
X39368320Y-78060273D01*
X39260147Y-78321426D01*
X39205000Y-78598665D01*
X33388072Y-78598665D01*
X33388072Y-77740000D01*
X33375812Y-77615518D01*
X33339502Y-77495820D01*
X33280537Y-77385506D01*
X33201185Y-77288815D01*
X33104494Y-77209463D01*
X33073137Y-77192702D01*
X72846903Y-77192702D01*
X72918486Y-77436671D01*
X73173996Y-77557571D01*
X73448184Y-77626300D01*
X73730512Y-77640217D01*
X74010130Y-77598787D01*
X74276292Y-77503603D01*
X74401514Y-77436671D01*
X74473097Y-77192702D01*
X73660000Y-76379605D01*
X72846903Y-77192702D01*
X33073137Y-77192702D01*
X32994180Y-77150498D01*
X32874482Y-77114188D01*
X32750000Y-77101928D01*
X30750000Y-77101928D01*
X30625518Y-77114188D01*
X30505820Y-77150498D01*
X30395506Y-77209463D01*
X30298815Y-77288815D01*
X30219463Y-77385506D01*
X30160498Y-77495820D01*
X30124188Y-77615518D01*
X30111928Y-77740000D01*
X27570395Y-77740000D01*
X27705808Y-77604587D01*
X27610044Y-77340186D01*
X27320429Y-77199296D01*
X27008892Y-77117616D01*
X26687405Y-77098282D01*
X26368325Y-77142039D01*
X26063912Y-77247205D01*
X25889956Y-77340186D01*
X25794192Y-77604587D01*
X-21463000Y-77604587D01*
X-21463000Y-73930000D01*
X60591928Y-73930000D01*
X60591928Y-75930000D01*
X60604188Y-76054482D01*
X60640498Y-76174180D01*
X60699463Y-76284494D01*
X60778815Y-76381185D01*
X60875506Y-76460537D01*
X60985820Y-76519502D01*
X61105518Y-76555812D01*
X61230000Y-76568072D01*
X63230000Y-76568072D01*
X63354482Y-76555812D01*
X63474180Y-76519502D01*
X63584494Y-76460537D01*
X63681185Y-76381185D01*
X63760537Y-76284494D01*
X63768010Y-76270512D01*
X72219783Y-76270512D01*
X72261213Y-76550130D01*
X72356397Y-76816292D01*
X72423329Y-76941514D01*
X72667298Y-77013097D01*
X73480395Y-76200000D01*
X73839605Y-76200000D01*
X74652702Y-77013097D01*
X74896671Y-76941514D01*
X75017571Y-76686004D01*
X75044033Y-76580435D01*
X82229871Y-76580435D01*
X82334644Y-76883344D01*
X82496499Y-77159992D01*
X82709215Y-77399748D01*
X82964618Y-77593399D01*
X83252893Y-77733502D01*
X83439566Y-77790124D01*
X83693000Y-77670777D01*
X83693000Y-76327000D01*
X83947000Y-76327000D01*
X83947000Y-77670777D01*
X84200434Y-77790124D01*
X84387107Y-77733502D01*
X84675382Y-77593399D01*
X84930785Y-77399748D01*
X85143501Y-77159992D01*
X85305356Y-76883344D01*
X85410129Y-76580435D01*
X85291315Y-76327000D01*
X83947000Y-76327000D01*
X83693000Y-76327000D01*
X82348685Y-76327000D01*
X82229871Y-76580435D01*
X75044033Y-76580435D01*
X75086300Y-76411816D01*
X75100217Y-76129488D01*
X75058787Y-75849870D01*
X75047950Y-75819565D01*
X82229871Y-75819565D01*
X82348685Y-76073000D01*
X83693000Y-76073000D01*
X83693000Y-74729223D01*
X83947000Y-74729223D01*
X83947000Y-76073000D01*
X85291315Y-76073000D01*
X85410129Y-75819565D01*
X85305356Y-75516656D01*
X85143501Y-75240008D01*
X84930785Y-75000252D01*
X84675382Y-74806601D01*
X84387107Y-74666498D01*
X84200434Y-74609876D01*
X83947000Y-74729223D01*
X83693000Y-74729223D01*
X83439566Y-74609876D01*
X83252893Y-74666498D01*
X82964618Y-74806601D01*
X82709215Y-75000252D01*
X82496499Y-75240008D01*
X82334644Y-75516656D01*
X82229871Y-75819565D01*
X75047950Y-75819565D01*
X74963603Y-75583708D01*
X74896671Y-75458486D01*
X74652702Y-75386903D01*
X73839605Y-76200000D01*
X73480395Y-76200000D01*
X72667298Y-75386903D01*
X72423329Y-75458486D01*
X72302429Y-75713996D01*
X72233700Y-75988184D01*
X72219783Y-76270512D01*
X63768010Y-76270512D01*
X63819502Y-76174180D01*
X63855812Y-76054482D01*
X63868072Y-75930000D01*
X63868072Y-75207298D01*
X72846903Y-75207298D01*
X73660000Y-76020395D01*
X74473097Y-75207298D01*
X74401514Y-74963329D01*
X74146004Y-74842429D01*
X73871816Y-74773700D01*
X73589488Y-74759783D01*
X73309870Y-74801213D01*
X73043708Y-74896397D01*
X72918486Y-74963329D01*
X72846903Y-75207298D01*
X63868072Y-75207298D01*
X63868072Y-73930000D01*
X63855812Y-73805518D01*
X63819502Y-73685820D01*
X63760537Y-73575506D01*
X63681185Y-73478815D01*
X63584494Y-73399463D01*
X63474180Y-73340498D01*
X63354482Y-73304188D01*
X63230000Y-73291928D01*
X61230000Y-73291928D01*
X61105518Y-73304188D01*
X60985820Y-73340498D01*
X60875506Y-73399463D01*
X60778815Y-73478815D01*
X60699463Y-73575506D01*
X60640498Y-73685820D01*
X60604188Y-73805518D01*
X60591928Y-73930000D01*
X-21463000Y-73930000D01*
X-21463000Y-70612258D01*
X-14552653Y-70612258D01*
X-13662328Y-71554611D01*
X-12247017Y-72355282D01*
X-10702698Y-72864455D01*
X-9088718Y-73062562D01*
X-7467101Y-72941990D01*
X-5900165Y-72507374D01*
X-4448128Y-71775414D01*
X-4117672Y-71554611D01*
X-3227347Y-70612258D01*
X-8890000Y-64949605D01*
X-14552653Y-70612258D01*
X-21463000Y-70612258D01*
X-21463000Y-64571282D01*
X-17182562Y-64571282D01*
X-17061990Y-66192899D01*
X-16627374Y-67759835D01*
X-15895414Y-69211872D01*
X-15674611Y-69542328D01*
X-14732258Y-70432653D01*
X-9069605Y-64770000D01*
X-8710395Y-64770000D01*
X-3047742Y-70432653D01*
X-2716819Y-70120000D01*
X82181928Y-70120000D01*
X82181928Y-72120000D01*
X82194188Y-72244482D01*
X82230498Y-72364180D01*
X82289463Y-72474494D01*
X82368815Y-72571185D01*
X82465506Y-72650537D01*
X82575820Y-72709502D01*
X82695518Y-72745812D01*
X82820000Y-72758072D01*
X84820000Y-72758072D01*
X84944482Y-72745812D01*
X85064180Y-72709502D01*
X85174494Y-72650537D01*
X85271185Y-72571185D01*
X85350537Y-72474494D01*
X85409502Y-72364180D01*
X85445812Y-72244482D01*
X85458072Y-72120000D01*
X85458072Y-70120000D01*
X85445812Y-69995518D01*
X85409502Y-69875820D01*
X85350537Y-69765506D01*
X85271185Y-69668815D01*
X85174494Y-69589463D01*
X85064180Y-69530498D01*
X84944482Y-69494188D01*
X84820000Y-69481928D01*
X82820000Y-69481928D01*
X82695518Y-69494188D01*
X82575820Y-69530498D01*
X82465506Y-69589463D01*
X82368815Y-69668815D01*
X82289463Y-69765506D01*
X82230498Y-69875820D01*
X82194188Y-69995518D01*
X82181928Y-70120000D01*
X-2716819Y-70120000D01*
X-2105389Y-69542328D01*
X-1304718Y-68127017D01*
X-795545Y-66582698D01*
X-597438Y-64968718D01*
X-635464Y-64457290D01*
X635000Y-64457290D01*
X635000Y-65082710D01*
X757014Y-65696113D01*
X996352Y-66273926D01*
X1343817Y-66793944D01*
X1786056Y-67236183D01*
X2306074Y-67583648D01*
X2883887Y-67822986D01*
X3497290Y-67945000D01*
X4122710Y-67945000D01*
X4736113Y-67822986D01*
X5313926Y-67583648D01*
X5833944Y-67236183D01*
X6276183Y-66793944D01*
X6623648Y-66273926D01*
X6779086Y-65898665D01*
X51905000Y-65898665D01*
X51905000Y-66181335D01*
X51960147Y-66458574D01*
X52068320Y-66719727D01*
X52225363Y-66954759D01*
X52425241Y-67154637D01*
X52660273Y-67311680D01*
X52921426Y-67419853D01*
X53198665Y-67475000D01*
X53481335Y-67475000D01*
X53758574Y-67419853D01*
X54019727Y-67311680D01*
X54254759Y-67154637D01*
X54454637Y-66954759D01*
X54611680Y-66719727D01*
X54719853Y-66458574D01*
X54775000Y-66181335D01*
X54775000Y-65898665D01*
X72225000Y-65898665D01*
X72225000Y-66181335D01*
X72280147Y-66458574D01*
X72388320Y-66719727D01*
X72545363Y-66954759D01*
X72745241Y-67154637D01*
X72980273Y-67311680D01*
X73241426Y-67419853D01*
X73518665Y-67475000D01*
X73801335Y-67475000D01*
X74078574Y-67419853D01*
X74339727Y-67311680D01*
X74574759Y-67154637D01*
X74774637Y-66954759D01*
X74931680Y-66719727D01*
X75039853Y-66458574D01*
X75095000Y-66181335D01*
X75095000Y-65898665D01*
X75039853Y-65621426D01*
X74931680Y-65360273D01*
X74774637Y-65125241D01*
X74574759Y-64925363D01*
X74339727Y-64768320D01*
X74078574Y-64660147D01*
X73801335Y-64605000D01*
X73518665Y-64605000D01*
X73241426Y-64660147D01*
X72980273Y-64768320D01*
X72745241Y-64925363D01*
X72545363Y-65125241D01*
X72388320Y-65360273D01*
X72280147Y-65621426D01*
X72225000Y-65898665D01*
X54775000Y-65898665D01*
X54719853Y-65621426D01*
X54611680Y-65360273D01*
X54454637Y-65125241D01*
X54254759Y-64925363D01*
X54019727Y-64768320D01*
X53758574Y-64660147D01*
X53481335Y-64605000D01*
X53198665Y-64605000D01*
X52921426Y-64660147D01*
X52660273Y-64768320D01*
X52425241Y-64925363D01*
X52225363Y-65125241D01*
X52068320Y-65360273D01*
X51960147Y-65621426D01*
X51905000Y-65898665D01*
X6779086Y-65898665D01*
X6862986Y-65696113D01*
X6985000Y-65082710D01*
X6985000Y-64457290D01*
X6862986Y-63843887D01*
X6623648Y-63266074D01*
X6276183Y-62746056D01*
X5833944Y-62303817D01*
X5313926Y-61956352D01*
X4736113Y-61717014D01*
X4122710Y-61595000D01*
X3497290Y-61595000D01*
X2883887Y-61717014D01*
X2306074Y-61956352D01*
X1786056Y-62303817D01*
X1343817Y-62746056D01*
X996352Y-63266074D01*
X757014Y-63843887D01*
X635000Y-64457290D01*
X-635464Y-64457290D01*
X-718010Y-63347101D01*
X-1152626Y-61780165D01*
X-1884586Y-60328128D01*
X-2105389Y-59997672D01*
X-3047742Y-59107347D01*
X-8710395Y-64770000D01*
X-9069605Y-64770000D01*
X-14732258Y-59107347D01*
X-15674611Y-59997672D01*
X-16475282Y-61412983D01*
X-16984455Y-62957302D01*
X-17182562Y-64571282D01*
X-21463000Y-64571282D01*
X-21463000Y-58927742D01*
X-14552653Y-58927742D01*
X-8890000Y-64590395D01*
X-3227347Y-58927742D01*
X-4117672Y-57985389D01*
X-5532983Y-57184718D01*
X-7077302Y-56675545D01*
X-8691282Y-56477438D01*
X-10312899Y-56598010D01*
X-11879835Y-57032626D01*
X-13331872Y-57764586D01*
X-13662328Y-57985389D01*
X-14552653Y-58927742D01*
X-21463000Y-58927742D01*
X-21463000Y-55738665D01*
X51905000Y-55738665D01*
X51905000Y-56021335D01*
X51960147Y-56298574D01*
X52068320Y-56559727D01*
X52225363Y-56794759D01*
X52425241Y-56994637D01*
X52660273Y-57151680D01*
X52921426Y-57259853D01*
X53198665Y-57315000D01*
X53481335Y-57315000D01*
X53758574Y-57259853D01*
X54019727Y-57151680D01*
X54254759Y-56994637D01*
X54454637Y-56794759D01*
X54611680Y-56559727D01*
X54719853Y-56298574D01*
X54775000Y-56021335D01*
X54775000Y-55738665D01*
X54719853Y-55461426D01*
X54611680Y-55200273D01*
X54454637Y-54965241D01*
X54254759Y-54765363D01*
X54019727Y-54608320D01*
X53758574Y-54500147D01*
X53481335Y-54445000D01*
X53198665Y-54445000D01*
X52921426Y-54500147D01*
X52660273Y-54608320D01*
X52425241Y-54765363D01*
X52225363Y-54965241D01*
X52068320Y-55200273D01*
X51960147Y-55461426D01*
X51905000Y-55738665D01*
X-21463000Y-55738665D01*
X-21463000Y-53467000D01*
X75287652Y-53467000D01*
X75188698Y-53507988D01*
M02*
