G04 #@! TF.GenerationSoftware,KiCad,Pcbnew,(5.1.5)-3*
G04 #@! TF.CreationDate,2020-06-24T22:01:33+03:00*
G04 #@! TF.ProjectId,forward_converter_opto,666f7277-6172-4645-9f63-6f6e76657274,rev?*
G04 #@! TF.SameCoordinates,Original*
G04 #@! TF.FileFunction,Copper,L1,Top*
G04 #@! TF.FilePolarity,Positive*
%FSLAX46Y46*%
G04 Gerber Fmt 4.6, Leading zero omitted, Abs format (unit mm)*
G04 Created by KiCad (PCBNEW (5.1.5)-3) date 2020-06-24 22:01:33*
%MOMM*%
%LPD*%
G04 APERTURE LIST*
%ADD10C,2.000000*%
%ADD11R,2.000000X2.000000*%
%ADD12C,3.000000*%
%ADD13C,2.400000*%
%ADD14R,2.000000X1.905000*%
%ADD15O,2.000000X1.905000*%
%ADD16O,2.000000X2.000000*%
%ADD17C,14.000000*%
%ADD18O,1.600000X1.600000*%
%ADD19C,1.600000*%
%ADD20R,1.400000X0.300000*%
%ADD21C,15.240000*%
%ADD22C,5.080000*%
%ADD23C,0.250000*%
%ADD24C,0.400000*%
G04 APERTURE END LIST*
D10*
X243840000Y-35480000D03*
D11*
X243840000Y-30480000D03*
D12*
X76200000Y-25400000D03*
X76200000Y-35400000D03*
X76200000Y-45400000D03*
X76200000Y-55400000D03*
D13*
X142200000Y-30400000D03*
X142200000Y-50400000D03*
D14*
X55880000Y-87630000D03*
D15*
X55880000Y-90170000D03*
X55880000Y-92710000D03*
D10*
X-2540000Y-96440000D03*
D11*
X-2540000Y-91440000D03*
X10160000Y-111760000D03*
D10*
X10160000Y-116760000D03*
D11*
X31750000Y-78740000D03*
D10*
X26750000Y-78740000D03*
X62230000Y-79930000D03*
D11*
X62230000Y-74930000D03*
X83820000Y-71120000D03*
D16*
X83820000Y-76200000D03*
D11*
X157480000Y-27940000D03*
D16*
X152400000Y-27940000D03*
D11*
X167640000Y-48260000D03*
D16*
X167640000Y-53340000D03*
D17*
X185980000Y-27940000D03*
X220980000Y-27940000D03*
D18*
X10160000Y-99060000D03*
D19*
X10160000Y-88900000D03*
D18*
X40640000Y-88900000D03*
D19*
X40640000Y-78740000D03*
D18*
X53340000Y-66040000D03*
D19*
X53340000Y-55880000D03*
X73660000Y-76200000D03*
D18*
X73660000Y-66040000D03*
D19*
X55880000Y-99060000D03*
D18*
X55880000Y-109220000D03*
X269240000Y-38100000D03*
D19*
X269240000Y-27940000D03*
X269240000Y-53340000D03*
D18*
X269240000Y-63500000D03*
D20*
X43520000Y-72660000D03*
X43520000Y-73160000D03*
X43520000Y-73660000D03*
X43520000Y-74160000D03*
X43520000Y-74660000D03*
X47920000Y-74660000D03*
X47920000Y-74160000D03*
X47920000Y-73660000D03*
X47920000Y-73160000D03*
X47920000Y-72660000D03*
D21*
X-8890000Y-26670000D03*
D22*
X3810000Y-26670000D03*
X3810000Y-64770000D03*
D21*
X-8890000Y-64770000D03*
X210820000Y-83820000D03*
D22*
X210820000Y-96520000D03*
X171450000Y-96520000D03*
D21*
X171450000Y-83820000D03*
D23*
X42570000Y-72660000D02*
X35950000Y-66040000D01*
X43520000Y-72660000D02*
X42570000Y-72660000D01*
X35950000Y-66040000D02*
X16510000Y-66040000D01*
X16510000Y-66040000D02*
X10160000Y-72390000D01*
X10160000Y-78740000D02*
X-2540000Y-91440000D01*
X10160000Y-78740000D02*
X10160000Y-88900000D01*
X10160000Y-72390000D02*
X10160000Y-78740000D01*
X10160000Y-99060000D02*
X10160000Y-111760000D01*
X33000000Y-78740000D02*
X38080000Y-73660000D01*
X31750000Y-78740000D02*
X33000000Y-78740000D01*
X38080000Y-73660000D02*
X43520000Y-73660000D01*
X48870000Y-73660000D02*
X47920000Y-73660000D01*
X59710000Y-73660000D02*
X48870000Y-73660000D01*
X60980000Y-74930000D02*
X59710000Y-73660000D01*
X62230000Y-74930000D02*
X60980000Y-74930000D01*
X164700000Y-50400000D02*
X167640000Y-53340000D01*
D24*
X142200000Y-50400000D02*
X164700000Y-50400000D01*
D23*
X242550000Y-27940000D02*
X243840000Y-29230000D01*
X243840000Y-29230000D02*
X243840000Y-30480000D01*
D24*
X220980000Y-27940000D02*
X242550000Y-27940000D01*
X256540000Y-30480000D02*
X259080000Y-27940000D01*
X243840000Y-30480000D02*
X256540000Y-30480000D01*
X259080000Y-27940000D02*
X269240000Y-27940000D01*
X220980000Y-73660000D02*
X210820000Y-83820000D01*
X220980000Y-27940000D02*
X220980000Y-73660000D01*
X83820000Y-43020000D02*
X76200000Y-35400000D01*
X83820000Y-71120000D02*
X83820000Y-43020000D01*
X149940000Y-30400000D02*
X152400000Y-27940000D01*
X142200000Y-30400000D02*
X149940000Y-30400000D01*
X157480000Y-27940000D02*
X185980000Y-27940000D01*
X167640000Y-48260000D02*
X167640000Y-27940000D01*
D23*
X48870000Y-74160000D02*
X47920000Y-74160000D01*
X55880000Y-81170000D02*
X48870000Y-74160000D01*
X55880000Y-87630000D02*
X55880000Y-81170000D01*
D24*
X76200000Y-55400000D02*
X76200000Y-85090000D01*
X71120000Y-90170000D02*
X55880000Y-90170000D01*
X76200000Y-85090000D02*
X71120000Y-90170000D01*
D23*
X47920000Y-75060000D02*
X47920000Y-74660000D01*
X47920000Y-86000000D02*
X47920000Y-75060000D01*
X54630000Y-92710000D02*
X47920000Y-86000000D01*
X55880000Y-92710000D02*
X54630000Y-92710000D01*
X55880000Y-92710000D02*
X55880000Y-99060000D01*
X42570000Y-74160000D02*
X43520000Y-74160000D01*
X40640000Y-76090000D02*
X42570000Y-74160000D01*
X40640000Y-78740000D02*
X40640000Y-76090000D01*
X53340000Y-67171370D02*
X53340000Y-66040000D01*
X53340000Y-68690000D02*
X53340000Y-67171370D01*
X48870000Y-73160000D02*
X53340000Y-68690000D01*
X47920000Y-73160000D02*
X48870000Y-73160000D01*
X53340000Y-66040000D02*
X73660000Y-66040000D01*
X269240000Y-38100000D02*
X269240000Y-53340000D01*
X17780000Y-90170000D02*
X17780000Y-71120000D01*
X17780000Y-71120000D02*
X39370000Y-71120000D01*
X39370000Y-71120000D02*
X41410000Y-73160000D01*
X42570000Y-73160000D02*
X43520000Y-73160000D01*
X41410000Y-73160000D02*
X42570000Y-73160000D01*
X43180000Y-115570000D02*
X17780000Y-90170000D01*
X269240000Y-53340000D02*
X207010000Y-115570000D01*
X207010000Y-115570000D02*
X43180000Y-115570000D01*
X47920000Y-61300000D02*
X47920000Y-72660000D01*
D24*
X53340000Y-55880000D02*
X47920000Y-61300000D01*
X76200000Y-25400000D02*
X71120000Y-30480000D01*
X71120000Y-40320000D02*
X76200000Y-45400000D01*
X71120000Y-30480000D02*
X71120000Y-40320000D01*
X53340000Y-55880000D02*
X55880000Y-55880000D01*
X55880000Y-55560000D02*
X71120000Y-40320000D01*
X55880000Y-55880000D02*
X55880000Y-55560000D01*
X25740000Y-61300000D02*
X47920000Y-61300000D01*
X-8890000Y-26670000D02*
X25740000Y-61300000D01*
M02*
